<svg width="108" height="24" viewBox="0 0 108 24" fill="none" xmlns="http://www.w3.org/2000/svg">
<g clip-path="url(#clip0_18993_26493)">
<path d="M70.2573 8.73938C68.4507 7.15913 66.2699 6.38681 63.7477 6.38681C61.2609 6.38681 59.0801 7.16049 57.2721 8.73938C55.4655 10.2852 54.5478 12.437 54.5478 15.1935C54.5478 17.9498 55.4655 20.1004 57.2721 21.6805C59.0788 23.2265 61.2609 24 63.7477 24C66.2699 24 68.4507 23.2265 70.2573 21.6805C72.0981 20.1004 73.0171 17.9498 73.0171 15.1933C73.0171 12.4369 72.0967 10.2852 70.2573 8.73938ZM60.3419 18.7221C59.3887 17.8152 58.9094 16.6378 58.9094 15.1935C58.9094 13.7479 59.3846 12.5717 60.3419 11.6977C61.2951 10.7908 62.4203 10.3538 63.7463 10.3538C65.0736 10.3538 66.233 10.7908 67.1875 11.6977C68.1734 12.5717 68.6541 13.7479 68.6541 15.1935C68.6541 16.639 68.1775 17.8152 67.1875 18.7221C66.2343 19.596 65.075 20.0331 63.7463 20.0331C62.4203 20.0331 61.2964 19.596 60.3419 18.7221ZM79.4599 23.5283V0.463315H75.1665V23.5283H79.4599ZM93.3191 6.85651V16.0595C93.3191 18.2772 92.1037 19.7469 89.7904 19.7469C87.4389 19.7469 86.2563 18.2784 86.2563 16.0595V6.85651H81.9548V16.7656C81.9548 20.6043 84.4073 23.9984 89.7904 23.9984H89.8232C95.1735 23.9984 97.6234 20.5294 97.6234 16.7656V6.85651H93.3191ZM49.9772 6.85651L45.6839 18.1502L41.3891 6.85651H36.8241L43.6751 23.5284H47.6967L54.5464 6.85651H49.9772ZM36.8459 14.7221C36.8459 12.3023 36.0621 10.3195 34.5285 8.73938C32.995 7.15913 31.0204 6.38681 28.6006 6.38681C26.1139 6.38681 24 7.22778 22.2616 8.87396C20.556 10.5215 19.7066 12.6046 19.7066 15.1935C19.7066 17.7822 20.5574 19.8997 22.2275 21.5459C23.9331 23.1934 25.9773 24 28.3958 24C32.1128 24 34.7361 22.3869 36.3338 19.126L33.1315 17.3109C32.0773 19.3611 30.5424 20.3695 28.464 20.3695C25.909 20.3695 24.1024 18.7565 23.8293 16.2019H36.8445V14.7221H36.8459ZM28.4613 9.61325C30.8811 9.61325 32.4843 10.9572 32.8912 13.109H23.8279C24.4766 11.1262 26.2464 9.61325 28.4613 9.61325ZM19.7066 23.5285L13.9453 13.5801C17.59 12.2692 19.3967 9.98397 19.3967 6.65598C19.4008 2.58871 16.1261 0 10.9137 0H0.726562V23.5285H5.22476V13.9827H9.04288L14.5612 23.5285H19.7066ZM10.9137 3.89829C13.5711 3.89829 14.9012 4.93978 14.9012 6.99C14.9012 9.04022 13.5698 10.0819 10.9137 10.0819H5.22476V3.89829H10.9137ZM104.902 23.9985C102.138 23.9985 99.897 21.7869 99.897 19.0572V2.35257H104.19V6.86303H107.872V10.2913H104.19V18.7855C104.19 19.5857 104.847 20.2334 105.66 20.2334H107.872V23.9985H104.902Z" fill="#1B1B1B" fill-opacity="0.55"/>
</g>
<defs>
<clipPath id="clip0_18993_26493">
<rect width="107.145" height="24" fill="white" transform="translate(0.726562)"/>
</clipPath>
</defs>
</svg>
