<svg width="101" height="18" viewBox="0 0 101 18" fill="none" xmlns="http://www.w3.org/2000/svg">
<g clip-path="url(#clip0_18993_26497)">
<g clip-path="url(#clip1_18993_26497)">
<path d="M98.2697 0.758242L95.9266 0.750319V3.26934L98.2697 3.25683V17.246H100.613V0.758242H98.2697ZM93.0194 4.76591C93.0194 2.56589 91.9848 0.619385 89.5475 0.619385C87.5931 0.619385 86.0311 2.23855 86.0311 4.20965V5.50607H88.3741V4.16045C88.3741 3.39611 88.832 2.9787 89.5234 2.9787C90.6722 2.9787 90.6722 3.97239 90.6722 4.80678C90.6722 5.71039 90.6722 6.17242 90.2593 6.98221L86.0311 15.0172V17.2418H93.0194V14.8783H88.7911L92.2384 8.18438C92.9743 6.77747 93.0194 6.36048 93.0194 4.76591ZM70.9665 8.12309H69.6334V2.98287H70.8523C72.5778 2.98287 72.8517 3.88649 72.8517 5.55486C72.8517 7.19487 72.6024 8.12309 70.9665 8.12309ZM75.199 5.59989C75.199 2.40243 73.8413 0.758242 71.0608 0.758242H67.2904V17.246H69.6334V10.2084H71.0362L73.2199 17.2501H75.7019L73.1749 9.72182C74.6673 8.88743 75.199 7.49719 75.199 5.59989ZM56.6872 17.246H63.6759V14.8825H59.0344V10.045H63.0788V7.82035H59.0344V2.98287H63.6759V0.758242H56.6872V17.246ZM48.8157 12.2692H48.7707L46.9101 0.758242H44.4282L47.7607 17.246H49.8298L53.187 0.758242H50.7051L48.8157 12.2692ZM34.43 17.246H41.4183V14.8825H36.7731V10.045H40.8175V7.82035H36.7731V2.98287H41.4146V0.758242H34.43V17.246ZM26.4155 8.12309H25.0824V2.98287H26.3009C28.0268 2.98287 28.3007 3.88649 28.3007 5.55486C28.2966 7.19487 28.0472 8.12309 26.4155 8.12309ZM30.6438 5.59989C30.6438 2.40243 29.2861 0.758242 26.5056 0.758242H22.7352V17.246H25.0782V10.2084H26.481L28.6643 17.2501H31.1467L28.6193 9.72182C30.1163 8.88743 30.6438 7.49719 30.6438 5.59989ZM16.6221 13.3571C16.6221 14.4938 15.8857 15.0255 15.0355 15.0255C14.1848 15.0255 13.4489 14.4938 13.4489 13.3571V4.64707C13.4489 3.51036 14.1848 2.9787 15.0355 2.9787C15.8857 2.9787 16.6221 3.51036 16.6221 4.64707V13.3571ZM15.0355 0.619385C13.1257 0.619385 11.1058 1.96042 11.1058 4.64707V13.353C11.1058 16.0396 13.1299 17.3806 15.0355 17.3806C16.9449 17.3806 18.9652 16.0396 18.9652 13.353V4.64707C18.9652 1.96042 16.9449 0.619385 15.0355 0.619385ZM0.837891 17.246H3.18095V10.2084H7.22532V7.98381H3.18095V2.98287H7.82203V0.758242H0.837891V17.246Z" fill="#1B1B1B" fill-opacity="0.55"/>
</g>
</g>
<defs>
<clipPath id="clip0_18993_26497">
<rect width="99.7753" height="16.7613" fill="white" transform="translate(0.837891 0.619385)"/>
</clipPath>
<clipPath id="clip1_18993_26497">
<rect width="99.7753" height="16.7613" fill="white" transform="translate(0.837891 0.619385)"/>
</clipPath>
</defs>
</svg>
