<svg width="94" height="22" viewBox="0 0 94 22" fill="none" xmlns="http://www.w3.org/2000/svg">
<g clip-path="url(#clip0_18951_2166)">
<g clip-path="url(#clip1_18951_2166)">
<path d="M90.5268 16.0376C90.1778 16.0389 89.8325 16.109 89.5107 16.244C89.1888 16.3789 88.8967 16.5759 88.6511 16.8238C88.4055 17.0718 88.2111 17.3657 88.0792 17.6888C87.9474 18.0119 87.8805 18.3579 87.8824 18.7068C87.8805 19.0558 87.9474 19.4018 88.0792 19.7249C88.2111 20.048 88.4055 20.3419 88.6511 20.5899C88.8967 20.8378 89.1888 21.0348 89.5107 21.1697C89.8325 21.3046 90.1778 21.3748 90.5268 21.3761C91.9855 21.3761 93.1712 20.1804 93.1712 18.7068C93.1732 18.3579 93.1063 18.0119 92.9744 17.6888C92.8425 17.3657 92.6482 17.0718 92.4026 16.8238C92.157 16.5759 91.8649 16.3789 91.543 16.244C91.2211 16.109 90.8758 16.0389 90.5268 16.0376ZM81.8246 13.9762C81.8246 11.9569 80.1154 10.3222 78.0069 10.3222C75.8983 10.3222 74.1891 11.9594 74.1891 13.9762C74.1891 15.993 75.9008 17.6278 78.0093 17.6278C80.1179 17.6278 81.8246 15.993 81.8246 13.9762ZM81.8395 6.87402H86.0517V21.0759H81.8395V20.168C80.6114 21.0157 79.1543 21.4691 77.662 21.4678C73.5615 21.4678 70.2374 18.114 70.2374 13.9762C70.2374 9.83843 73.5615 6.48456 77.662 6.48456C79.2125 6.48456 80.6488 6.96333 81.8395 7.78443V6.87402ZM48.1222 8.72461V6.8765H43.8083V21.0759H48.1321V14.445C48.1321 12.2075 50.5334 11.0068 52.2004 11.0068H52.25V6.8765C50.5383 6.8765 48.9681 7.61574 48.1222 8.72461ZM37.3759 13.9762C37.3759 11.9569 35.6667 10.3222 33.5581 10.3222C31.4495 10.3222 29.7403 11.9594 29.7403 13.9762C29.7403 15.993 31.452 17.6278 33.5606 17.6278C35.6692 17.6278 37.3759 15.993 37.3759 13.9762ZM37.3907 6.87402H41.6054V21.0759H37.3907V20.168C36.2 20.9866 34.7637 21.4678 33.2133 21.4678C29.1127 21.4678 25.7886 18.114 25.7886 13.9762C25.7886 9.83843 29.1127 6.48456 33.2133 6.48456C34.7637 6.48456 36.2 6.96333 37.3907 7.78443V6.87402ZM62.7507 6.49448C61.0688 6.49448 59.4762 7.02038 58.4095 8.47406V6.8765H54.2147V21.0759H58.4616V13.614C58.4616 11.4558 59.8954 10.3966 61.6245 10.3966C63.4751 10.3966 64.5417 11.5129 64.5417 13.5843V21.0759H68.749V12.0462C68.749 8.74197 66.1443 6.49448 62.7507 6.49448ZM19.6514 21.0759H24.0621V0.548298H19.6514V21.0759ZM0.277344 21.0809H4.94846V0.543335H0.279824L0.277344 21.0809ZM16.6151 0.543335C16.6151 4.98871 14.8984 9.12648 11.8373 12.2L18.292 21.0809H12.5244L5.51157 11.431L7.32246 10.0617C8.79667 8.95294 9.99111 7.51475 10.8104 5.86204C11.6296 4.20934 12.0509 2.38792 12.0407 0.543335H16.6101H16.6151Z" fill="#1B1B1B" fill-opacity="0.55"/>
</g>
</g>
<defs>
<clipPath id="clip0_18951_2166">
<rect width="92.8954" height="20.9788" fill="white" transform="translate(0.277344 0.51062)"/>
</clipPath>
<clipPath id="clip1_18951_2166">
<rect width="92.8954" height="20.9788" fill="white" transform="translate(0.277344 0.51062)"/>
</clipPath>
</defs>
</svg>
