<svg width="106" height="26" viewBox="0 0 106 26" fill="none" xmlns="http://www.w3.org/2000/svg">
<g clip-path="url(#clip0_18993_26525)">
<path d="M23.5227 0.0783691H3.86794C2.05114 0.0783691 0.601562 1.52472 0.601562 3.30223V22.6977C0.601562 24.4752 2.06914 25.9216 3.86794 25.9216H23.5059C25.3227 25.9216 26.7724 24.4752 26.7724 22.6977V3.31967C26.7904 1.52472 25.3227 0.0783691 23.5227 0.0783691ZM17.1807 4.81835C17.1807 4.34778 17.5659 3.96442 18.0543 3.96442C18.5439 3.96442 18.9279 4.34778 18.9279 4.81835V16.3371C18.9279 16.8077 18.5439 17.191 18.0543 17.191C17.5659 17.191 17.1807 16.8077 17.1807 16.3371V4.81835ZM12.8307 4.38267C12.8307 3.9121 13.2147 3.52874 13.7043 3.52874C14.1939 3.52874 14.5779 3.9121 14.5779 4.38267V16.8773C14.5779 17.3479 14.1939 17.7312 13.7043 17.7312C13.2147 17.7312 12.8307 17.3479 12.8307 16.8773V4.38267ZM8.46276 4.81835C8.46276 4.34778 8.84795 3.96442 9.33635 3.96442C9.82595 3.96442 10.2099 4.34778 10.2099 4.81835V16.3371C10.2099 16.8077 9.82595 17.191 9.33635 17.191C8.84795 17.191 8.46276 16.8077 8.46276 16.3371V4.81835ZM4.09595 6.54354C4.09595 6.07297 4.47994 5.68961 4.96954 5.68961C5.45794 5.68961 5.84193 6.07297 5.84193 6.54354V14.2982C5.84193 14.7688 5.45794 15.1521 4.96954 15.1521C4.47994 15.1521 4.09595 14.7688 4.09595 14.2982V6.54354ZM22.9983 19.6829C22.8591 19.8049 19.6263 22.4711 13.7043 22.4711C7.78233 22.4711 4.54954 19.7875 4.41034 19.6829C4.04314 19.3692 4.00834 18.8291 4.32274 18.4631C4.63714 18.0972 5.17836 18.0623 5.54556 18.376C5.59836 18.4109 8.48073 20.7634 13.7043 20.7634C18.9975 20.7634 21.8451 18.4109 21.8631 18.3934C22.2303 18.0797 22.7716 18.132 23.086 18.4805C23.4004 18.8291 23.3655 19.3867 22.9983 19.6829ZM23.2959 14.2982C23.2959 14.7688 22.912 15.1521 22.4224 15.1521C21.9328 15.1521 21.5488 14.7688 21.5488 14.2982V6.54354C21.5488 6.07297 21.9328 5.68961 22.4224 5.68961C22.912 5.68961 23.2959 6.07297 23.2959 6.54354V14.2982Z" fill="#1B1B1B" fill-opacity="0.55"/>
<path d="M36.9396 16.737C36.9396 17.1726 36.6084 17.5212 36.1368 17.5212C35.682 17.5212 35.3496 17.1726 35.3496 16.737V9.24364C35.3496 8.80807 35.682 8.45947 36.1536 8.45947C36.6084 8.45947 36.9396 8.80807 36.9396 9.24364V16.737Z" fill="#1B1B1B" fill-opacity="0.55"/>
<path d="M47.2122 9.24496V16.0935C47.2122 17.0171 46.7226 17.5398 45.9198 17.5398H45.849C45.0978 17.5398 44.7486 17.1042 44.4174 16.4769L42.8094 13.375L41.3946 10.1685L41.4294 13.2704L41.4474 16.7382C41.4474 17.1738 41.115 17.5224 40.6434 17.5224C40.1886 17.5224 39.8574 17.1738 39.8574 16.7382V9.88971C39.8574 9.03578 40.3458 8.44336 41.2194 8.44336H41.2902C42.093 8.44336 42.4254 8.87893 42.7398 9.50635L44.3118 12.5908L45.657 15.588L45.6222 12.7128L45.6054 9.24496C45.6054 8.80928 45.9366 8.46068 46.4082 8.46068C46.8798 8.46068 47.2122 8.82672 47.2122 9.24496Z" fill="#1B1B1B" fill-opacity="0.55"/>
<path d="M53.5707 16.737C53.5707 17.1727 53.2395 17.5212 52.7679 17.5212C52.3131 17.5212 51.9819 17.1727 51.9819 16.737V9.95829H50.0067C49.6047 9.95829 49.2734 9.66202 49.2734 9.20889C49.2734 8.77332 49.6047 8.47705 50.0067 8.47705H55.5459C55.9467 8.47705 56.2791 8.77332 56.2791 9.22633C56.2791 9.66202 55.9467 9.95829 55.5459 9.95829H53.5707V16.737Z" fill="#1B1B1B" fill-opacity="0.55"/>
<path d="M58.3617 16.4759V9.4357C58.3617 8.77351 58.7277 8.40747 59.4093 8.42491H63.9861C64.3881 8.42491 64.7205 8.73863 64.7205 9.17431C64.7205 9.60988 64.3881 9.90615 63.9861 9.90615H59.9337V12.0845H63.4977C63.8997 12.0845 64.2141 12.3807 64.2141 12.799C64.2141 13.2171 63.8997 13.5134 63.4977 13.5134H59.9337V16.0227H63.9693C64.3713 16.0227 64.7025 16.3364 64.7025 16.7721C64.7025 17.2078 64.3713 17.504 63.9693 17.504H59.3565C58.7109 17.5214 58.3257 17.1555 58.3617 16.4759Z" fill="#1B1B1B" fill-opacity="0.55"/>
<path d="M73.7492 16.4934C73.9592 16.8593 73.82 17.3299 73.3832 17.5564C72.9464 17.7655 72.4736 17.6086 72.2648 17.2427L70.4996 13.984H68.8232L68.84 16.7548C68.84 17.1905 68.5088 17.539 68.036 17.539C67.5824 17.539 67.25 17.1905 67.25 16.7548V9.45316C67.25 8.79097 67.6172 8.42505 68.2988 8.44249H71.2856C73.3652 8.44249 74.2208 9.78431 74.2208 11.1609C74.2208 12.468 73.4528 13.4264 72.1424 13.6878L73.7492 16.4934ZM68.8052 12.555H71.3216C72.1772 12.555 72.614 12.0148 72.614 11.2307C72.614 10.4639 72.1424 9.92373 71.3036 9.92373H68.8052V12.555Z" fill="#1B1B1B" fill-opacity="0.55"/>
<path d="M77.505 16.8423C76.5438 15.9884 76.125 14.664 76.125 12.9911C76.125 11.3007 76.5438 9.99377 77.487 9.15728C78.0642 8.65194 78.8682 8.30347 80.0034 8.30347C81.0162 8.30347 81.7854 8.52997 82.3614 9.01786C82.869 9.41867 83.235 9.99377 83.463 10.7954C83.5842 11.2136 83.2878 11.6319 82.7982 11.719C82.3446 11.7887 81.9774 11.5099 81.8382 11.0916C81.681 10.6908 81.4878 10.3946 81.2442 10.1855C80.9118 9.88924 80.5098 9.76726 79.9686 9.76726C79.3914 9.76726 78.903 9.92412 78.5358 10.3075C77.9946 10.8477 77.7666 11.7887 77.7666 12.9911C77.7666 14.1761 77.9766 15.1346 78.5358 15.6748C78.903 16.0407 79.3914 16.215 79.9506 16.215C80.5278 16.215 80.9814 16.0581 81.3486 15.727C81.5406 15.5528 81.6978 15.3262 81.8202 15.0473C81.9774 14.6465 82.3266 14.3677 82.7814 14.4724C83.2182 14.5769 83.4978 15.0126 83.3574 15.4308C83.1306 16.1278 82.7286 16.6854 82.2042 17.0688C81.6282 17.487 80.8938 17.6962 79.9854 17.6962C78.7974 17.6788 78.0642 17.3302 77.505 16.8423Z" fill="#1B1B1B" fill-opacity="0.55"/>
<path d="M85.2461 12.9911C85.2461 10.1506 86.4161 8.30347 89.1773 8.30347C91.9025 8.30347 93.0905 10.0983 93.0905 12.9911C93.0905 15.9187 91.9025 17.6788 89.1773 17.6788C86.3993 17.6788 85.2461 15.9187 85.2461 12.9911ZM91.4657 12.9911C91.4657 10.8303 90.6797 9.7847 89.1593 9.7847C87.6749 9.7847 86.8877 10.8303 86.8877 12.9911C86.8877 15.152 87.6569 16.1975 89.1593 16.1975C90.6617 16.1975 91.4657 15.152 91.4657 12.9911Z" fill="#1B1B1B" fill-opacity="0.55"/>
<path d="M105.425 16.7373C105.425 17.173 105.093 17.5215 104.621 17.5215C104.167 17.5215 103.835 17.173 103.835 16.7373V13.3391L103.87 10.0282L102.769 13.3915L101.651 16.7024C101.459 17.2775 101.075 17.5215 100.567 17.5215C100.044 17.5215 99.6589 17.2775 99.4669 16.7024L98.3137 13.4089L97.2661 10.0978L97.3009 13.3566V16.7547C97.3009 17.1903 96.9685 17.5389 96.4969 17.5389C96.0433 17.5389 95.7109 17.1903 95.7109 16.7547V9.97587C95.7109 9.03485 96.2173 8.49463 97.1089 8.49463C97.9477 8.49463 98.4193 8.93031 98.6809 9.74936L99.8521 13.2172L100.567 15.5697L101.284 13.2172L102.455 9.74936C102.717 8.93031 103.171 8.49463 104.027 8.49463C104.919 8.49463 105.407 9.03485 105.407 9.97587L105.425 16.7373Z" fill="#1B1B1B" fill-opacity="0.55"/>
</g>
<defs>
<clipPath id="clip0_18993_26525">
<rect width="104.824" height="25.8432" fill="white" transform="translate(0.601562 0.0783691)"/>
</clipPath>
</defs>
</svg>
