<svg width="53" height="28" viewBox="0 0 53 28" fill="none" xmlns="http://www.w3.org/2000/svg">
<g clip-path="url(#clip0_19047_24519)">
<g clip-path="url(#clip1_19047_24519)">
<path d="M10.2256 2.6709C11.8305 0.984874 13.9592 0 16.4602 0C21.3323 0 24.5625 3.55724 25.1805 8.88624C25.3809 10.6168 25.379 13.0567 25.377 15.8826C25.3768 16.1724 25.3766 16.4664 25.3766 16.764V27.3506H18.6765V19.5204C18.6765 19.5204 18.6629 12.8188 18.6219 11.5664C18.4421 6.11143 15.2128 2.68382 10.2249 2.68013C8.72005 4.27005 7.91372 6.21401 7.7948 9.18636C7.77846 9.60094 7.78257 11.0704 7.78799 13.0071C7.7908 14.0106 7.79396 15.1395 7.7948 16.3121C7.79977 21.4159 7.7948 27.3517 7.7948 27.3517H1.09479V15.3011C1.09479 14.8882 1.08726 14.4718 1.07971 14.0537C1.06451 13.2128 1.0492 12.3653 1.09479 11.5262C1.17049 10.1273 1.41248 8.75219 2.06523 7.4747C3.55936 4.54807 6.62084 2.66373 9.88463 2.66373C9.99864 2.66373 10.1127 2.66612 10.2256 2.6709Z" fill="#1B1B1B" fill-opacity="0.55"/>
<path d="M51.7851 16.474C51.8307 15.6348 51.8154 14.7873 51.8003 13.9464C51.7927 13.5284 51.7851 13.112 51.7851 12.699V0.648424H45.0852C45.0852 0.648424 45.0802 6.58425 45.0852 11.688C45.086 12.8606 45.0891 13.9894 45.0919 14.9929C45.0973 16.9297 45.1014 18.3991 45.0852 18.8137C44.9663 21.7862 44.1599 23.7301 42.655 25.32C37.6673 25.3163 34.438 21.8886 34.2581 16.4338C34.2171 15.1813 34.1998 12.0732 34.1998 8.4735V0.643311L27.5048 0.649567V11.2362C27.5048 11.5338 27.5045 11.8276 27.5043 12.1175C27.5022 14.9435 27.5005 17.3833 27.7008 19.1139C28.3175 24.4429 31.5478 28.0002 36.4199 28.0002C38.9209 28.0002 41.0497 27.0153 42.6545 25.3292C42.7673 25.334 42.8813 25.3364 42.9953 25.3364C46.2591 25.3364 49.3206 23.4521 50.8148 20.5255C51.4675 19.2479 51.7095 17.8728 51.7851 16.474Z" fill="#1B1B1B" fill-opacity="0.55"/>
</g>
</g>
<defs>
<clipPath id="clip0_19047_24519">
<rect width="51.3333" height="28" fill="white" transform="translate(0.773438)"/>
</clipPath>
<clipPath id="clip1_19047_24519">
<rect width="51.3333" height="28" fill="white" transform="translate(0.773438)"/>
</clipPath>
</defs>
</svg>
