<svg width="101" height="30" viewBox="0 0 101 30" fill="none" xmlns="http://www.w3.org/2000/svg">
<g clip-path="url(#clip0_18951_2151)">
<path d="M34.7455 16.5795C33.889 16.1062 33.4381 15.723 33.4381 15.182C33.4381 14.4833 34.0467 14.055 35.016 14.055C36.143 14.055 37.1348 14.5283 37.1348 14.5283L37.9237 12.1165C37.9237 12.1165 37.2024 11.553 35.0611 11.553C32.0857 11.553 30.012 13.2661 30.012 15.6554C30.012 17.0078 30.9812 18.0447 32.266 18.7885C33.3029 19.3746 33.6636 19.8028 33.6636 20.4114C33.6636 21.0651 33.1451 21.5835 32.1759 21.5835C30.7333 21.5835 29.3809 20.8397 29.3809 20.8397L28.5469 23.2516C28.5469 23.2516 29.8091 24.0856 31.9054 24.0856C34.9709 24.0856 37.1573 22.5753 37.1573 19.8705C37.2024 18.3828 36.0754 17.3459 34.7455 16.5795Z" fill="#1B1B1B" fill-opacity="0.55"/>
<path d="M46.9627 11.5077C45.4525 11.5077 44.2804 12.229 43.3562 13.3109L43.3111 13.2884L44.6185 6.43604H41.1923L37.8789 23.8599H41.2825L42.4095 17.9092C42.8603 15.6551 44.0099 14.2802 45.0918 14.2802C45.8582 14.2802 46.1512 14.7986 46.1512 15.5424C46.1512 16.0158 46.1062 16.5793 45.9935 17.0527L44.7087 23.8825H48.1123L49.4421 16.8498C49.5999 16.106 49.6901 15.2269 49.6901 14.6183C49.7352 12.6572 48.7434 11.5077 46.9627 11.5077Z" fill="#1B1B1B" fill-opacity="0.55"/>
<path d="M57.443 11.5078C53.3407 11.5078 50.6133 15.2045 50.6133 19.3294C50.6133 21.9667 52.2362 24.108 55.3017 24.108C59.3364 24.108 62.0413 20.5015 62.0413 16.2864C62.0638 13.8295 60.6438 11.5078 57.443 11.5078ZM55.775 21.4708C54.6029 21.4708 54.1296 20.479 54.1296 19.2392C54.1296 17.2782 55.1439 14.1 56.9922 14.1C58.2094 14.1 58.5926 15.1369 58.5926 16.1512C58.5926 18.27 57.5783 21.4708 55.775 21.4708Z" fill="#1B1B1B" fill-opacity="0.55"/>
<path d="M70.7865 11.5078C68.4874 11.5078 67.1801 13.5365 67.1801 13.5365H67.135L67.3379 11.7107H64.3175C64.1597 12.9504 63.8892 14.8213 63.6187 16.2413L61.252 28.6838H64.6556L65.6023 23.6347H65.6699C65.6699 23.6347 66.3686 24.0855 67.676 24.0855C71.6882 24.0855 74.3029 19.9831 74.3029 15.8356C74.3029 13.559 73.2885 11.5078 70.7865 11.5078ZM67.5407 21.5384C66.6617 21.5384 66.1432 21.0425 66.1432 21.0425L66.7067 17.8643C67.1125 15.7454 68.2169 14.3254 69.389 14.3254C70.4259 14.3254 70.7415 15.2946 70.7415 16.1963C70.7415 18.3827 69.4341 21.5384 67.5407 21.5384Z" fill="#1B1B1B" fill-opacity="0.55"/>
<path d="M79.1739 6.6167C78.092 6.6167 77.2129 7.47324 77.2129 8.60027C77.2129 9.6146 77.844 10.3134 78.8133 10.3134H78.8583C79.9177 10.3134 80.8419 9.59206 80.8644 8.32979C80.887 7.31546 80.2108 6.6167 79.1739 6.6167Z" fill="#1B1B1B" fill-opacity="0.55"/>
<path d="M74.3945 23.8596H77.8207L80.1423 11.7778H76.6937L74.3945 23.8596Z" fill="#1B1B1B" fill-opacity="0.55"/>
<path d="M88.7978 11.7553H86.4311L86.5438 11.1918C86.7467 10.0197 87.4229 8.98282 88.5724 8.98282C89.181 8.98282 89.6544 9.16315 89.6544 9.16315L90.3306 6.50336C90.3306 6.50336 89.7445 6.21033 88.4823 6.21033C87.2651 6.21033 86.0704 6.54844 85.1463 7.33736C83.9742 8.32914 83.4332 9.7492 83.1627 11.1918L83.0726 11.7553H81.4947L80.9988 14.3249H82.5767L80.7734 23.8596H84.177L85.9803 14.3249H88.3245L88.7978 11.7553Z" fill="#1B1B1B" fill-opacity="0.55"/>
<path d="M97.0017 11.7778C97.0017 11.7778 94.8603 17.1425 93.9136 20.0728H93.8685C93.8009 19.1261 93.0345 11.7778 93.0345 11.7778H89.4506L91.5018 22.8678C91.5469 23.1158 91.5243 23.2735 91.4342 23.4313C91.0284 24.1977 90.3748 24.9415 89.5859 25.4825C88.9547 25.9559 88.2334 26.2489 87.6699 26.4518L88.6166 29.337C89.3154 29.1792 90.7354 28.6157 91.9526 27.4886C93.5079 26.0235 94.9505 23.792 96.4156 20.7265L100.586 11.7778H97.0017Z" fill="#1B1B1B" fill-opacity="0.55"/>
<path d="M16.8024 3.93313C16.8024 3.93313 16.4868 4.02329 15.9684 4.18108C15.8782 3.88805 15.743 3.54994 15.5627 3.18929C14.9766 2.06226 14.0975 1.45366 13.0607 1.45366C12.993 1.45366 12.9254 1.45366 12.8353 1.4762C12.8127 1.43112 12.7676 1.40858 12.7451 1.3635C12.2943 0.867608 11.7082 0.642202 11.0095 0.664743C9.65707 0.709824 8.30464 1.67907 7.2227 3.4147C6.45633 4.63189 5.87028 6.16465 5.71249 7.3593C4.1572 7.83265 3.07526 8.17076 3.05272 8.19331C2.26381 8.44125 2.24127 8.46379 2.15111 9.20763C2.08348 9.77115 0.00976562 25.6397 0.00976562 25.6397L17.0503 28.5926V3.91059C16.9151 3.91059 16.8475 3.93313 16.8024 3.93313ZM12.8578 5.15032C11.9562 5.42081 10.9644 5.73638 9.99517 6.02941C10.2657 4.97 10.8066 3.91059 11.4378 3.21183C11.6857 2.96388 12.0238 2.67086 12.407 2.49053C12.7902 3.30199 12.8803 4.40648 12.8578 5.15032ZM11.0095 1.58891C11.3251 1.58891 11.5955 1.65653 11.8209 1.79177C11.4603 1.9721 11.0997 2.26513 10.7615 2.60323C9.90501 3.5274 9.25134 4.97 8.98085 6.34497C8.1694 6.59292 7.35794 6.84087 6.61411 7.06627C7.11 4.90238 8.93577 1.63399 11.0095 1.58891ZM8.3948 13.9862C8.48496 15.4288 12.2943 15.7444 12.5197 19.148C12.6775 21.8304 11.0997 23.6562 8.82307 23.7914C6.07314 23.9717 4.56293 22.3488 4.56293 22.3488L5.14898 19.8693C5.14898 19.8693 6.65919 21.0189 7.87637 20.9287C8.66529 20.8837 8.95831 20.23 8.93577 19.7792C8.82307 17.8858 5.71249 17.9985 5.50963 14.8879C5.32931 12.2732 7.04238 9.6359 10.8292 9.38796C12.2943 9.29779 13.0381 9.65844 13.0381 9.65844L12.1816 12.9043C12.1816 12.9043 11.2124 12.4535 10.0628 12.5436C8.3948 12.6563 8.37226 13.7158 8.3948 13.9862ZM13.7594 4.87984C13.7594 4.20362 13.6693 3.23437 13.3537 2.42291C14.3906 2.62578 14.8864 3.77535 15.1118 4.47411C14.7061 4.58681 14.2553 4.72205 13.7594 4.87984Z" fill="#1B1B1B" fill-opacity="0.55"/>
<path d="M17.5684 28.548L24.6461 26.7899C24.6461 26.7899 21.6031 6.2103 21.5806 6.07505C21.558 5.93981 21.4453 5.84965 21.3326 5.84965C21.2199 5.84965 19.2364 5.80456 19.2364 5.80456C19.2364 5.80456 18.0192 4.63245 17.5684 4.18164V28.548Z" fill="#1B1B1B" fill-opacity="0.55"/>
</g>
<defs>
<clipPath id="clip0_18951_2151">
<rect width="100.576" height="28.6736" fill="white" transform="translate(0.00976562 0.663208)"/>
</clipPath>
</defs>
</svg>
