<svg width="99" height="18" viewBox="0 0 99 18" fill="none" xmlns="http://www.w3.org/2000/svg">
<g clip-path="url(#clip0_18993_26509)">
<path d="M13.0522 3.23701C13.0522 3.23701 11.1312 1.64724 8.68028 1.64724C8.68028 1.64724 5.7657 1.64724 3.71225 3.76694C3.71225 3.76694 1.65879 5.88663 1.65879 8.80121C1.65879 8.80121 1.65879 11.7158 3.71225 13.8355C3.71225 13.8355 5.7657 15.8889 8.68028 15.8889C8.68028 15.8889 11.1312 15.8889 13.0522 14.3654L13.9795 15.2928C13.9795 15.2928 11.6611 17.2138 8.68028 17.2138C8.68028 17.2138 5.23578 17.2138 2.78488 14.6966C2.78488 14.6966 0.333984 12.2457 0.333984 8.80121C0.333984 8.80121 0.333984 5.35671 2.78488 2.90581C2.78488 2.90581 5.23578 0.388672 8.68028 0.388672C8.68028 0.388672 11.6611 0.388672 13.9795 2.2434L13.0522 3.23701Z" fill="#1B1B1B" fill-opacity="0.55"/>
<path d="M19.7423 6.34985C17.4901 6.34985 15.9003 7.93962 15.9003 7.93962C14.3105 9.5294 14.3105 11.7816 14.3105 11.7816C14.3105 14.0337 15.9003 15.6235 15.9003 15.6235C17.4901 17.2133 19.7423 17.2133 19.7423 17.2133C22.3256 17.2133 24.0479 15.0274 24.0479 15.0274V16.9483H25.2402V6.68106H24.0479V8.46955C22.3919 6.34985 19.7423 6.34985 19.7423 6.34985ZM19.7423 7.54218C21.4645 7.54218 22.7231 8.73451 22.7231 8.73451C23.9817 9.99308 23.9817 11.7816 23.9817 11.7816C23.9817 13.5038 22.7231 14.7624 22.7231 14.7624C21.4645 16.021 19.7423 16.021 19.7423 16.021C17.9538 16.021 16.7614 14.7624 16.7614 14.7624C15.5029 13.5038 15.5029 11.7816 15.5029 11.7816C15.5029 9.99308 16.7614 8.73451 16.7614 8.73451C17.9538 7.54218 19.7423 7.54218 19.7423 7.54218Z" fill="#1B1B1B" fill-opacity="0.55"/>
<path d="M42.3302 1.97885C42.3302 1.97885 41.6016 1.97885 41.6016 1.25021C41.6016 1.25021 41.6016 0.455322 42.3302 0.455322C42.3302 0.455322 43.1251 0.455322 43.1251 1.25021C43.1251 1.25021 43.1251 1.97885 42.3302 1.97885Z" fill="#1B1B1B" fill-opacity="0.55"/>
<path d="M28.8172 0.455322V16.9492H27.5586V0.455322H28.8172Z" fill="#1B1B1B" fill-opacity="0.55"/>
<path d="M35.1103 14.6967L38.7535 6.68164H40.0783L35.1103 17.6113L30.0098 6.68164H31.4008L35.1103 14.6967Z" fill="#1B1B1B" fill-opacity="0.55"/>
<path d="M46.3701 7.6754C46.3701 7.6754 47.3637 6.35059 49.2846 6.35059C49.2846 6.35059 51.0069 6.35059 52.1992 7.54291C52.1992 7.54291 53.3916 8.73524 53.3916 10.4575V16.9491H52.1992V10.4575C52.1992 10.4575 52.1992 9.19893 51.3381 8.3378C51.3381 8.3378 50.5432 7.47667 49.2846 7.47667C49.2846 7.47667 48.0923 7.47667 47.2312 8.27156C47.2312 8.27156 46.3701 9.13269 46.3701 10.4575V16.9491H45.1777V6.68179H46.3701V7.6754Z" fill="#1B1B1B" fill-opacity="0.55"/>
<path d="M42.9267 6.68164V16.9489H41.7344V6.68164H42.9267Z" fill="#1B1B1B" fill-opacity="0.55"/>
<path d="M69.2235 0.521563L62.6657 7.60929L69.1573 16.9492H67.6337L61.8046 8.53666L60.6123 9.79523V16.9492H59.4199V0.455322H60.6123V7.9405L67.5013 0.521563H69.2235Z" fill="#1B1B1B" fill-opacity="0.55"/>
<path d="M72.2722 0.455322V16.9492H71.0137V0.455322H72.2722Z" fill="#1B1B1B" fill-opacity="0.55"/>
<path d="M79.6233 6.34985C77.3711 6.34985 75.7813 7.93962 75.7813 7.93962C74.2578 9.46316 74.2578 11.7816 74.2578 11.7816C74.2578 14.0337 75.7813 15.5573 75.7813 15.5573C77.3711 17.147 79.6233 17.147 79.6233 17.147C83.0678 17.147 84.5251 14.1 84.5251 14.1L83.4652 13.6363C82.2729 15.9547 79.6233 15.9547 79.6233 15.9547C77.901 15.9547 76.7087 14.7624 76.7087 14.7624C75.4501 13.5701 75.4501 11.8478 75.4501 11.8478H85.055V11.7816C85.055 9.46316 83.4652 7.93962 83.4652 7.93962C81.8755 6.34985 79.6233 6.34985 79.6233 6.34985ZM79.6233 7.47594C81.0806 7.47594 82.2067 8.40331 82.2067 8.40331C83.3328 9.26443 83.7302 10.5892 83.7302 10.5892H75.5826C75.9801 9.26443 77.0399 8.40331 77.0399 8.40331C78.2322 7.47594 79.6233 7.47594 79.6233 7.47594Z" fill="#1B1B1B" fill-opacity="0.55"/>
<path d="M86.9102 1.25021C86.9102 1.25021 86.9102 0.455322 87.6388 0.455322C87.6388 0.455322 88.3674 0.455322 88.3674 1.25021C88.3674 1.25021 88.3674 1.97885 87.6388 1.97885C87.6388 1.97885 86.9102 1.97885 86.9102 1.25021Z" fill="#1B1B1B" fill-opacity="0.55"/>
<path d="M91.8113 6.68179V7.6754C91.8113 7.6754 92.7387 6.35059 94.7259 6.35059C94.7259 6.35059 96.4481 6.35059 97.6405 7.54291C97.6405 7.54291 98.8328 8.73524 98.8328 10.4575V16.9491H97.5742V10.4575C97.5742 10.4575 97.5742 9.19893 96.7793 8.3378C96.7793 8.3378 95.9182 7.47667 94.7259 7.47667C94.7259 7.47667 93.4673 7.47667 92.6724 8.27156C92.6724 8.27156 91.8113 9.13269 91.8113 10.4575V16.9491H90.5527V6.68179H91.8113Z" fill="#1B1B1B" fill-opacity="0.55"/>
<path d="M88.2353 6.68164V16.9489H87.043V6.68164H88.2353Z" fill="#1B1B1B" fill-opacity="0.55"/>
</g>
<defs>
<clipPath id="clip0_18993_26509">
<rect width="98.4996" height="17.2225" fill="white" transform="translate(0.333984 0.388672)"/>
</clipPath>
</defs>
</svg>
