<svg width="88" height="30" viewBox="0 0 88 30" fill="none" xmlns="http://www.w3.org/2000/svg">
<g clip-path="url(#clip0_18951_2171)">
<path d="M79.2568 12.226C80.3046 12.226 81.1541 11.3765 81.1541 10.3286C81.1541 9.28076 80.3046 8.43127 79.2568 8.43127C78.2089 8.43127 77.3594 9.28076 77.3594 10.3286C77.3594 11.3765 78.2089 12.226 79.2568 12.226Z" fill="#1B1B1B" fill-opacity="0.55"/>
<path d="M52.157 18.419C53.0877 18.419 53.6247 17.7209 53.5889 17.0407C53.571 16.6827 53.5352 16.45 53.4994 16.271C52.9266 13.8009 50.9219 11.9751 48.5412 11.9751C45.713 11.9751 43.4219 14.5348 43.4219 17.6851C43.4219 20.8355 45.713 23.3951 48.5412 23.3951C50.3133 23.3951 51.5842 22.7508 52.497 21.7305C52.9445 21.2293 52.855 20.4596 52.3181 20.0837C51.8706 19.7794 51.3157 19.8868 50.904 20.2269C50.5102 20.567 49.7584 21.2472 48.5412 21.2472C47.1092 21.2472 45.892 20.0121 45.6235 18.3832H52.157V18.419ZM48.5233 14.141C49.8121 14.141 50.9219 15.1434 51.3336 16.5216H45.713C46.1247 15.1255 47.2345 14.141 48.5233 14.141Z" fill="#1B1B1B" fill-opacity="0.55"/>
<path d="M43.5284 13.1031C43.5284 12.5661 43.1346 12.1365 42.6335 12.047C41.0762 11.8143 39.6084 12.3871 38.7671 13.4432V13.3C38.7671 12.6377 38.2301 12.226 37.6931 12.226C37.1024 12.226 36.6191 12.7093 36.6191 13.3V22.0709C36.6191 22.6437 37.0487 23.1449 37.6215 23.1807C38.248 23.2165 38.7671 22.7332 38.7671 22.1067V17.5781C38.7671 15.5733 40.2707 13.9265 42.3471 14.1592C42.4187 14.1592 42.4903 14.1592 42.5619 14.1592C43.0989 14.1234 43.5284 13.658 43.5284 13.1031Z" fill="#1B1B1B" fill-opacity="0.55"/>
<path d="M80.3316 14.249C80.3316 13.6583 79.8483 13.175 79.2576 13.175C78.6669 13.175 78.1836 13.6583 78.1836 14.249C78.1836 14.2848 78.1836 21.7669 78.1836 22.107C78.1836 22.6977 78.6669 23.181 79.2576 23.181C79.8483 23.181 80.3316 22.6977 80.3316 22.107C80.3316 21.7848 80.3316 14.3027 80.3316 14.249Z" fill="#1B1B1B" fill-opacity="0.55"/>
<path d="M64.3634 8.30604C64.3634 7.71535 63.8801 7.23206 63.2894 7.23206C62.6987 7.23206 62.2154 7.71535 62.2154 8.30604V13.0853C61.4815 12.3514 60.5686 11.9934 59.4768 11.9934C56.6486 11.9934 54.3574 14.5531 54.3574 17.7034C54.3574 20.8538 56.6486 23.4134 59.4768 23.4134C60.5686 23.4134 61.4994 23.0375 62.2333 22.3037C62.3228 22.8048 62.7703 23.1807 63.2894 23.1807C63.8801 23.1807 64.3634 22.6974 64.3634 22.1068V8.30604ZM59.4947 21.2834C57.8479 21.2834 56.5233 19.6903 56.5233 17.7034C56.5233 15.7344 57.8479 14.1235 59.4947 14.1235C61.1414 14.1235 62.466 15.7165 62.466 17.7034C62.466 19.6903 61.1235 21.2834 59.4947 21.2834Z" fill="#1B1B1B" fill-opacity="0.55"/>
<path d="M75.5685 8.30604C75.5685 7.71535 75.0852 7.23206 74.4945 7.23206C73.9038 7.23206 73.4205 7.71535 73.4205 8.30604V13.0853C72.6866 12.3514 71.7737 11.9934 70.6818 11.9934C67.8537 11.9934 65.5625 14.5531 65.5625 17.7034C65.5625 20.8538 67.8537 23.4134 70.6818 23.4134C71.7737 23.4134 72.7045 23.0375 73.4384 22.3037C73.5279 22.8048 73.9754 23.1807 74.4945 23.1807C75.0852 23.1807 75.5685 22.6974 75.5685 22.1068V8.30604ZM70.6818 21.2834C69.0351 21.2834 67.7105 19.6903 67.7105 17.7034C67.7105 15.7344 69.0351 14.1235 70.6818 14.1235C72.3286 14.1235 73.6532 15.7165 73.6532 17.7034C73.6532 19.6903 72.3286 21.2834 70.6818 21.2834Z" fill="#1B1B1B" fill-opacity="0.55"/>
<path d="M85.7716 22.1245V14.1412H86.7203C87.2215 14.1412 87.669 13.7653 87.7048 13.2462C87.7406 12.6913 87.2931 12.226 86.7561 12.226H85.7716V10.7224C85.7716 10.1496 85.3421 9.64838 84.7693 9.61259C84.1428 9.57679 83.6237 10.0601 83.6237 10.6866V12.2439H82.7287C82.2275 12.2439 81.78 12.6197 81.7442 13.1388C81.7084 13.6937 82.1559 14.1591 82.6929 14.1591H83.6058V22.1424C83.6058 22.7331 84.0891 23.2164 84.6798 23.2164C85.3063 23.1806 85.7716 22.7152 85.7716 22.1245Z" fill="#1B1B1B" fill-opacity="0.55"/>
<path fill-rule="evenodd" clip-rule="evenodd" d="M30.6055 15C30.6055 23.2843 23.8897 30 15.6055 30C7.3212 30 0.605469 23.2843 0.605469 15C0.605469 6.71573 7.3212 0 15.6055 0C23.8897 0 30.6055 6.71573 30.6055 15ZM23.4272 12.8165C24.6265 12.8165 25.6109 13.7831 25.6109 15.0003C25.6109 15.8953 25.074 16.665 24.3222 17.0051C24.358 17.2199 24.3759 17.4526 24.3759 17.6674C24.3759 21.0504 20.4558 23.7712 15.6229 23.7712C10.7899 23.7712 6.8699 21.0325 6.8699 17.6674C6.8699 17.4347 6.8878 17.2199 6.9236 17.0051C6.17181 16.665 5.63482 15.9132 5.63482 15.0182C5.63482 13.8189 6.60141 12.8344 7.81859 12.8344C8.40928 12.8344 8.94627 13.0671 9.34007 13.443C10.8615 12.3511 12.9558 11.653 15.2828 11.5814L16.3926 6.35472C16.4105 6.24732 16.4642 6.15782 16.5537 6.10412C16.6253 6.05042 16.7327 6.03252 16.8401 6.05042L20.4737 6.82011C20.7243 6.30102 21.2613 5.94302 21.8699 5.94302C22.7291 5.94302 23.4272 6.64111 23.4272 7.5003C23.4272 8.35949 22.7291 9.05758 21.8699 9.05758C21.0286 9.05758 20.3484 8.39529 20.3126 7.5719L17.0549 6.87381L16.0525 11.5635C18.3436 11.653 20.4021 12.3511 21.9057 13.4251C22.2995 13.0492 22.8365 12.8165 23.4272 12.8165ZM12.1682 15.0003C11.309 15.0003 10.611 15.6984 10.611 16.5576C10.611 17.4168 11.309 18.1328 12.1682 18.1149C13.0274 18.1149 13.7255 17.4168 13.7255 16.5576C13.7255 15.6984 13.0274 15.0003 12.1682 15.0003ZM15.6229 21.838C16.2136 21.838 18.2542 21.7664 19.3281 20.6924C19.4713 20.5313 19.4713 20.2807 19.3281 20.1196C19.167 19.9585 18.9164 19.9585 18.7553 20.1196C18.0931 20.7998 16.6432 21.0325 15.6229 21.0325C14.6026 21.0325 13.1706 20.7998 12.4904 20.1196C12.3293 19.9585 12.0787 19.9585 11.9176 20.1196C11.7565 20.2807 11.7565 20.5313 11.9176 20.6924C12.9737 21.7485 15.0143 21.838 15.6229 21.838ZM17.4845 16.5755C17.4845 17.4347 18.1826 18.1328 19.0417 18.1328C19.9009 18.1328 20.599 17.4168 20.599 16.5755C20.599 15.7163 19.9009 15.0182 19.0417 15.0182C18.1826 15.0182 17.4845 15.7163 17.4845 16.5755Z" fill="#1B1B1B" fill-opacity="0.55"/>
</g>
<defs>
<clipPath id="clip0_18951_2171">
<rect width="87.1019" height="30" fill="white" transform="translate(0.605469)"/>
</clipPath>
</defs>
</svg>
