<svg width="37" height="38" viewBox="0 0 37 38" fill="none" xmlns="http://www.w3.org/2000/svg">
<g clip-path="url(#clip0_19047_24524)">
<path fill-rule="evenodd" clip-rule="evenodd" d="M18.352 12.6179C18.3891 12.4319 19.171 8.24357 19.171 8.24357L19.1519 8.22588C19.3196 8.22588 20.6224 7.7046 21.3856 7.25793C22.1488 6.81127 23.9733 5.54519 24.4755 5.19153C24.508 5.16867 24.5498 5.1385 24.6003 5.10208L24.6007 5.1018L24.6009 5.10168C25.3323 4.57427 27.8732 2.74193 30.1534 2.8461C31.01 2.8461 32.9451 3.03212 34.0995 5.45218C33.6528 1.17084 31.1026 0.556543 28.8134 0.500666C26.8713 0.453867 23.0523 2.8868 22.0591 3.51948C21.9866 3.56572 21.9291 3.60234 21.8885 3.62768C21.687 3.75366 21.4898 3.89667 21.2651 4.05961L21.2651 4.05963C20.8256 4.37833 20.2811 4.77321 19.3942 5.2658C17.8678 6.38264 16.2297 6.53153 15.6713 6.53153C15.1129 6.53153 14.2195 6.19662 14.2195 6.19662L13.6982 8.91445C13.6982 8.91445 14.0331 9.13796 14.5544 9.13796C15.0754 9.13796 15.336 9.17509 15.336 9.17509C15.4106 9.51036 14.8893 11.8558 14.8893 11.8558C15.5783 12.4142 15.6529 13.2704 15.6713 13.6799C15.69 14.0895 15.504 14.4615 15.2246 14.3872C15.1701 14.3437 15.1792 14.2431 15.1926 14.0965C15.202 13.9921 15.2137 13.8642 15.2059 13.7171C15.2059 12.4885 13.7725 11.8183 13.2325 11.8742C12.6928 11.8742 10.887 12.1345 10.6451 14.5358C10.6451 17.7003 12.7671 18.3146 14.0328 18.3146C15.2985 18.3146 16.0992 18.1098 16.583 17.4396C17.2719 17.0117 18.091 14.1446 18.1281 14.0145C18.1652 13.8844 18.2395 13.8285 18.2395 13.8285C18.091 15.7085 18.37 17.4025 20.6783 17.4025C22.9863 17.4025 24.0479 15.6898 24.0479 15.6898C24.0479 15.6898 24.6994 16.9555 25.8349 16.9555C26.9705 16.9555 28.0686 15.5221 28.0686 15.5221C28.0686 15.5221 28.4223 16.2853 29.2781 16.2853C30.3762 16.2853 31.3633 14.7589 31.3633 14.7589C31.3633 14.7589 31.4372 15.4662 32.443 15.4662C33.448 15.4662 34.0995 14.7031 34.0995 14.7031C34.0995 14.7031 33.8017 17.6815 33.8204 17.6815C33.2546 17.752 32.9248 18.091 32.2875 18.7459L32.182 18.8542C31.4747 19.5803 31.3636 20.6784 31.3636 20.6784C31.3636 20.6784 32.5172 19.673 33.3738 19.4127C34.1745 19.0028 35.5144 18.9657 35.5144 18.9657L36.818 8.00167L34.9751 8.29945L34.305 13.1021C34.305 13.1021 34.2119 13.9399 33.5418 13.9399C32.8716 13.9399 32.8716 13.2513 32.8716 13.2513L33.4297 8.5417L31.5496 8.7836C31.5496 8.7836 31.0287 12.9348 30.9541 13.6234C30.8795 14.3123 30.3766 14.6843 29.8931 14.6659C29.409 14.6472 29.5946 13.7539 29.5946 13.7539L30.5258 5.74925L28.4039 5.861C28.4039 5.861 27.3613 13.9954 27.3242 14.3862C27.287 14.777 26.8213 15.3913 26.3559 15.3913C25.8908 15.3913 26.0581 14.6652 26.0581 14.6652L27.1003 5.95366L24.9413 6.08416C24.9413 6.08416 24.3644 11.2217 24.0667 13.344C23.3774 15.5218 22.1863 15.8754 21.6837 15.8754C21.0882 15.9868 20.3805 15.2424 20.3993 14.591C23.173 14.6284 23.5454 11.9106 23.5454 11.5382C23.5454 11.1658 23.4895 9.84421 21.7025 9.65818C19.9457 9.75465 18.9424 11.7775 18.6083 12.4513L18.6083 12.4513C18.5565 12.5556 18.5208 12.6276 18.5009 12.655C18.352 12.8598 18.3148 12.8043 18.352 12.6179ZM26.0003 29.7499L25.9092 29.7666C23.9023 29.9506 21.1372 31.7947 20.1258 32.4692C20.0134 32.5441 19.9227 32.6046 19.8571 32.6468C19.6462 32.7585 19.362 32.9427 19.021 33.1639C17.759 33.9823 15.7176 35.3061 13.7212 35.3289C11.7284 35.3052 9.92119 33.6393 9.25888 33.0288C9.11231 32.8936 9.02181 32.8102 8.99778 32.8077C10.95 36.3644 12.8172 37.4413 15.5139 37.5C17.9488 37.4268 20.7607 35.7222 21.8683 34.8773C22.9756 34.0328 25.3228 32.4293 26.9991 31.919C28.3289 31.5155 29.9762 31.4783 29.9762 31.4783L31.2921 20.5755L29.4733 20.8737L28.8031 25.6763C28.8031 25.6763 28.6726 26.477 28.0024 26.477C27.3323 26.477 27.3199 25.8008 27.3199 25.8008L27.891 21.1028L26.011 21.3451C26.011 21.3451 25.4777 25.5086 25.4038 26.1979C25.3292 26.8865 24.7884 27.2218 24.3043 27.203C23.8201 27.1843 23.9934 26.3277 23.9934 26.3277L24.9875 18.3107L22.8409 18.4235C22.8409 18.4235 21.8227 26.5332 21.7856 26.924C21.7484 27.3151 21.2586 27.9291 20.7932 27.9291C20.3278 27.9291 20.494 27.2154 20.494 27.2154L21.5493 18.5155L19.3903 18.6333C19.3903 18.6333 18.8389 23.722 18.5411 25.8439C17.8522 28.0217 16.6855 28.45 16.183 28.45C15.302 28.3138 14.7935 27.7681 14.8122 27.1167C17.5859 27.1542 18.0443 24.4852 18.0443 24.1128C18.0443 23.7404 17.8243 22.1815 16.2014 22.1815C14.071 22.2351 13.3462 24.2583 13.0859 24.9849C13.0404 25.1119 13.0091 25.1992 12.987 25.2296C12.928 25.3109 12.8724 25.4575 12.8166 25.6049C12.7315 25.8294 12.6457 26.0558 12.546 26.0558C12.5308 25.6356 12.4275 24.8247 12.1715 24.2702C11.9158 23.7149 11.3153 22.6338 10.73 22.649C10.1447 22.6642 10.04 22.6193 10.04 22.6193C10.04 22.6193 9.96573 22.5447 10.0704 22.4991C10.0767 22.4963 10.0891 22.4919 10.1068 22.4856L10.1068 22.4856C10.3848 22.3867 11.9759 21.8208 11.9759 19.8884C11.9759 17.8326 10.2957 17.5776 9.83064 17.5776L9.81704 17.5776C9.31283 17.5773 6.54852 17.5757 5.43401 20.683C5.25365 20.9539 4.84871 24.6899 4.84871 24.6899C4.84871 24.6899 5.5691 25.0655 5.5691 26.0402C5.5691 26.951 5.18852 26.9197 5.08979 26.9116C5.08279 26.911 5.07721 26.9105 5.07328 26.9105C4.97223 26.8459 5.0301 26.6786 5.09303 26.4967C5.1323 26.3832 5.17354 26.264 5.17938 26.1604C5.19459 25.8902 4.80344 25.0061 3.51331 24.9301C2.22283 24.8547 0.797958 26.5042 0.9327 27.4651C0.90264 28.3368 1.3677 30.6915 4.0834 30.6915C6.79911 30.6915 7.17469 28.9508 7.17469 28.9508C7.17469 28.9508 7.56442 30.2865 8.71981 30.2865C9.8752 30.2865 11.525 29.3706 12.3356 27.2108C12.366 27.0156 12.4289 27.1584 12.4289 27.1584C12.3543 28.5055 12.8699 29.976 15.1779 29.976C17.4862 29.976 18.5471 28.2636 18.5471 28.2636C18.5471 28.2636 19.0988 29.4926 20.2341 29.4926C21.3697 29.4926 22.5307 28.096 22.5307 28.096C22.5307 28.096 22.8469 28.8097 23.7034 28.8097C24.8019 28.8097 25.7882 27.3088 25.7882 27.3088C25.7882 27.3088 25.9375 28.0401 26.9425 28.0401C27.9476 28.0401 28.5623 27.2525 28.5623 27.2525C28.5623 27.2525 28.313 29.5608 28.3317 29.5608C27.0983 29.5477 26.605 29.6385 26.0003 29.7499ZM16.8249 24.4198C16.6014 25.8344 14.9261 25.8344 14.9261 25.8344C14.9633 24.2335 15.9683 23.7871 16.3407 23.7871C16.7135 23.7871 16.7878 23.9728 16.8249 24.4198ZM22.2231 11.8177C21.9996 13.2323 20.3243 13.2323 20.3243 13.2323C20.3614 11.6314 21.3665 11.1847 21.7389 11.1847C22.1113 11.1847 22.1859 11.3711 22.2231 11.8177ZM7.48979 27.1656C7.44558 27.6753 7.93999 28.4268 8.41919 28.4413C8.71803 28.5021 9.75353 27.5854 9.81542 26.1454C9.77121 23.9096 8.44961 23.7741 8.29966 23.7741C8.14936 23.7741 7.87952 23.9096 7.87952 23.9096C7.87952 23.9096 7.534 26.656 7.48979 27.1656ZM8.35978 20.008L7.99905 22.7096C7.99905 22.7096 8.92987 22.409 9.57423 21.9595C10.0879 21.6005 10.1265 21.0608 10.1586 20.6132C10.1667 20.499 10.1745 20.3908 10.1896 20.2931C10.2642 19.8125 9.96537 18.9273 9.28918 18.9131C8.61335 18.8993 8.35978 20.008 8.35978 20.008Z" fill="#1B1B1B" fill-opacity="0.55"/>
</g>
<defs>
<clipPath id="clip0_19047_24524">
<rect width="35.8942" height="37" fill="white" transform="translate(0.923828 0.5)"/>
</clipPath>
</defs>
</svg>
