<svg width="106" height="30" viewBox="0 0 106 30" fill="none" xmlns="http://www.w3.org/2000/svg">
<g clip-path="url(#clip0_18951_2190)">
<path d="M25.4155 20.2239L25.4009 20.1775L34.6549 11.7057V7.62378H19.8084V11.7057H28.6763L28.6908 11.7448L19.5273 20.2239V24.3059H34.8039V20.2239H25.4155Z" fill="#1B1B1B" fill-opacity="0.55"/>
<path d="M43.9161 7.23486C42.2036 7.23486 40.8079 7.49314 39.729 8.0097C38.7243 8.45987 37.8777 9.20159 37.2995 10.1386C36.7464 11.0819 36.399 12.1314 36.2803 13.2184L40.785 13.8515C40.948 12.8917 41.274 12.2114 41.7627 11.8105C42.3185 11.3913 43.0033 11.1794 43.6985 11.2117C44.6128 11.2117 45.2759 11.4561 45.6883 11.9449C46.0965 12.4338 46.3042 13.1109 46.3042 14.003V14.4479H41.9729C39.7682 14.4479 38.1843 14.9367 37.2214 15.9144C36.2583 16.8921 35.7776 18.1827 35.7793 19.7861C35.7793 21.4287 36.2599 22.6508 37.2214 23.4524C38.1827 24.2542 39.3918 24.6527 40.8487 24.6477C42.6557 24.6477 44.0457 24.0261 45.0185 22.7828C45.593 22.0187 46.0032 21.1441 46.2235 20.2139H46.3873L47.0082 24.2957H51.0901V13.959C51.0901 11.8227 50.5271 10.168 49.4011 8.99475C48.275 7.82151 46.4468 7.23486 43.9161 7.23486ZM45.3436 19.9768C44.6958 20.5169 43.8478 20.7858 42.7918 20.7858C41.9215 20.7858 41.317 20.6335 40.9782 20.3287C40.8131 20.1846 40.6816 20.0058 40.5933 19.8052C40.505 19.6045 40.4619 19.3869 40.4674 19.1677C40.4576 18.961 40.4903 18.7546 40.5629 18.5608C40.6355 18.3671 40.7469 18.1902 40.8901 18.0409C41.045 17.8956 41.2277 17.7833 41.4274 17.7106C41.627 17.6379 41.8391 17.6064 42.0512 17.6181H46.3115V17.8991C46.3203 18.2965 46.2374 18.6905 46.0696 19.0507C45.9017 19.4109 45.6533 19.7278 45.3436 19.9768Z" fill="#1B1B1B" fill-opacity="0.55"/>
<path d="M75.7698 7.62378H70.9473V24.3082H75.7698V7.62378Z" fill="#1B1B1B" fill-opacity="0.55"/>
<path d="M104.242 7.62378C102.88 7.62378 101.806 8.10447 101.021 9.0659C100.457 9.7568 100.028 10.7777 99.7348 12.1285H99.593L98.9625 7.62378H94.8438V24.3059H99.6665V15.7509C99.6665 14.6722 99.919 13.8452 100.424 13.27C100.929 12.6948 101.861 12.4072 103.22 12.4072H105.051V7.62378H104.242Z" fill="#1B1B1B" fill-opacity="0.55"/>
<path d="M90.0622 8.16889C88.9363 7.49918 87.5162 7.16513 85.8019 7.16675C83.1036 7.16675 80.9916 7.93507 79.4665 9.47169C77.9411 11.0083 77.1787 13.1267 77.1787 15.8268C77.1397 17.4592 77.4961 19.0768 78.2174 20.5417C78.8776 21.8471 79.9059 22.9306 81.175 23.6581C82.4525 24.3964 83.972 24.7663 85.7334 24.7677C87.2571 24.7677 88.5297 24.5332 89.5514 24.064C90.512 23.6425 91.3484 22.9818 91.981 22.1452C92.5834 21.3238 93.0307 20.3994 93.3009 19.4174L89.1457 18.2539C88.9708 18.8925 88.634 19.4751 88.168 19.9453C87.6986 20.4146 86.9124 20.6493 85.8092 20.6493C84.4976 20.6493 83.5199 20.2737 82.8761 19.5225C82.4094 18.9798 82.1161 18.205 81.9864 17.2004H93.3646C93.411 16.7311 93.4353 16.3376 93.4353 16.0198V14.981C93.4628 13.5855 93.1745 12.2018 92.5921 10.9334C92.0469 9.77785 91.165 8.81421 90.0622 8.16889ZM85.6626 11.1435C87.618 11.1435 88.7269 12.1058 88.9891 14.0302H82.072C82.1819 13.3881 82.4479 12.7829 82.8469 12.2679C83.4808 11.5167 84.4193 11.1419 85.6626 11.1435Z" fill="#1B1B1B" fill-opacity="0.55"/>
<path d="M73.4112 0.899758C73.0483 0.88742 72.6868 0.948136 72.3479 1.0783C72.009 1.20847 71.6999 1.40542 71.4387 1.65746C71.1812 1.91192 70.9793 2.21714 70.8459 2.55375C70.7124 2.89036 70.6504 3.25101 70.6639 3.61284C70.6508 3.97701 70.7131 4.33995 70.8465 4.67901C70.9801 5.01809 71.182 5.32602 71.4397 5.58357C71.6976 5.84112 72.0057 6.04278 72.3448 6.17597C72.6841 6.30917 73.0471 6.37104 73.4112 6.35771C73.7729 6.37139 74.1339 6.30955 74.4704 6.17614C74.807 6.04275 75.1122 5.8407 75.3666 5.58288C75.6188 5.32239 75.8158 5.0136 75.9454 4.67503C76.0753 4.33647 76.1353 3.97518 76.1217 3.61284C76.1384 3.25265 76.0799 2.89294 75.9496 2.55668C75.8195 2.22042 75.6207 1.915 75.3659 1.65992C75.1109 1.40484 74.8058 1.20571 74.4696 1.07524C74.1334 0.944776 73.7738 0.885846 73.4136 0.902205L73.4112 0.899758Z" fill="#1B1B1B" fill-opacity="0.55"/>
<path d="M63.4512 7.16675C61.8088 7.16675 60.4889 7.68247 59.4917 8.71394C58.7533 9.47818 58.2117 10.6188 57.8662 12.1359H57.7121L57.0816 7.63114H52.9629V29.1015H57.7854V20.2582H57.9615C58.1087 20.8478 58.315 21.4211 58.5774 21.9691C58.9854 22.8619 59.6544 23.6102 60.4962 24.1152C61.369 24.5914 62.3521 24.8285 63.3461 24.8021C65.3652 24.8021 66.9026 24.0159 67.9586 22.4433C69.0143 20.8709 69.5424 18.6767 69.5424 15.861C69.5424 13.1413 69.0316 11.0124 68.0098 9.47412C66.9881 7.93588 65.4686 7.16675 63.4512 7.16675ZM63.9401 19.256C63.3779 20.0708 62.498 20.4782 61.3003 20.4782C60.8066 20.5009 60.3143 20.4058 59.8647 20.2005C59.4148 19.9951 59.0206 19.6856 58.7144 19.2976C58.0902 18.5138 57.779 17.4408 57.7806 16.0785V15.7607C57.7806 14.3773 58.0918 13.3181 58.7144 12.5832C59.3368 11.8483 60.1988 11.4849 61.3003 11.4931C62.5193 11.4931 63.4048 11.8801 63.9572 12.6541C64.5096 13.4281 64.7859 14.5077 64.7859 15.8927C64.7892 17.325 64.5088 18.4461 63.9449 19.256H63.9401Z" fill="#1B1B1B" fill-opacity="0.55"/>
<path d="M17.6591 20.2242H0.974609V24.3111H17.6591V20.2242Z" fill="#1B1B1B" fill-opacity="0.55"/>
</g>
<defs>
<clipPath id="clip0_18951_2190">
<rect width="104.077" height="28.2033" fill="white" transform="translate(0.974609 0.898193)"/>
</clipPath>
</defs>
</svg>
