<svg width="63" height="38" viewBox="0 0 63 38" fill="none" xmlns="http://www.w3.org/2000/svg">
<path fill-rule="evenodd" clip-rule="evenodd" d="M1.5957 19.0561H5.18484V20.3599H4.07538V22.5444H8.11962V20.3599H6.97818V19.0561H10.6288V20.3599H9.4554V26.7854H10.6288V28.0572H6.97572V26.7854H8.11716V23.8187H4.07292V26.7879H5.18238V28.0597H1.5957V26.7879H2.73714V20.3624H1.5957V19.0561ZM44.5202 19.0561H51.8929V21.5678H50.653V20.3599H47.0639V22.5124H50.129V23.7842H47.0639V26.7854H50.6186V25.056H51.9224V28.0572H44.5178V26.7854H45.7256V20.3624H44.5178V19.0561H44.5202ZM12.2942 19.0561H19.6988V21.5678H18.427V20.3599H14.8379V22.5124H17.903V23.7842H14.8379V26.7854H18.3926V25.056H19.6964V28.0572H12.2918V26.7854H13.4996V20.3624H12.2918V19.0561H12.2942ZM46.6727 17.8507H49.3148L49.9667 18.633H47.3911L46.6727 17.8507ZM59.1326 22.906C58.22 22.6772 57.6001 22.7092 56.653 22.4165C55.8362 22.1237 55.6739 21.6342 55.6739 21.307C55.6739 20.9478 56.033 20.0672 57.3368 20.0672C58.6406 20.0672 59.5213 20.9478 59.5558 21.6981H60.8276V19.0561H59.5877V19.644L59.6542 19.8064C59.6222 19.8064 59.5877 19.708 59.4574 19.6096V19.5776C59.0982 19.2504 58.3479 18.8593 57.2384 18.8593C55.9002 18.8593 54.3356 19.708 54.3356 21.3045C54.3356 22.8716 55.4451 23.3931 56.4242 23.6538C57.3713 23.9146 57.8584 23.9146 58.6751 24.1434C59.4574 24.3402 59.9789 24.8273 59.9789 25.5456C59.9789 26.1975 59.5558 27.0782 57.8584 27.0782C56.1954 27.0782 55.5091 26.1655 55.3147 24.8937H54.1069V28.0572H55.3467V27.4693L55.3147 27.3069C55.3147 27.3069 55.3467 27.4053 55.5115 27.5037V27.5357C56.1314 28.0253 56.9801 28.35 58.0232 28.35C59.231 28.35 61.2851 27.7301 61.2851 25.5776C61.2851 24.0155 60.4709 23.2971 59.1326 22.906ZM41.6174 26.7879V20.3624H42.8253V19.0586H39.5633L37.3789 24.3426L37.3469 24.6034L37.2805 24.3426L35.128 19.0586H31.834V20.3624H33.0419V26.7879H31.834V28.0597H35.5191V26.7879H34.3777V20.4927L34.4761 20.7879L36.9877 26.7903H37.706L40.2177 20.7879L40.2841 20.4608L40.3161 20.8199V26.7903H39.1747V28.0622H42.8278V26.7903L41.6174 26.7879ZM15.3274 15.5998H14.0876V15.2726H15.0002C15.0347 15.339 15.229 15.5014 15.3274 15.5998ZM46.4784 15.5998C46.4784 15.4694 46.6088 15.339 46.7711 15.2726H47.423V15.5998H46.4784ZM25.994 15.8286C25.4405 16.0893 24.7541 16.0573 24.2006 15.8286H17.7087C17.0814 16.0893 16.3778 16.0893 15.7505 15.8286H14.0876V16.4485H47.423V15.8286H25.994ZM18.0998 15.5998C18.1982 15.5334 18.427 15.3071 18.459 15.2726H23.4823C23.5463 15.371 23.7111 15.5334 23.8095 15.5998H18.0998ZM25.1133 15.403C25.962 15.403 26.6779 14.6847 26.6779 13.8384C26.6779 12.9578 25.9595 12.2394 25.1133 12.2394C24.2302 12.2419 23.5168 12.9553 23.5143 13.8384C23.5143 14.6847 24.2326 15.403 25.1133 15.403V15.7302C24.0358 15.7302 23.1896 14.8815 23.1896 13.8384C23.1896 12.761 24.0383 11.9147 25.1133 11.9147C26.1563 11.9147 27.005 12.7634 27.005 13.8384C27.005 14.8839 26.1588 15.7302 25.1133 15.7302V15.403ZM18.8821 13.5777C18.8821 12.4043 17.903 11.4252 16.7296 11.4252C15.5218 11.4252 14.5771 12.4043 14.5771 13.5777C14.5771 14.7855 15.5242 15.7302 16.7296 15.7302C17.903 15.7302 18.8821 14.7831 18.8821 13.5777H18.523C18.523 14.5887 17.7062 15.4055 16.7296 15.4055C15.7235 15.4079 14.9043 14.5912 14.9018 13.5851C14.9018 13.5826 14.9018 13.5801 14.9018 13.5801C14.9018 12.5691 15.7186 11.7868 16.7296 11.7868C17.7185 11.7843 18.5205 12.5838 18.523 13.5703C18.523 13.5728 18.523 13.5777 18.523 13.5801H18.8821V13.5777Z" fill="#1B1B1B" fill-opacity="0.55"/>
<path fill-rule="evenodd" clip-rule="evenodd" d="M26.1238 14.9134L25.4719 14.1631V14.1311C25.5039 14.0992 25.5039 14.0647 25.5358 14.0327L26.5149 14.2935C26.5469 14.2935 26.6133 14.3255 26.6133 14.3575C26.6133 14.3255 26.6453 14.1951 26.6773 14.1287C26.6453 14.1607 26.5789 14.1607 26.5149 14.1607L25.6023 13.8999C25.5703 13.8999 25.5703 13.8679 25.5703 13.8679V13.7056L26.5174 13.3464C26.5174 13.3464 26.6158 13.3464 26.6158 13.3784C26.6158 13.3464 26.5494 13.1816 26.5494 13.1496C26.5494 13.1816 26.4829 13.248 26.451 13.248L26.5174 13.216L25.5383 13.5752C25.5383 13.6072 25.5383 13.5752 25.5063 13.5752C25.5039 13.5407 25.4768 13.5112 25.4399 13.5088C25.4399 13.4768 25.4079 13.4423 25.4399 13.4423L25.9614 12.6256C25.9934 12.5936 26.0598 12.5592 26.0918 12.5592C26.0598 12.5592 25.9294 12.4608 25.863 12.4288C25.895 12.4288 25.895 12.5272 25.863 12.5592L25.3415 13.3759H25.2775C25.2775 13.3759 25.2111 13.3439 25.1791 13.3439C25.1791 13.3439 25.1472 13.3439 25.1472 13.312L25.1152 12.3673C25.1152 12.3009 25.1152 12.2369 25.1816 12.2369H24.9208C24.9528 12.2369 24.9873 12.3353 24.9873 12.3673L25.0192 13.312C25.0192 13.3439 24.9873 13.3439 24.9873 13.3439C24.9873 13.3439 24.9208 13.3759 24.8889 13.4104C24.8889 13.4104 24.8569 13.4104 24.8569 13.3784L24.232 12.6305C24.2001 12.5986 24.2001 12.5321 24.2001 12.5002C24.1681 12.5321 24.0377 12.6305 24.0033 12.6625C24.0352 12.6625 24.1017 12.6945 24.1336 12.7289L24.7536 13.4792V13.5112C24.7216 13.5112 24.6871 13.5776 24.6871 13.6096C24.6871 13.6096 24.6552 13.6416 24.6207 13.6416L23.7081 13.3808C23.6416 13.3489 23.6097 13.3144 23.6097 13.2824C23.6097 13.3144 23.5432 13.4792 23.5432 13.5112C23.5432 13.5112 23.6416 13.4792 23.6736 13.5112L24.5863 13.74C24.6183 13.74 24.6183 13.772 24.6183 13.772V13.9343L23.7056 14.3255C23.6736 14.3255 23.6072 14.3575 23.6072 14.3255C23.6072 14.3575 23.6392 14.4878 23.6712 14.5543C23.6712 14.5223 23.7376 14.4559 23.7696 14.4559L24.6502 14.0647C24.6822 14.0647 24.6822 14.0967 24.6822 14.0967C24.7142 14.0967 24.7486 14.1287 24.7486 14.1607C24.7806 14.1607 24.7806 14.1926 24.7806 14.1926L24.232 15.0118C24.2001 15.0438 24.1656 15.0758 24.1336 15.0758C24.1656 15.1078 24.296 15.2062 24.3304 15.2062C24.2985 15.2062 24.3304 15.1078 24.3304 15.0758L24.8839 14.2935C24.8839 14.2615 24.9159 14.2615 24.9159 14.2615C24.9479 14.2935 24.9823 14.2935 25.0143 14.2935C25.0463 14.2935 25.0463 14.2935 25.0463 14.3255L25.1127 15.3046C25.1127 15.3365 25.0807 15.403 25.0463 15.403H25.3071C25.2406 15.403 25.2406 15.339 25.2406 15.2726L25.1767 14.3255C25.1767 14.2935 25.2087 14.2935 25.2087 14.2935C25.2406 14.2935 25.3071 14.2615 25.339 14.2271C25.339 14.2271 25.371 14.2271 25.371 14.2591L26.0229 14.9774C26.0229 15.0094 26.0549 15.0758 26.0549 15.1078L26.2173 14.9454C26.1877 14.9798 26.1238 14.9134 26.1238 14.9134ZM16.6626 12.3378C17.5753 12.3378 18.4904 12.4362 19.0119 12.5986C19.0759 12.5986 19.0759 12.6625 19.0119 12.697C18.4584 12.8273 17.5433 12.9257 16.6971 12.9257C15.8484 12.9577 14.9357 12.9257 14.3478 12.7954C14.2838 12.7954 14.2838 12.7289 14.3478 12.7289C14.8693 12.5321 15.75 12.3698 16.6626 12.3378V12.173C15.6835 12.205 14.7045 12.4337 13.8902 12.7265C13.7918 12.7585 13.7918 12.8249 13.8902 12.8249C14.8029 13.0537 15.75 13.0856 16.6946 13.0537C17.6073 13.0217 18.5863 12.9553 19.467 12.6945C19.5974 12.6625 19.5654 12.5961 19.499 12.5961C18.579 12.3157 17.622 12.173 16.6602 12.173V12.3378H16.6626Z" fill="#1B1B1B" fill-opacity="0.55"/>
<path fill-rule="evenodd" clip-rule="evenodd" d="M26.3528 11.7503C26.124 11.8167 25.7329 11.9471 25.5361 11.9471C25.3737 11.9471 24.557 11.9151 24.0035 11.9471C23.2532 11.9791 23.1868 12.0775 23.1548 12.0135C22.9924 11.7528 22.8621 11.3616 22.6013 11.1329C21.0687 11.3936 19.5681 11.1648 18.1979 10.6753V10.4785C18.2963 10.5105 18.3603 10.5105 18.4267 10.5105C18.1979 10.1833 17.8068 10.0874 17.578 9.7282C17.4476 9.6298 17.4156 9.43546 17.2852 9.33706C17.3172 9.69622 17.0245 9.95698 16.9925 10.2497C17.1893 10.3161 17.4501 10.3161 17.546 10.2817C17.6764 10.2497 17.8387 10.2817 17.9052 10.3801C18.0036 10.4121 18.0675 10.4785 18.1979 10.4785V10.6753C18.0355 10.6433 18.0011 10.6089 17.8707 10.5449C17.7084 10.6113 17.578 10.5769 17.5116 10.5129C17.4796 10.481 17.1524 10.481 17.022 10.481C16.5989 10.481 16.1413 10.6433 15.9126 11.0025C15.8142 11.1993 15.8461 11.4256 15.9445 11.5904C16.011 11.6888 16.3037 12.1119 16.498 12.2423L16.2373 12.3087C15.8461 11.9496 15.5534 11.6249 15.6174 11.1993C15.8142 10.2866 16.6604 10.417 16.8892 10.0259C17.0515 9.6667 17.118 8.62366 16.9212 8.33092C16.3677 8.10214 15.6813 7.8094 15.5509 7.1575C15.519 6.99514 15.5829 6.79834 15.7477 6.76636C16.0405 6.7024 16.2373 6.86476 16.4661 6.96316C16.5645 6.89674 16.3677 6.67042 16.5964 6.67042C16.8892 6.67042 17.086 7.25836 17.1844 7.29034L17.1524 7.51912C16.9556 7.45516 16.2397 7.06156 16.1733 7.02958C16.0429 6.96316 15.8806 6.86722 15.7822 6.9976C15.6518 7.15996 15.8142 7.35676 15.9126 7.51912C17.4451 9.11812 19.9888 7.42072 21.6542 8.56216C21.6862 8.46376 21.6542 8.43178 21.5878 8.3998C20.4463 7.32478 18.6186 7.87828 17.1524 7.51912L17.1844 7.29034C19.0122 7.7479 21.4254 6.9976 22.3701 9.08368C22.99 9.96436 23.6419 11.3666 24.9801 11.3985C26.0576 11.4305 26.7735 11.0074 27.295 10.2251C28.0133 8.92132 28.4364 7.42072 29.7082 6.54004C29.8386 6.47362 29.905 6.54004 29.8386 6.57202C29.2187 7.19194 28.6652 8.00866 28.37 8.69254C28.8595 10.5523 29.9346 10.1612 30.1978 10.1267C30.1314 9.44284 30.1978 7.42072 31.6664 6.93118C32.5348 6.26206 33.7008 6.1243 34.6996 6.57202C33.5581 7.6495 32.8718 9.18208 32.6455 10.2571L31.3737 10.6163C31.4721 10.4195 31.4721 10.0947 31.4401 9.73558C31.3097 9.79954 31.1793 9.89794 30.8866 10.0628C30.7562 10.0947 30.8546 9.9004 30.8546 9.9004C30.8546 9.83644 31.1818 9.7036 31.4425 9.54124C31.3441 8.79094 31.2802 7.81186 31.9001 7.19194C30.6283 7.61506 30.9874 10.2915 31.1178 10.6163C30.7587 10.7786 30.2691 10.7786 30.2691 10.7786L30.2027 10.3211C29.6492 10.5179 28.7021 10.3875 28.279 8.91886C27.819 9.85858 27.4278 11.3592 26.3528 11.7503ZM46.2493 7.7725C46.1829 7.70608 46.1509 7.6741 46.0869 7.6741C46.0549 7.64212 46.0869 7.60768 46.1189 7.60768C46.1509 7.5757 46.2173 7.60768 46.2493 7.6741C46.2813 7.70608 46.2813 7.7725 46.2493 7.7725Z" fill="#1B1B1B" fill-opacity="0.55"/>
<path fill-rule="evenodd" clip-rule="evenodd" d="M17.0561 14.0676L17.7399 14.8499C17.8064 14.9163 17.8064 15.0122 17.7719 15.0467C17.8703 15.0147 18.0007 14.8499 18.0647 14.7859C18.0327 14.8179 17.9023 14.8179 17.8679 14.7539L17.152 13.9692V13.9052L17.184 13.8732C17.184 13.8413 17.216 13.8413 17.216 13.8413L18.227 14.2004C18.3254 14.2644 18.3574 14.3308 18.3574 14.3628C18.3894 14.2988 18.4558 14.102 18.4878 14.0356C18.4558 14.0676 18.3574 14.102 18.291 14.0676L17.2799 13.7084C17.2479 13.7084 17.2479 13.7084 17.2479 13.6764V13.61C17.2479 13.578 17.2799 13.578 17.2799 13.578L18.323 13.4157C18.4533 13.3837 18.5198 13.4477 18.5198 13.4796C18.5198 13.4157 18.4878 13.1869 18.4878 13.1205C18.4878 13.1525 18.4214 13.2509 18.291 13.2828L17.2799 13.4452C17.2479 13.4452 17.2479 13.4132 17.2479 13.4132C17.216 13.3812 17.216 13.3468 17.1815 13.3148V13.2828L17.9982 12.599C18.0966 12.5325 18.195 12.5325 18.227 12.567C18.1631 12.5006 18.0302 12.3382 17.9663 12.2742C17.9982 12.3062 17.9663 12.4046 17.8998 12.503L17.1176 13.1549C17.0856 13.1869 17.0856 13.1869 17.0856 13.1549C17.0536 13.1549 17.0216 13.1549 16.9872 13.1229C16.9872 13.1229 16.9552 13.091 16.9872 13.091L17.3463 12.0799C17.3709 12.0086 17.4349 11.9569 17.5087 11.9495C17.4423 11.9175 17.216 11.8191 17.1495 11.8191C17.1815 11.8191 17.2479 11.9495 17.2135 12.0479L16.8543 13.027C16.8543 13.059 16.8224 13.059 16.8224 13.059H16.724L16.692 13.027L16.4952 11.984C16.4952 11.8536 16.5616 11.7872 16.5616 11.7872C16.4952 11.7872 16.3008 11.8191 16.2024 11.8536C16.2344 11.8536 16.3328 11.92 16.3648 12.0159L16.5616 13.027C16.5616 13.059 16.5616 13.059 16.5296 13.0934C16.4976 13.0934 16.4657 13.1254 16.4312 13.1254H16.3992L15.6834 12.3431C15.617 12.2447 15.617 12.1463 15.6514 12.1463C15.585 12.1783 15.4226 12.3087 15.3906 12.3751C15.4226 12.3751 15.521 12.3751 15.5874 12.4391L16.3058 13.2213V13.2533L16.2393 13.3173H16.2074L15.2283 12.9581C15.1299 12.9261 15.0659 12.8277 15.0979 12.7958C15.0315 12.8942 14.9995 13.0885 14.9675 13.1549C14.9995 13.1229 15.0979 13.0885 15.1963 13.1229L16.1754 13.4501V13.6125L15.1323 13.8093C15.0339 13.8093 14.9355 13.7453 14.9355 13.7109C14.9355 13.8093 14.9675 14.0381 15.002 14.102C15.002 14.07 15.0339 13.9716 15.1643 13.9397L16.1754 13.7429C16.1754 13.7429 16.2074 13.7429 16.2074 13.7748C16.2074 13.8068 16.2074 13.8068 16.2393 13.8413V13.8732L15.4251 14.5227C15.3267 14.6211 15.2283 14.5891 15.2283 14.5547C15.2283 14.6531 15.3906 14.8154 15.4251 14.8474C15.4251 14.8154 15.4251 14.717 15.4915 14.6506L16.3402 13.9987C16.3402 13.9667 16.3402 13.9667 16.3722 13.9987L16.4386 14.0627C16.4706 14.0627 16.4706 14.0627 16.4706 14.0946L16.1114 15.0737C16.0794 15.1721 15.981 15.2361 15.9491 15.2041C16.0155 15.2361 16.2098 15.3345 16.3082 15.3345C16.2418 15.3345 16.2098 15.2361 16.2418 15.1377L16.601 14.1266C16.601 14.1266 16.601 14.0946 16.6329 14.0946C16.6649 14.1266 16.6969 14.1266 16.7313 14.1266C16.7313 14.1266 16.7633 14.1266 16.7633 14.1586L16.9601 15.1697C16.9601 15.3 16.8937 15.3665 16.8617 15.3984C16.9601 15.3984 17.1545 15.3345 17.2209 15.3C17.1889 15.332 17.0905 15.2361 17.0905 15.1697L16.8937 14.1266V14.0946C16.9257 14.0946 16.9601 14.0627 16.9921 14.0627C17.0216 14.0331 17.0216 14.0331 17.0561 14.0676ZM45.7913 7.90036C45.7593 7.86838 45.7913 7.8364 45.7913 7.80196C45.8233 7.70356 45.8553 7.70356 45.8553 7.60516C45.6929 7.47478 45.6585 7.21402 45.7569 7.1476C45.8553 7.0492 46.18 7.17958 46.18 7.17958C46.4727 6.9508 46.5711 6.78844 46.7335 6.69004C46.9623 6.69004 47.4174 7.11316 47.4174 7.37392C47.351 7.47232 47.1886 7.63468 46.9278 7.96186C47.0262 8.19064 47.0262 8.353 46.8614 8.48338C46.8294 8.48338 46.763 8.48338 46.6991 8.41696C46.731 8.74414 47.0902 8.93848 47.2206 9.19924C47.2206 9.72076 47.7741 10.3727 47.1542 10.7982C47.0238 10.8647 46.8934 10.9606 46.8294 11.091C46.9278 11.6125 47.1222 12.1685 47.2206 12.722L46.6007 12.7539C46.5367 12.9507 46.3399 13.3074 46.4039 13.5042C46.4039 13.5042 46.3719 13.4723 46.4358 13.5042C46.5342 13.6346 46.5662 14.7121 46.5342 14.808C46.5342 14.9384 46.6326 14.9384 46.5662 15.1672C46.4998 15.1992 46.2415 15.364 46.2071 15.4599C46.0447 15.6223 45.5871 15.6567 45.5871 15.5903C45.5871 15.428 45.9119 15.2312 45.9783 15.0368C46.0422 14.2545 45.9783 13.4698 45.5552 12.8523C45.3928 12.7539 45.2624 13.0147 45.164 13.1451C45.3264 13.6346 45.6216 14.1561 45.5871 14.7096C45.5871 14.872 45.7839 15.1008 45.6855 15.3296L45.164 15.5903H43.2723C43.2083 15.4919 43.0755 15.3935 43.1099 15.2631H44.8049C44.8049 15.1967 44.9672 15.2312 45.132 14.9704C45.132 14.1881 44.3153 13.0467 44.4482 12.6555C44.6105 12.166 44.8393 11.7749 45.1001 11.123L45.2304 11.091C44.9377 12.0701 44.5121 12.5596 44.5785 12.8523C44.6105 13.0147 44.6769 13.1451 44.7753 13.3419L44.8418 13.5387C44.8737 13.6371 44.9721 13.8659 45.0386 13.9298C45.137 13.9298 45.2009 13.8634 45.2673 13.8314C45.2673 13.701 45.1689 13.5387 45.105 13.4403L44.8442 13.5387L44.7778 13.3419C44.9746 13.3419 45.1025 13.2115 44.9402 13.1131C45.3977 12.8843 44.8418 12.9507 45.0041 12.8523C45.2649 12.722 45.3953 12.2324 45.4272 11.9397C45.4272 11.8733 45.4592 11.8413 45.5256 11.8413C45.7224 12.3628 45.7224 13.0491 46.0472 13.5362V13.6986C46.0152 13.829 46.0472 13.9913 46.1136 14.0897C46.4063 14.1217 46.3743 14.0577 46.3104 13.6986C46.2464 13.6986 46.1136 13.6666 46.0496 13.6986V13.5362C46.0816 13.5042 46.212 13.5362 46.2464 13.5042C46.148 13.3419 46.148 13.2115 46.148 13.0467C46.148 12.9483 46.2144 12.7539 46.2784 13.1771C46.3768 13.209 46.5392 12.4268 46.5711 12.166C45.9512 12.2964 46.5711 11.5781 46.1136 11.5461L46.3424 11.1549C46.3424 11.0246 46.244 10.9262 46.0816 10.9926L45.9512 10.8302C45.8528 10.7982 45.7544 10.6334 45.6265 10.5375C45.5281 10.6359 45.3657 10.8302 45.3338 10.9606C45.3018 10.9926 45.4002 11.0246 45.4322 10.9926C45.5306 10.8942 45.5945 11.091 45.7569 11.0565C45.8233 10.9926 46.0176 10.9581 45.9537 10.8278L46.0841 10.9901C45.9537 11.0541 45.9537 11.2829 45.9537 11.4477C45.7249 11.8708 45.8233 11.2189 45.5625 11.2189C45.4002 11.3173 45.3338 11.0565 45.2378 11.0885L45.1074 11.1205C45.1074 10.8917 45.1394 10.631 45.1074 10.3702C45.3042 9.26074 45.5306 9.29272 45.565 8.968C45.565 8.83762 46.0545 8.57686 46.0226 8.44648C46.0545 8.44648 46.121 8.54488 46.121 8.57686C46.089 8.73922 45.7618 8.73922 45.7962 9.09838C45.993 8.73922 46.5465 8.7712 46.5785 8.34808C46.4801 8.08732 46.7089 8.24968 46.7089 7.98892C46.6449 7.9225 46.4481 7.72816 46.4162 7.62976C46.3842 7.59778 46.5146 7.40098 46.057 7.40098C46.025 7.43296 45.993 7.62976 45.9266 7.72816C45.8946 7.76014 45.8282 7.82656 45.8602 7.85854C45.8602 7.89052 45.9266 7.9225 45.9266 8.05534C45.8946 8.18572 45.9266 8.25214 45.993 8.3161C46.2538 8.44648 46.4506 8.3161 46.1554 8.47846C46.1554 8.51044 46.1554 8.54242 46.1234 8.57686C46.1234 8.54488 46.025 8.4145 45.993 8.38006C45.9611 8.38006 45.7962 8.28166 45.8307 8.15128C45.8577 8.0332 45.8577 7.96678 45.7913 7.90036ZM37.0165 6.66298C37.0485 6.89176 36.9181 7.05412 36.9181 7.2829C37.1469 7.8364 36.9181 8.26198 36.9845 8.7835C36.7238 8.62114 36.6598 8.19556 36.5614 7.74046C36.495 7.34932 36.5934 7.21894 36.6254 6.79336L37.0165 6.66298ZM36.3326 6.82534C36.3006 7.50922 36.2022 7.8364 36.6918 8.91388C35.4519 9.4354 34.4409 9.79456 32.9747 10.2177C33.1371 9.17464 34.1481 7.1845 34.9968 6.62854C35.7127 6.82534 36.3326 6.82534 36.3326 6.82534Z" fill="#1B1B1B" fill-opacity="0.55"/>
<path fill-rule="evenodd" clip-rule="evenodd" d="M33.1348 14.4909C32.8101 14.5893 32.8101 14.7836 33.0044 14.9804C33.1348 15.0788 33.2652 15.2412 33.2652 15.2732H31.1766C31.1766 15.3716 31.275 15.4355 31.339 15.6003H42.8863C42.9527 15.438 42.7559 15.2412 42.6895 15.0468C41.8727 14.7541 41.8727 14.0038 41.8408 13.1551C41.8408 13.1231 41.7743 13.0247 41.7743 12.8624C41.6759 12.732 41.1224 11.3937 41.3832 10.3187L41.58 9.95957C41.7423 9.73079 41.548 9.60041 41.6784 9.33965L44.0917 8.88209C44.1236 8.85011 44.1236 8.75171 44.0597 8.71973C44.0916 8.71973 44.0597 8.68775 44.0597 8.71973L41.7104 9.14285C41.8407 8.55491 41.3192 8.36057 41.548 7.87103C41.8727 8.23019 42.7559 8.85011 43.211 8.94605L43.4398 8.91407C42.8518 8.65331 41.8088 8.03339 41.2208 7.21913C41.1544 7.21913 41.0904 7.15271 41.024 7.12073C41.024 7.18469 41.1864 7.38149 41.1544 7.41347C41.1544 7.41347 40.7633 7.67423 40.045 7.34705C39.8162 7.80461 37.2725 8.94605 37.2725 8.94605C37.3709 9.66437 37.6956 10.1195 38.0548 10.5131C38.0868 10.577 37.9564 10.4466 38.0548 10.5131C38.5763 10.9362 39.1962 11.133 39.8826 11.2634C40.013 11.6545 40.5025 12.9263 40.5345 13.1231C40.6009 13.3199 40.6969 13.3199 40.6969 13.3199C40.7633 13.3863 40.9896 13.8095 40.9896 13.9718L41.056 14.6557C41.088 14.8181 41.2848 14.6877 41.3168 14.8525L41.2184 15.2756H41.7079C41.4472 15.0468 41.6095 14.6557 41.2848 14.4933C41.2528 14.1022 41.2208 13.8095 41.056 13.6446C40.9256 13.2535 40.5025 12.2105 40.2393 11.2634L40.4017 11.0346C39.6833 11.2314 39.1298 10.9706 38.4779 10.6115C37.9884 10.3827 38.2811 10.5795 38.446 10.4811C39.2282 10.8402 39.6218 10.7418 40.2073 10.6779C40.2737 10.7763 40.4041 10.8747 40.4041 11.037L40.2418 11.2658C40.4041 11.1035 40.5345 11.1994 40.6329 11.657C40.7633 12.0481 40.8937 12.3408 40.9921 12.668C41.1224 12.9952 41.2208 13.4183 41.3192 13.6471C41.3192 13.6471 41.4176 13.6471 41.4816 13.7775C41.7104 14.4958 41.7743 14.5942 41.7424 14.9189C41.8088 15.1797 42.1655 14.9509 42.1335 15.2781H33.5555C33.6858 14.7566 33.3931 14.299 33.5555 13.8095C33.2283 13.2879 32.414 12.8968 32.5444 12.1785C32.9355 11.625 34.2074 11.069 33.9146 10.4171C35.088 9.82919 35.676 10.8083 36.7535 10.7099C37.1446 10.7099 37.5677 10.6434 37.9269 10.5475C37.4693 10.1883 37.0782 9.63485 36.8519 9.14531C34.569 10.0899 32.3501 10.8402 29.9048 11.3298L29.708 11.2634C29.4792 11.2953 25.7622 12.144 25.8926 12.3064C24.4904 12.4048 22.8594 12.9903 22.5002 13.1871C22.3379 13.2855 22.3034 13.3494 22.5002 13.4159C24.0008 13.807 25.2407 13.5143 27.5555 12.6336L27.3932 12.5032C27.2628 12.6016 25.371 13.2535 24.6207 13.3519C23.8385 13.4503 23.1521 13.4183 22.8274 13.3199C22.729 13.2879 22.729 13.2879 22.7954 13.256C24.264 12.668 27.1004 12.1465 27.4916 12.636C27.7203 12.7025 27.8827 12.8328 28.0131 12.9952C28.1435 13.1576 28.4042 13.0936 28.601 13.0616C28.8618 12.9952 28.8938 12.7689 28.8938 12.5401L28.601 12.5081C28.4706 12.5081 27.9491 12.5745 27.8827 12.6385C27.6859 12.4761 27.4916 12.3113 27.2308 12.2474C27.7523 12.0186 28.601 11.8242 29.0586 11.7898C28.6355 12.0825 28.8298 12.4417 28.601 12.5081L28.8938 12.5401C28.8938 12.4097 28.8938 12.3113 28.9602 12.2474C29.2529 11.529 30.4928 11.4306 31.1127 11.2683C31.1127 11.2683 30.7855 11.6914 30.5592 11.7898C30.4952 12.8009 30.1361 13.6815 30.0696 14.6926C30.3624 14.6926 30.3624 15.0198 30.4288 15.2141C30.3304 15.3765 30.2 15.2141 30.0696 15.2461C29.6121 15.0173 30.168 14.6262 29.8089 14.299C30.0057 13.4823 30.2984 12.668 30.2984 11.8193C30.168 11.8193 30.1361 11.9497 30.0696 12.0481C29.9712 12.8648 29.7425 13.6127 29.5481 14.363C29.6121 14.4294 29.7769 14.4933 29.7769 14.6237C29.5161 14.7861 29.7769 15.0813 29.6785 15.2756H26.7093L26.4165 15.6028H30.9183L30.9503 15.4404C30.2984 14.7221 30.5272 13.6791 30.8519 12.8968L31.6342 11.8538C32.2861 11.593 32.6772 10.8107 33.3636 10.55C33.3636 10.9091 32.9405 11.0395 32.7117 11.2338C32.4509 11.7873 31.7006 11.8538 31.6022 12.4737C31.895 12.8009 32.3205 13.0272 32.6797 13.3224C33.0389 13.5512 32.9405 14.0407 33.2012 14.2695C33.2676 14.3285 33.2012 14.4589 33.1348 14.4909Z" fill="#1B1B1B" fill-opacity="0.55"/>
<path fill-rule="evenodd" clip-rule="evenodd" d="M38.126 2.71428C37.9956 2.91108 37.7348 3.04146 37.8972 3.39816C37.57 3.59496 37.6684 3.8877 37.7668 4.05006C37.6044 4.21242 37.506 4.5396 37.7348 4.73394C37.4741 5.02668 37.8012 5.28744 37.8972 5.38584C37.7668 5.67858 37.8972 5.90736 37.8972 5.90736C37.8652 6.10416 37.506 6.42888 37.3757 6.52728C37.1789 7.01682 37.2453 8.02788 37.2773 8.71176C38.1899 8.2542 39.105 7.83108 39.8209 7.21116C39.201 6.78804 38.7114 5.77698 38.0276 5.84094C37.9611 5.12262 37.6684 3.8508 38.6795 2.547C38.8098 2.48058 39.0042 2.4486 39.1026 2.38464C38.6795 2.32068 38.1235 2.58144 37.7324 2.35266C37.7348 2.35758 37.9316 2.6823 38.126 2.71428Z" fill="#1B1B1B" fill-opacity="0.55"/>
<path fill-rule="evenodd" clip-rule="evenodd" d="M40.314 2.38982C40.314 2.4218 40.4444 2.48822 40.4444 2.48822C40.4444 2.48822 40.5748 2.45624 40.5748 2.42426C40.5748 2.39228 40.6068 2.29388 40.5748 2.2619C40.5428 2.2619 40.4444 2.22992 40.378 2.22992C40.378 2.225 40.314 2.35784 40.314 2.38982L40.2476 2.45624L39.7901 2.12906L39.8565 2.06264C39.8565 2.06264 40.0533 1.86584 40.1492 1.86584C40.2476 1.83386 40.7691 1.86584 40.8995 1.96424C40.9979 2.06264 41.0619 2.1266 41.1923 2.35538C41.5514 2.61614 42.1394 2.61614 42.4961 2.90888C42.4296 3.00728 42.5945 3.16964 42.4641 3.23606C42.3657 3.26804 42.1369 3.20408 42.1049 3.26804L42.0729 3.46484L41.9426 3.43286C41.9426 3.43286 42.009 3.20408 41.9426 3.20408C41.8761 3.1721 41.7458 3.10568 41.6818 3.13766C41.6498 3.16964 41.6818 3.20408 41.7138 3.26804C41.7138 3.332 41.8761 3.36644 41.9745 3.332L42.1049 3.36398L42.2673 3.39596C42.2009 3.55832 42.1689 3.62474 41.9401 3.55832C41.8737 3.72068 42.2328 3.85106 42.2673 3.91748C42.2353 3.9839 42.1689 4.04786 41.9401 3.91748C41.9401 3.91748 40.993 4.83014 40.4395 5.0909C39.8516 5.35166 40.4075 4.96052 40.4075 4.96052C40.6683 4.86212 41.8097 3.88304 41.8097 3.7871C41.7777 3.72068 41.7113 3.5903 41.7113 3.49436C41.549 3.42794 41.2218 3.52634 41.0914 3.62474C41.1578 3.91748 41.6793 5.3861 41.2882 7.60502L41.2242 7.54106C41.5834 5.38856 40.9955 3.65918 40.9955 3.65918C40.6707 3.78956 40.442 3.69116 40.2771 3.7256C40.2107 5.06384 41.2882 5.25818 40.8971 7.01954C39.7556 6.82274 38.9414 5.42054 38.287 5.55092C38.255 5.32214 38.0262 4.931 38.255 4.80062C38.1911 4.60382 38.1246 4.34306 38.4174 4.1807C38.319 3.91994 38.287 3.69116 38.5797 3.49682C38.5133 3.33446 38.5478 2.9753 38.9045 2.90888C38.9364 2.61614 39.0668 2.38736 39.3276 2.28896C39.0348 2.15858 38.9684 1.86584 38.9684 1.86584C39.2292 2.0282 39.458 2.1266 39.8491 2.06264L40.314 2.38982ZM29.2219 26.7881L29.1899 24.9603C29.1899 24.4068 28.8308 23.8189 28.3412 23.4917C28.2428 23.4597 28.0805 23.3933 27.9501 23.3933C28.0805 23.3933 28.2428 23.3933 28.4076 23.3269C28.8972 23.0981 29.4851 22.4782 29.4851 21.4032C29.4851 20.5864 29.1579 19.969 28.5725 19.5434C28.019 19.1523 27.399 19.0539 26.7447 19.0539H21.7214V20.3577H22.8628V26.7832H21.7214V28.055H25.3105V26.7832H24.1691V23.9493H26.6487C27.4974 23.9812 27.8222 24.5372 27.8222 24.9923L27.9206 28.0575H30.3658V26.7856L29.2219 26.7881ZM26.907 22.7094H24.1666V20.3601H26.7447C27.0374 20.3601 27.3646 20.3601 27.6254 20.4585C27.9525 20.6209 28.2453 20.98 28.2453 21.5335C28.2453 22.2223 27.6254 22.7094 26.907 22.7094ZM21.2638 31.2555C22.4372 31.2555 22.9587 31.9074 22.9587 32.7241C22.9587 33.5408 22.4052 34.1583 21.1654 34.1583H20.3167V36.4092H19.5664V31.2555H21.2638ZM20.3167 33.5064H21.2318C21.7853 33.5064 22.1765 33.2112 22.1765 32.6896C22.1765 32.2985 21.9477 31.9074 21.2638 31.9074H20.3167V33.5064ZM28.7988 36.4092H27.9821L27.3302 34.8766H25.0793L24.4593 36.4092H23.6426L25.9255 31.2235H26.447L28.7988 36.4092ZM25.3745 34.1927H27.0374L26.1567 32.1706L25.3745 34.1927ZM37.3768 36.4092H36.6265V31.2555H37.3768V36.4092ZM42.7593 32.3649C42.2697 31.9738 41.8122 31.8434 41.421 31.8434C40.9315 31.8434 40.5404 32.0722 40.5404 32.4313C40.5404 33.4424 42.9536 33.4104 42.9536 35.0734C42.9536 35.8557 42.3017 36.4436 41.3866 36.4436C40.7987 36.4436 40.2771 36.3132 39.822 35.9885V35.0414C40.2452 35.5309 40.7691 35.7917 41.3226 35.7917C41.9426 35.7917 42.2353 35.4325 42.2353 35.1398C42.2353 34.0968 39.7876 33.9639 39.7876 32.5642C39.7876 31.7155 40.4739 31.194 41.4825 31.194C41.9401 31.194 42.3312 31.2924 42.7544 31.5531L42.7593 32.3649ZM34.2132 35.7892C34.1148 35.6589 34.0164 35.5285 33.9205 35.3661C33.5294 34.7142 33.2022 34.2567 32.7126 33.9639C33.3006 33.7351 33.6253 33.28 33.6253 32.6921C33.6253 31.8114 32.939 31.2579 31.832 31.2579H30.4937V36.4116H31.276V34.1607H31.6032C31.9943 34.1607 32.3215 34.2911 33.0054 35.3366L33.7237 36.4116H34.6044L34.2132 35.7892ZM31.768 33.5064H31.2785V31.8754H31.768C32.5183 31.8754 32.811 32.1681 32.811 32.6577C32.843 33.0832 32.6142 33.5064 31.768 33.5064Z" fill="#1B1B1B" fill-opacity="0.55"/>
</svg>
