<svg width="55" height="28" viewBox="0 0 55 28" fill="none" xmlns="http://www.w3.org/2000/svg">
<g clip-path="url(#clip0_18951_2187)">
<path d="M16.5827 14.7979L21.8572 0.583618H18.3707L15.9569 6.75209L16.4933 0.583618H12.828L7.5535 14.7979H10.9506L13.5432 7.91427L13.0962 14.6191L16.5827 14.7979ZM20.695 14.7979L25.9695 0.583618H22.6618L17.2979 14.7979H20.695ZM30.2606 13.904L30.0818 6.75209L35.0881 0.941211L30.2606 13.904ZM54.577 8.89765L37.5913 13.2782L38.0383 11.9372H34.4624L35.6245 8.54006H38.6641L39.5581 5.94751L36.5185 6.12631L37.5913 3.26556H40.5414L41.5248 0.673016H31.9592L28.4727 4.78533L30.1712 0.583618H26.7741L21.4996 14.7979H24.9861L27.2211 8.71885V14.7979H31.691L15.6887 18.9996C14.0199 19.4764 12.5299 19.6851 11.2188 19.6254C9.90762 19.5658 8.89447 19.2082 8.17929 18.5527C6.57012 17.3607 6.00387 15.5429 6.48072 13.0994C6.77868 11.4902 7.43424 9.94066 8.44748 8.45066C6.0635 10.9538 4.30531 13.0696 3.17299 14.7979C1.92141 16.6455 1.11683 18.4633 0.759236 20.2512C0.401643 22.0392 0.610209 23.4993 1.38502 24.6317C3.47095 28.0885 8.03026 28.3268 15.0629 25.3469L54.577 8.89765Z" fill="#1B1B1B" fill-opacity="0.55"/>
</g>
<defs>
<clipPath id="clip0_18951_2187">
<rect width="53.9871" height="26.8327" fill="white" transform="translate(0.589844 0.583618)"/>
</clipPath>
</defs>
</svg>
