<svg width="75" height="31" viewBox="0 0 75 31" fill="none" xmlns="http://www.w3.org/2000/svg">
<path fill-rule="evenodd" clip-rule="evenodd" d="M22.7029 6.65306C27.3391 0.0954967 37.1638 -1.46889 43.7222 2.99401C42.623 4.62793 41.598 6.31559 40.536 7.97641C37.3282 5.64591 32.6921 5.58167 29.5111 7.99254C25.7034 10.6016 24.4234 16.2431 26.9408 20.186C29.6013 24.8364 36.3989 26.2884 40.5572 22.8113C44.11 20.186 44.0886 15.3913 45.2729 11.5178C46.6962 6.63709 50.6155 2.4582 55.5223 1.09204C59.9409 -0.156304 64.9434 0.438432 68.7617 3.09044C67.6838 4.73514 66.6641 6.41203 65.618 8.07285C63.345 6.42815 60.3338 5.77454 57.6201 6.55132C53.5735 7.58007 50.6207 11.7268 50.9075 15.9216C51.0031 20.5826 55.0444 24.7883 59.7178 24.7828C63.5467 24.9971 66.8977 22.1147 68.0235 18.5414C65.0602 18.5039 62.1023 18.5575 59.1443 18.5145C60.1479 16.5858 61.4225 14.8233 62.5643 12.9804C66.4411 12.9963 70.3231 12.9321 74.1997 13.0232C74.9327 18.4236 72.9094 24.2151 68.5281 27.5206C62.1288 32.6799 51.7997 30.9277 47.2485 24.1185C44.8162 27.4831 41.0616 29.9046 36.9354 30.3762C32.0391 31.1262 26.9143 29.2512 23.5578 25.5971C21.9489 28.0725 19.1925 29.8027 16.2185 29.8404C11.0356 29.9634 5.83631 30.0225 0.65332 29.8188C0.70101 20.2451 0.685078 10.6766 0.663835 1.10281C5.32671 1.08674 9.98915 1.06531 14.6519 1.10817C18.0826 1.17792 21.5663 3.28861 22.7029 6.65306ZM6.86131 6.51382C6.9304 8.57115 6.9039 10.6285 6.89849 12.6911C9.29877 12.6803 11.6994 12.7339 14.0997 12.6803C15.7511 12.7339 17.2647 11.1855 17.1267 9.51407C17.185 7.87998 15.6981 6.40672 14.0892 6.46019C11.678 6.41738 9.26702 6.41203 6.86131 6.51382ZM6.91989 17.9681C6.88797 20.1702 6.89339 22.3668 6.91989 24.5685C9.65995 24.5472 12.4003 24.6007 15.1352 24.5631C16.7656 24.6541 18.428 23.4861 18.672 21.8198C19.0811 19.9608 17.5091 18.1018 15.6664 18.027C12.7562 17.9197 9.83531 18.0485 6.91989 17.9681Z" fill="#1B1B1B" fill-opacity="0.55"/>
</svg>
