<?xml version="1.0" encoding="UTF-8"?> <svg xmlns="http://www.w3.org/2000/svg" width="101" height="112" viewBox="0 0 101 112" fill="none"><rect width="101" height="112" fill="#F5F5F5"></rect><g id="eloomi Frontpage (New Design)" clip-path="url(#clip0_15365_2895)"><rect width="1920" height="11283" transform="translate(-369 -6830)" fill="white"></rect><g id="Testemonial + Customer Reviews + Review Badges"><g id="Review Badges"><g id="G2 Badge Easiest To Do Business With Small Business Spring 2024" clip-path="url(#clip1_15365_2895)"><path id="Vector" d="M9.07227 86.86L51.2056 108.3L91.7389 86.86V3.02002H9.07227V86.86Z" fill="white"></path><path id="Vector_2" d="M92.594 3.34033L8.2207 88.3537L51.954 110.007L92.594 89.207V3.34033Z" fill="#F2F3F2"></path><path id="Vector_3" d="M6.30078 30.9666V88.6732L7.79411 89.4199L49.9274 110.86L51.2074 111.5L52.4874 110.86L93.1274 89.4199L94.6208 88.6732V0.246582H6.30078V30.9666ZM9.07411 87.0732V3.01992H91.8474V87.0732L51.2074 108.513L9.07411 87.0732Z" fill="#DCDEDC"></path><path id="Vector_4" d="M50.4607 4.40707C50.8874 4.40707 51.314 4.40707 51.7407 4.51374L50.4607 6.96707C48.5407 6.8604 46.834 8.35374 46.7274 10.2737C46.6207 12.1937 48.114 13.9004 50.034 14.0071H50.4607C51.314 14.0071 52.1674 13.6871 52.8074 13.1537L54.194 15.5004C53.1274 16.2471 51.8474 16.6737 50.4607 16.6737C47.0474 16.7804 44.1674 14.2204 44.0607 10.8071C43.954 7.39374 46.514 4.51374 49.9274 4.40707H50.4607ZM54.834 9.63374L56.434 12.3004L54.834 14.8604L53.3407 12.3004H50.2474L51.8474 9.63374H54.834ZM52.274 8.67374C52.274 8.24707 52.3807 7.8204 52.594 7.5004C52.8074 7.1804 53.234 6.8604 53.554 6.64707L53.7674 6.5404C54.194 6.32707 54.3007 6.2204 54.3007 6.00707C54.3007 5.79374 53.9807 5.5804 53.7674 5.5804C53.3407 5.5804 53.0207 5.79374 52.8074 6.2204L52.274 5.68707C52.3807 5.47374 52.594 5.2604 52.8074 5.04707C53.1274 4.83374 53.4474 4.83374 53.7674 4.83374C54.0874 4.83374 54.514 4.9404 54.7274 5.15374C54.9407 5.36707 55.154 5.68707 55.154 6.00707C55.154 6.5404 54.834 6.96707 54.194 7.1804L53.874 7.39374C53.554 7.60707 53.3407 7.71374 53.234 8.03374H55.154V8.78041L52.274 8.67374ZM50.4607 22.0071L60.594 16.2471V0.24707H40.2207V16.1404L50.4607 22.0071Z" fill="#FF492C"></path><path id="Vector_5" d="M96.648 59.7666H4.27466L0.861328 67.2333L4.27466 74.6999H96.648L99.9547 67.2333L96.648 59.7666Z" fill="#23CCA2"></path><path id="Vector_6" d="M19.0348 50.6898C18.985 50.7111 18.985 50.7325 19.0348 50.7538C19.7744 51.1378 20.1442 51.7742 20.1442 52.6631C20.1442 53.424 19.8846 54 19.3655 54.3911C18.8535 54.7751 18.1779 54.9671 17.3388 54.9671H14.2988C14.2633 54.9671 14.2313 54.9529 14.2028 54.9245C14.1744 54.896 14.1602 54.864 14.1602 54.8285V46.8925C14.1602 46.8569 14.1744 46.8249 14.2028 46.7965C14.2313 46.768 14.2633 46.7538 14.2988 46.7538H17.2428C19.0988 46.7538 20.0268 47.504 20.0268 49.0045C20.0268 49.7867 19.6962 50.3485 19.0348 50.6898ZM15.8775 48.1725C15.8348 48.1725 15.8135 48.1938 15.8135 48.2365V50.0605C15.8135 50.1031 15.8348 50.1245 15.8775 50.1245H17.2428C17.6126 50.1245 17.9006 50.0356 18.1068 49.8578C18.3059 49.6871 18.4055 49.456 18.4055 49.1645C18.4055 48.8587 18.3059 48.6169 18.1068 48.4391C17.9006 48.2613 17.6126 48.1725 17.2428 48.1725H15.8775ZM17.3388 53.5378C17.7015 53.5378 17.9824 53.4453 18.1815 53.2605C18.3877 53.0756 18.4908 52.8231 18.4908 52.5031C18.4908 52.1831 18.3877 51.9307 18.1815 51.7458C17.9824 51.5609 17.6979 51.4685 17.3282 51.4685H15.8775C15.8348 51.4685 15.8135 51.4898 15.8135 51.5325V53.4738C15.8135 53.5165 15.8348 53.5378 15.8775 53.5378H17.3388ZM24.7842 49.0791C24.7842 49.0365 24.7948 49.0009 24.8162 48.9725C24.8446 48.9511 24.8802 48.9405 24.9228 48.9405H26.2882C26.3308 48.9405 26.3664 48.9511 26.3948 48.9725C26.4233 49.0009 26.4375 49.0365 26.4375 49.0791V54.8285C26.4375 54.864 26.4233 54.896 26.3948 54.9245C26.3664 54.9529 26.3308 54.9671 26.2882 54.9671H24.9228C24.8802 54.9671 24.8446 54.9529 24.8162 54.9245C24.7948 54.896 24.7842 54.864 24.7842 54.8285V54.4231C24.7842 54.4018 24.7735 54.3911 24.7522 54.3911C24.7379 54.384 24.7237 54.3911 24.7095 54.4125C24.3966 54.8391 23.913 55.0525 23.2588 55.0525C22.6615 55.0525 22.1708 54.8711 21.7868 54.5085C21.4028 54.1529 21.2108 53.648 21.2108 52.9938V49.0791C21.2108 49.0365 21.225 49.0009 21.2535 48.9725C21.2819 48.9511 21.3139 48.9405 21.3495 48.9405H22.7148C22.7504 48.9405 22.7824 48.9511 22.8108 48.9725C22.8393 49.0009 22.8535 49.0365 22.8535 49.0791V52.5885C22.8535 52.9013 22.9388 53.1538 23.1095 53.3458C23.273 53.5449 23.5042 53.6445 23.8028 53.6445C24.073 53.6445 24.2935 53.5627 24.4642 53.3991C24.6348 53.2427 24.7415 53.0329 24.7842 52.7698V49.0791ZM30.0642 55.0525C29.5379 55.0525 29.0793 54.9778 28.6882 54.8285C28.297 54.6791 27.9948 54.4729 27.7815 54.2098C27.561 53.9396 27.4508 53.6373 27.4508 53.3031V53.1858C27.4508 53.1431 27.465 53.1076 27.4935 53.0791C27.5219 53.0578 27.5575 53.0471 27.6002 53.0471H28.9015C28.937 53.0471 28.969 53.0578 28.9975 53.0791C29.0259 53.1076 29.0402 53.1431 29.0402 53.1858V53.1965C29.0402 53.3671 29.1362 53.5129 29.3282 53.6338C29.5202 53.7547 29.7584 53.8151 30.0428 53.8151C30.313 53.8151 30.5299 53.7618 30.6935 53.6551C30.857 53.5485 30.9388 53.4205 30.9388 53.2711C30.9388 53.1289 30.8677 53.0222 30.7255 52.9511C30.5833 52.88 30.3522 52.8053 30.0322 52.7271C29.6695 52.6347 29.3815 52.5458 29.1682 52.4605C28.6704 52.2827 28.2722 52.0693 27.9735 51.8205C27.6748 51.5716 27.5255 51.2125 27.5255 50.7431C27.5255 50.1671 27.7495 49.7085 28.1975 49.3671C28.6455 49.0258 29.2428 48.8551 29.9895 48.8551C30.4873 48.8551 30.9246 48.9333 31.3015 49.0898C31.6784 49.2533 31.9699 49.4809 32.1762 49.7725C32.3824 50.0569 32.4855 50.384 32.4855 50.7538C32.4855 50.7965 32.4713 50.8285 32.4428 50.8498C32.4215 50.8782 32.3895 50.8925 32.3468 50.8925H31.0882C31.0526 50.8925 31.0206 50.8782 30.9922 50.8498C30.9637 50.8285 30.9495 50.7965 30.9495 50.7538C30.9495 50.5831 30.8606 50.4373 30.6828 50.3165C30.5122 50.2027 30.281 50.1458 29.9895 50.1458C29.7335 50.1458 29.5237 50.192 29.3602 50.2845C29.1895 50.3769 29.1042 50.5049 29.1042 50.6685C29.1042 50.8249 29.1859 50.9422 29.3495 51.0205C29.513 51.0987 29.7797 51.184 30.1495 51.2765L30.4482 51.3511L30.8002 51.4471C31.3548 51.6107 31.7922 51.8205 32.1122 52.0765C32.4322 52.3396 32.5922 52.7165 32.5922 53.2071C32.5922 53.7831 32.3646 54.2347 31.9095 54.5618C31.4473 54.8889 30.8322 55.0525 30.0642 55.0525ZM34.4375 48.2578C34.1673 48.2578 33.9468 48.1689 33.7762 47.9911C33.5984 47.8133 33.5095 47.5929 33.5095 47.3298C33.5095 47.0525 33.5948 46.8285 33.7655 46.6578C33.9362 46.4871 34.1602 46.4018 34.4375 46.4018C34.7077 46.4018 34.9317 46.4871 35.1095 46.6578C35.2802 46.8285 35.3655 47.0525 35.3655 47.3298C35.3655 47.5929 35.2766 47.8133 35.0988 47.9911C34.921 48.1689 34.7006 48.2578 34.4375 48.2578ZM33.7335 54.9671C33.6908 54.9671 33.6588 54.9529 33.6375 54.9245C33.609 54.896 33.5948 54.864 33.5948 54.8285V49.0685C33.5948 49.0258 33.609 48.9902 33.6375 48.9618C33.6588 48.9333 33.6908 48.9191 33.7335 48.9191H35.1095C35.145 48.9191 35.177 48.9333 35.2055 48.9618C35.2339 48.9902 35.2482 49.0258 35.2482 49.0685V54.8285C35.2482 54.864 35.2339 54.896 35.2055 54.9245C35.177 54.9529 35.145 54.9671 35.1095 54.9671H33.7335ZM39.6855 48.8445C40.3113 48.8445 40.8126 49.0365 41.1895 49.4205C41.5735 49.8045 41.7655 50.3236 41.7655 50.9778V54.8285C41.7655 54.864 41.7548 54.896 41.7335 54.9245C41.705 54.9529 41.6695 54.9671 41.6268 54.9671H40.2508C40.2153 54.9671 40.1833 54.9529 40.1548 54.9245C40.1264 54.896 40.1122 54.864 40.1122 54.8285V51.3191C40.1122 51.0062 40.0268 50.7502 39.8562 50.5511C39.6784 50.3591 39.4437 50.2631 39.1522 50.2631C38.8606 50.2631 38.6295 50.3591 38.4588 50.5511C38.281 50.7502 38.1922 51.0062 38.1922 51.3191V54.8285C38.1922 54.864 38.1779 54.896 38.1495 54.9245C38.121 54.9529 38.089 54.9671 38.0535 54.9671H36.6775C36.6348 54.9671 36.6028 54.9529 36.5815 54.9245C36.553 54.896 36.5388 54.864 36.5388 54.8285V49.0791C36.5388 49.0365 36.553 49.0009 36.5815 48.9725C36.6028 48.9511 36.6348 48.9405 36.6775 48.9405H38.0535C38.089 48.9405 38.121 48.9511 38.1495 48.9725C38.1779 49.0009 38.1922 49.0365 38.1922 49.0791V49.4845C38.1922 49.5129 38.1993 49.5307 38.2135 49.5378C38.2277 49.5449 38.2384 49.5413 38.2455 49.5271C38.5655 49.072 39.0455 48.8445 39.6855 48.8445ZM48.2615 51.3298C48.3042 51.6285 48.3184 51.9627 48.3042 52.3325C48.2971 52.4249 48.2473 52.4711 48.1548 52.4711H44.5282C44.4784 52.4711 44.4606 52.4889 44.4748 52.5245C44.5033 52.6809 44.5495 52.8373 44.6135 52.9938C44.8126 53.4347 45.225 53.6551 45.8508 53.6551C46.3557 53.648 46.7504 53.4453 47.0348 53.0471C47.0704 52.9973 47.1059 52.9725 47.1415 52.9725C47.1628 52.9725 47.1913 52.9867 47.2268 53.0151L48.0695 53.8578C48.1122 53.8933 48.1335 53.9253 48.1335 53.9538C48.1335 53.9751 48.1157 54.0071 48.0802 54.0498C47.8242 54.3698 47.4935 54.6187 47.0882 54.7965C46.6757 54.9742 46.2277 55.0631 45.7442 55.0631C45.0757 55.0631 44.5068 54.9102 44.0375 54.6045C43.5753 54.2987 43.241 53.872 43.0348 53.3245C42.8713 52.9333 42.7895 52.4213 42.7895 51.7885C42.7895 51.3547 42.8499 50.9742 42.9708 50.6471C43.1486 50.0925 43.4615 49.6516 43.9095 49.3245C44.3575 48.9973 44.8908 48.8338 45.5095 48.8338C46.2917 48.8338 46.921 49.0613 47.3975 49.5165C47.8668 49.9645 48.1548 50.5689 48.2615 51.3298ZM45.5202 50.2631C45.0295 50.2631 44.7059 50.4942 44.5495 50.9565C44.521 51.056 44.4926 51.1805 44.4642 51.3298C44.4642 51.3725 44.4855 51.3938 44.5282 51.3938H46.5548C46.6046 51.3938 46.6224 51.3725 46.6082 51.3298C46.5655 51.1022 46.5442 50.992 46.5442 50.9991C46.473 50.7645 46.3486 50.5831 46.1708 50.4551C46.0002 50.3271 45.7833 50.2631 45.5202 50.2631ZM51.6535 55.0525C51.1273 55.0525 50.6686 54.9778 50.2775 54.8285C49.8864 54.6791 49.5842 54.4729 49.3708 54.2098C49.1504 53.9396 49.0402 53.6373 49.0402 53.3031V53.1858C49.0402 53.1431 49.0544 53.1076 49.0828 53.0791C49.1113 53.0578 49.1468 53.0471 49.1895 53.0471H50.4908C50.5264 53.0471 50.5584 53.0578 50.5868 53.0791C50.6153 53.1076 50.6295 53.1431 50.6295 53.1858V53.1965C50.6295 53.3671 50.7255 53.5129 50.9175 53.6338C51.1095 53.7547 51.3477 53.8151 51.6322 53.8151C51.9024 53.8151 52.1193 53.7618 52.2828 53.6551C52.4464 53.5485 52.5282 53.4205 52.5282 53.2711C52.5282 53.1289 52.457 53.0222 52.3148 52.9511C52.1726 52.88 51.9415 52.8053 51.6215 52.7271C51.2588 52.6347 50.9708 52.5458 50.7575 52.4605C50.2597 52.2827 49.8615 52.0693 49.5628 51.8205C49.2642 51.5716 49.1148 51.2125 49.1148 50.7431C49.1148 50.1671 49.3388 49.7085 49.7868 49.3671C50.2348 49.0258 50.8322 48.8551 51.5788 48.8551C52.0766 48.8551 52.5139 48.9333 52.8908 49.0898C53.2677 49.2533 53.5593 49.4809 53.7655 49.7725C53.9717 50.0569 54.0748 50.384 54.0748 50.7538C54.0748 50.7965 54.0606 50.8285 54.0322 50.8498C54.0108 50.8782 53.9788 50.8925 53.9362 50.8925H52.6775C52.6419 50.8925 52.6099 50.8782 52.5815 50.8498C52.553 50.8285 52.5388 50.7965 52.5388 50.7538C52.5388 50.5831 52.4499 50.4373 52.2722 50.3165C52.1015 50.2027 51.8704 50.1458 51.5788 50.1458C51.3228 50.1458 51.113 50.192 50.9495 50.2845C50.7788 50.3769 50.6935 50.5049 50.6935 50.6685C50.6935 50.8249 50.7753 50.9422 50.9388 51.0205C51.1024 51.0987 51.369 51.184 51.7388 51.2765L52.0375 51.3511L52.3895 51.4471C52.9442 51.6107 53.3815 51.8205 53.7015 52.0765C54.0215 52.3396 54.1815 52.7165 54.1815 53.2071C54.1815 53.7831 53.9539 54.2347 53.4988 54.5618C53.0366 54.8889 52.4215 55.0525 51.6535 55.0525ZM57.4562 55.0525C56.9299 55.0525 56.4713 54.9778 56.0802 54.8285C55.689 54.6791 55.3868 54.4729 55.1735 54.2098C54.9602 53.9396 54.8535 53.6373 54.8535 53.3031V53.1858C54.8535 53.1431 54.8677 53.1076 54.8962 53.0791C54.9246 53.0578 54.9566 53.0471 54.9922 53.0471H56.2935C56.3362 53.0471 56.3717 53.0578 56.4002 53.0791C56.4215 53.1076 56.4322 53.1431 56.4322 53.1858V53.1965C56.4322 53.3671 56.5282 53.5129 56.7202 53.6338C56.9122 53.7547 57.1539 53.8151 57.4455 53.8151C57.7086 53.8151 57.9219 53.7618 58.0855 53.6551C58.2562 53.5485 58.3415 53.4205 58.3415 53.2711C58.3415 53.1289 58.2704 53.0222 58.1282 52.9511C57.9859 52.88 57.7548 52.8053 57.4348 52.7271C57.065 52.6347 56.7735 52.5458 56.5602 52.4605C56.0624 52.2827 55.6642 52.0693 55.3655 51.8205C55.0668 51.5716 54.9175 51.2125 54.9175 50.7431C54.9175 50.1671 55.1451 49.7085 55.6002 49.3671C56.0482 49.0258 56.6455 48.8551 57.3922 48.8551C57.8899 48.8551 58.3273 48.9333 58.7042 49.0898C59.0739 49.2533 59.3655 49.4809 59.5788 49.7725C59.785 50.0569 59.8882 50.384 59.8882 50.7538C59.8882 50.7965 59.8739 50.8285 59.8455 50.8498C59.8171 50.8782 59.785 50.8925 59.7495 50.8925H58.4908C58.4482 50.8925 58.4162 50.8782 58.3948 50.8498C58.3664 50.8285 58.3522 50.7965 58.3522 50.7538C58.3522 50.5831 58.2633 50.4373 58.0855 50.3165C57.9077 50.2027 57.6766 50.1458 57.3922 50.1458C57.1291 50.1458 56.9157 50.192 56.7522 50.2845C56.5886 50.3769 56.5068 50.5049 56.5068 50.6685C56.5068 50.8249 56.5886 50.9422 56.7522 51.0205C56.9086 51.0987 57.1753 51.184 57.5522 51.2765C57.6375 51.2978 57.7335 51.3227 57.8402 51.3511C57.9539 51.3796 58.0713 51.4116 58.1922 51.4471C58.7468 51.6107 59.1877 51.8205 59.5148 52.0765C59.8348 52.3396 59.9948 52.7165 59.9948 53.2071C59.9948 53.7831 59.7637 54.2347 59.3015 54.5618C58.8464 54.8889 58.2313 55.0525 57.4562 55.0525ZM65.2108 54.9671C65.1255 54.9671 65.0722 54.928 65.0508 54.8498L62.9708 46.9031L62.9602 46.8605C62.9602 46.7893 63.0028 46.7538 63.0882 46.7538H64.5495C64.6277 46.7538 64.6775 46.7929 64.6988 46.8711L65.8082 51.6498C65.8153 51.6782 65.8295 51.6925 65.8508 51.6925C65.8651 51.6925 65.8757 51.6782 65.8828 51.6498L66.9602 46.8818C66.9815 46.7965 67.0313 46.7538 67.1095 46.7538H68.5282C68.6206 46.7538 68.6775 46.7929 68.6988 46.8711L69.8722 51.6498C69.8793 51.6711 69.8899 51.6853 69.9042 51.6925C69.9184 51.6925 69.9291 51.6782 69.9362 51.6498L71.0242 46.8818C71.0455 46.7965 71.0953 46.7538 71.1735 46.7538H72.5602C72.6668 46.7538 72.7095 46.8036 72.6882 46.9031L70.7575 54.8498C70.7362 54.928 70.6828 54.9671 70.5975 54.9671H69.2002C69.1219 54.9671 69.0722 54.928 69.0508 54.8498L67.8562 49.7725C67.849 49.7369 67.8348 49.7191 67.8135 49.7191C67.7993 49.7191 67.7886 49.7369 67.7815 49.7725L66.6722 54.8391C66.6508 54.9245 66.5975 54.9671 66.5122 54.9671H65.2108ZM74.4695 48.2578C74.2064 48.2578 73.9859 48.1689 73.8082 47.9911C73.6304 47.8133 73.5415 47.5929 73.5415 47.3298C73.5415 47.0525 73.6268 46.8285 73.7975 46.6578C73.9753 46.4871 74.1993 46.4018 74.4695 46.4018C74.7468 46.4018 74.9708 46.4871 75.1415 46.6578C75.3122 46.8285 75.3975 47.0525 75.3975 47.3298C75.3975 47.5929 75.3086 47.8133 75.1308 47.9911C74.953 48.1689 74.7326 48.2578 74.4695 48.2578ZM73.7655 54.9671C73.7299 54.9671 73.6979 54.9529 73.6695 54.9245C73.6411 54.896 73.6268 54.864 73.6268 54.8285V49.0685C73.6268 49.0258 73.6411 48.9902 73.6695 48.9618C73.6979 48.9333 73.7299 48.9191 73.7655 48.9191H75.1415C75.1771 48.9191 75.209 48.9333 75.2375 48.9618C75.2659 48.9902 75.2802 49.0258 75.2802 49.0685V54.8285C75.2802 54.864 75.2659 54.896 75.2375 54.9245C75.209 54.9529 75.1771 54.9671 75.1415 54.9671H73.7655ZM80.0268 50.1245C80.0268 50.16 80.0162 50.192 79.9948 50.2205C79.9664 50.2489 79.9308 50.2631 79.8882 50.2631H78.7682C78.7255 50.2631 78.7042 50.2809 78.7042 50.3165V52.8125C78.7042 53.0685 78.7575 53.2605 78.8642 53.3885C78.9708 53.5093 79.1415 53.5698 79.3762 53.5698H79.7602C79.8028 53.5698 79.8384 53.584 79.8668 53.6125C79.8882 53.6409 79.8988 53.6729 79.8988 53.7085V54.8285C79.8988 54.9138 79.8526 54.9636 79.7602 54.9778C79.4331 54.992 79.1984 54.9991 79.0562 54.9991C78.409 54.9991 77.9255 54.8925 77.6055 54.6791C77.2855 54.4658 77.1219 54.0605 77.1148 53.4631V50.3165C77.1148 50.2809 77.0935 50.2631 77.0508 50.2631H76.3788C76.3433 50.2631 76.3113 50.2489 76.2828 50.2205C76.2544 50.192 76.2402 50.16 76.2402 50.1245V49.0791C76.2402 49.0365 76.2544 49.0009 76.2828 48.9725C76.3113 48.9511 76.3433 48.9405 76.3788 48.9405H77.0508C77.0935 48.9405 77.1148 48.9191 77.1148 48.8765V47.4791C77.1148 47.4436 77.1255 47.4116 77.1468 47.3831C77.1753 47.3547 77.2108 47.3405 77.2535 47.3405H78.5655C78.6011 47.3405 78.633 47.3547 78.6615 47.3831C78.6899 47.4116 78.7042 47.4436 78.7042 47.4791V48.8765C78.7042 48.9191 78.7255 48.9405 78.7682 48.9405H79.8882C79.9308 48.9405 79.9664 48.9511 79.9948 48.9725C80.0162 49.0009 80.0268 49.0365 80.0268 49.0791V50.1245ZM84.1762 48.8445C84.8019 48.8445 85.3068 49.0365 85.6908 49.4205C86.0748 49.8045 86.2668 50.3236 86.2668 50.9778V54.8285C86.2668 54.864 86.2526 54.896 86.2242 54.9245C86.1957 54.9529 86.1602 54.9671 86.1175 54.9671H84.7522C84.7095 54.9671 84.6739 54.9529 84.6455 54.9245C84.6242 54.896 84.6135 54.864 84.6135 54.8285V51.3191C84.6135 51.0062 84.5246 50.7502 84.3468 50.5511C84.169 50.3591 83.9344 50.2631 83.6428 50.2631C83.3584 50.2631 83.1273 50.3591 82.9495 50.5511C82.7717 50.7502 82.6828 51.0062 82.6828 51.3191V54.8285C82.6828 54.864 82.6686 54.896 82.6402 54.9245C82.6117 54.9529 82.5797 54.9671 82.5442 54.9671H81.1682C81.1326 54.9671 81.1006 54.9529 81.0722 54.9245C81.0437 54.896 81.0295 54.864 81.0295 54.8285V46.8925C81.0295 46.8569 81.0437 46.8249 81.0722 46.7965C81.1006 46.768 81.1326 46.7538 81.1682 46.7538H82.5442C82.5797 46.7538 82.6117 46.768 82.6402 46.7965C82.6686 46.8249 82.6828 46.8569 82.6828 46.8925V49.4845C82.6828 49.5129 82.6899 49.5307 82.7042 49.5378C82.7184 49.5449 82.7326 49.5413 82.7468 49.5271C83.0668 49.072 83.5433 48.8445 84.1762 48.8445ZM21.7548 36.3005C21.7548 36.336 21.7406 36.368 21.7122 36.3965C21.6837 36.4249 21.6482 36.4391 21.6055 36.4391H17.7655C17.7228 36.4391 17.7015 36.4605 17.7015 36.5031V38.3165C17.7015 38.3591 17.7228 38.3805 17.7655 38.3805H20.2828C20.3255 38.3805 20.361 38.3911 20.3895 38.4125C20.4108 38.4409 20.4215 38.4765 20.4215 38.5191V39.6605C20.4215 39.696 20.4108 39.728 20.3895 39.7565C20.361 39.7849 20.3255 39.7991 20.2828 39.7991H17.7655C17.7228 39.7991 17.7015 39.8169 17.7015 39.8525V41.7511C17.7015 41.7938 17.7228 41.8151 17.7655 41.8151H21.6055C21.6482 41.8151 21.6837 41.8293 21.7122 41.8578C21.7406 41.8862 21.7548 41.9182 21.7548 41.9538V43.0951C21.7548 43.1307 21.7406 43.1627 21.7122 43.1911C21.6837 43.2196 21.6482 43.2338 21.6055 43.2338H16.1868C16.1513 43.2338 16.1193 43.2196 16.0908 43.1911C16.0624 43.1627 16.0482 43.1307 16.0482 43.0951V35.1591C16.0482 35.1236 16.0624 35.0916 16.0908 35.0631C16.1193 35.0347 16.1513 35.0205 16.1868 35.0205H21.6055C21.6482 35.0205 21.6837 35.0347 21.7122 35.0631C21.7406 35.0916 21.7548 35.1236 21.7548 35.1591V36.3005ZM25.2002 37.1111C25.7122 37.1111 26.1673 37.2 26.5655 37.3778C26.9637 37.5485 27.273 37.7867 27.4935 38.0925C27.7139 38.3982 27.8242 38.7396 27.8242 39.1165V43.0951C27.8242 43.1307 27.8135 43.1627 27.7922 43.1911C27.7637 43.2196 27.7282 43.2338 27.6855 43.2338H26.3202C26.2775 43.2338 26.2419 43.2196 26.2135 43.1911C26.185 43.1627 26.1708 43.1307 26.1708 43.0951V42.7111C26.1708 42.6827 26.1637 42.6649 26.1495 42.6578C26.1353 42.6507 26.121 42.6578 26.1068 42.6791C25.7797 43.1129 25.2499 43.3298 24.5175 43.3298C23.9059 43.3298 23.4153 43.1805 23.0455 42.8818C22.6686 42.5831 22.4802 42.1458 22.4802 41.5698C22.4802 40.9653 22.6899 40.496 23.1095 40.1618C23.5362 39.8347 24.1406 39.6711 24.9228 39.6711H26.1175C26.153 39.6711 26.1708 39.6498 26.1708 39.6071V39.3511C26.1708 39.0951 26.0926 38.8925 25.9362 38.7431C25.7797 38.6009 25.545 38.5298 25.2322 38.5298C24.9904 38.5298 24.7913 38.5725 24.6348 38.6578C24.4713 38.7431 24.3682 38.864 24.3255 39.0205C24.297 39.1058 24.2437 39.1449 24.1655 39.1378L22.7468 38.9565C22.6544 38.9351 22.6117 38.8996 22.6188 38.8498C22.6473 38.5156 22.7788 38.2169 23.0135 37.9538C23.241 37.6907 23.5468 37.4845 23.9308 37.3351C24.3077 37.1858 24.7308 37.1111 25.2002 37.1111ZM24.9655 42.0925C25.2997 42.0925 25.5842 42.0036 25.8188 41.8258C26.0535 41.648 26.1708 41.4169 26.1708 41.1325V40.7165C26.1708 40.6738 26.153 40.6525 26.1175 40.6525H25.2748C24.9193 40.6525 24.6419 40.72 24.4428 40.8551C24.2437 40.9831 24.1442 41.1716 24.1442 41.4205C24.1442 41.6267 24.2188 41.7902 24.3682 41.9111C24.5175 42.032 24.7166 42.0925 24.9655 42.0925ZM31.3975 43.3191C30.8713 43.3191 30.4126 43.2445 30.0215 43.0951C29.6304 42.9458 29.3282 42.7396 29.1148 42.4765C28.9015 42.2062 28.7948 41.904 28.7948 41.5698V41.4525C28.7948 41.4098 28.809 41.3742 28.8375 41.3458C28.8588 41.3245 28.8908 41.3138 28.9335 41.3138H30.2348C30.2704 41.3138 30.3024 41.3245 30.3308 41.3458C30.3593 41.3742 30.3735 41.4098 30.3735 41.4525V41.4631C30.3735 41.6338 30.4695 41.7796 30.6615 41.9005C30.8535 42.0213 31.0953 42.0818 31.3868 42.0818C31.6499 42.0818 31.8633 42.0285 32.0268 41.9218C32.1904 41.8151 32.2722 41.6871 32.2722 41.5378C32.2722 41.3956 32.2046 41.2889 32.0695 41.2178C31.9273 41.1467 31.6962 41.072 31.3762 40.9938C31.0064 40.9013 30.7148 40.8125 30.5015 40.7271C30.0037 40.5493 29.6055 40.336 29.3068 40.0871C29.0082 39.8382 28.8588 39.4791 28.8588 39.0098C28.8588 38.4338 29.0864 37.9751 29.5415 37.6338C29.9895 37.2925 30.5833 37.1218 31.3228 37.1218C31.8277 37.1218 32.265 37.2 32.6348 37.3565C33.0117 37.52 33.3033 37.7476 33.5095 38.0391C33.7228 38.3236 33.8295 38.6507 33.8295 39.0205C33.8295 39.0631 33.8153 39.0951 33.7868 39.1165C33.7584 39.1449 33.7228 39.1591 33.6802 39.1591H32.4322C32.3895 39.1591 32.3539 39.1449 32.3255 39.1165C32.297 39.0951 32.2828 39.0631 32.2828 39.0205C32.2828 38.8498 32.1975 38.704 32.0268 38.5831C31.849 38.4693 31.6144 38.4125 31.3228 38.4125C31.0668 38.4125 30.857 38.4587 30.6935 38.5511C30.5299 38.6436 30.4482 38.7716 30.4482 38.9351C30.4482 39.0916 30.5264 39.2089 30.6828 39.2871C30.8464 39.3653 31.1166 39.4507 31.4935 39.5431C31.5788 39.5645 31.6748 39.5893 31.7815 39.6178C31.8953 39.6462 32.0126 39.6782 32.1335 39.7138C32.6882 39.8773 33.1255 40.0871 33.4455 40.3431C33.7655 40.6062 33.9255 40.9831 33.9255 41.4738C33.9255 42.0498 33.6979 42.5013 33.2428 42.8285C32.7877 43.1556 32.1726 43.3191 31.3975 43.3191ZM35.7708 36.5245C35.5077 36.5245 35.2873 36.4356 35.1095 36.2578C34.9317 36.08 34.8428 35.8596 34.8428 35.5965C34.8428 35.3191 34.9282 35.0951 35.0988 34.9245C35.2766 34.7538 35.5006 34.6685 35.7708 34.6685C36.0482 34.6685 36.2722 34.7538 36.4428 34.9245C36.6135 35.0951 36.6988 35.3191 36.6988 35.5965C36.6988 35.8596 36.6099 36.08 36.4322 36.2578C36.2615 36.4356 36.041 36.5245 35.7708 36.5245ZM35.0668 43.2338C35.0313 43.2338 34.9993 43.2196 34.9708 43.1911C34.9424 43.1627 34.9282 43.1307 34.9282 43.0951V37.3351C34.9282 37.2925 34.9424 37.2569 34.9708 37.2285C34.9993 37.2 35.0313 37.1858 35.0668 37.1858H36.4428C36.4784 37.1858 36.5104 37.2 36.5388 37.2285C36.5673 37.2569 36.5815 37.2925 36.5815 37.3351V43.0951C36.5815 43.1307 36.5673 43.1627 36.5388 43.1911C36.5104 43.2196 36.4784 43.2338 36.4428 43.2338H35.0668ZM43.2162 39.5965C43.2588 39.8951 43.2731 40.2293 43.2588 40.5991C43.2517 40.6916 43.2019 40.7378 43.1095 40.7378H39.4828C39.433 40.7378 39.4153 40.7556 39.4295 40.7911C39.4579 40.9476 39.5006 41.104 39.5575 41.2605C39.7637 41.7013 40.1797 41.9218 40.8055 41.9218C41.3033 41.9147 41.6979 41.712 41.9895 41.3138C42.025 41.264 42.0606 41.2391 42.0962 41.2391C42.1175 41.2391 42.1459 41.2533 42.1815 41.2818L43.0242 42.1245C43.0597 42.16 43.0775 42.192 43.0775 42.2205C43.0775 42.2418 43.0633 42.2738 43.0348 42.3165C42.7788 42.6365 42.4482 42.8853 42.0428 43.0631C41.6304 43.2409 41.1824 43.3298 40.6988 43.3298C40.0304 43.3298 39.4615 43.1769 38.9922 42.8711C38.5299 42.5653 38.1957 42.1387 37.9895 41.5911C37.8259 41.2 37.7442 40.688 37.7442 40.0551C37.7442 39.6213 37.801 39.2409 37.9148 38.9138C38.0997 38.3591 38.4162 37.9182 38.8642 37.5911C39.3122 37.264 39.8455 37.1005 40.4642 37.1005C41.2464 37.1005 41.8757 37.328 42.3522 37.7831C42.8215 38.2311 43.1095 38.8356 43.2162 39.5965ZM40.4748 38.5298C39.9842 38.5298 39.6606 38.7609 39.5042 39.2231C39.4757 39.3227 39.4473 39.4471 39.4188 39.5965C39.4188 39.6391 39.4402 39.6605 39.4828 39.6605H41.5095C41.5593 39.6605 41.5735 39.6391 41.5522 39.5965C41.5166 39.3689 41.4988 39.2587 41.4988 39.2658C41.4277 39.0311 41.3033 38.8498 41.1255 38.7218C40.9548 38.5938 40.7379 38.5298 40.4748 38.5298ZM46.5975 43.3191C46.0784 43.3191 45.6233 43.2445 45.2322 43.0951C44.841 42.9458 44.5388 42.7396 44.3255 42.4765C44.105 42.2062 43.9948 41.904 43.9948 41.5698V41.4525C43.9948 41.4098 44.009 41.3742 44.0375 41.3458C44.0659 41.3245 44.0979 41.3138 44.1335 41.3138H45.4455C45.481 41.3138 45.513 41.3245 45.5415 41.3458C45.5699 41.3742 45.5842 41.4098 45.5842 41.4525V41.4631C45.5842 41.6338 45.6802 41.7796 45.8722 41.9005C46.0642 42.0213 46.3024 42.0818 46.5868 42.0818C46.857 42.0818 47.0739 42.0285 47.2375 41.9218C47.4011 41.8151 47.4828 41.6871 47.4828 41.5378C47.4828 41.3956 47.4117 41.2889 47.2695 41.2178C47.1273 41.1467 46.8962 41.072 46.5762 40.9938C46.2135 40.9013 45.9255 40.8125 45.7122 40.7271C45.2073 40.5493 44.809 40.336 44.5175 40.0871C44.2188 39.8382 44.0695 39.4791 44.0695 39.0098C44.0695 38.4338 44.2935 37.9751 44.7415 37.6338C45.1895 37.2925 45.7868 37.1218 46.5335 37.1218C47.0313 37.1218 47.4686 37.2 47.8455 37.3565C48.2224 37.52 48.5139 37.7476 48.7202 38.0391C48.9264 38.3236 49.0295 38.6507 49.0295 39.0205C49.0295 39.0631 49.0153 39.0951 48.9868 39.1165C48.9584 39.1449 48.9264 39.1591 48.8908 39.1591H47.6322C47.5966 39.1591 47.5646 39.1449 47.5362 39.1165C47.5077 39.0951 47.4935 39.0631 47.4935 39.0205C47.4935 38.8498 47.4046 38.704 47.2268 38.5831C47.0562 38.4693 46.8251 38.4125 46.5335 38.4125C46.2775 38.4125 46.0642 38.4587 45.8935 38.5511C45.7299 38.6436 45.6482 38.7716 45.6482 38.9351C45.6482 39.0916 45.7299 39.2089 45.8935 39.2871C46.0499 39.3653 46.3166 39.4507 46.6935 39.5431L46.9922 39.6178L47.3442 39.7138C47.8988 39.8773 48.3362 40.0871 48.6562 40.3431C48.9762 40.6062 49.1362 40.9831 49.1362 41.4738C49.1362 42.0498 48.9086 42.5013 48.4535 42.8285C47.9913 43.1556 47.3726 43.3191 46.5975 43.3191ZM53.5415 38.3911C53.5415 38.4267 53.5273 38.4587 53.4988 38.4871C53.4704 38.5156 53.4348 38.5298 53.3922 38.5298H52.2722C52.2295 38.5298 52.2082 38.5476 52.2082 38.5831V41.0791C52.2082 41.3351 52.2615 41.5271 52.3682 41.6551C52.4748 41.776 52.6455 41.8365 52.8802 41.8365H53.2642C53.3068 41.8365 53.3424 41.8507 53.3708 41.8791C53.3993 41.9076 53.4135 41.9396 53.4135 41.9751V43.0951C53.4135 43.1805 53.3637 43.2302 53.2642 43.2445C52.937 43.2587 52.7024 43.2658 52.5602 43.2658C51.913 43.2658 51.4295 43.1591 51.1095 42.9458C50.7895 42.7325 50.6259 42.3271 50.6188 41.7298V38.5831C50.6188 38.5476 50.5975 38.5298 50.5548 38.5298H49.8828C49.8473 38.5298 49.8153 38.5156 49.7868 38.4871C49.7584 38.4587 49.7442 38.4267 49.7442 38.3911V37.3458C49.7442 37.3031 49.7584 37.2676 49.7868 37.2391C49.8153 37.2178 49.8473 37.2071 49.8828 37.2071H50.5548C50.5975 37.2071 50.6188 37.1858 50.6188 37.1431V35.7458C50.6188 35.7102 50.633 35.6782 50.6615 35.6498C50.6828 35.6213 50.7148 35.6071 50.7575 35.6071H52.0695C52.1122 35.6071 52.1442 35.6213 52.1655 35.6498C52.1939 35.6782 52.2082 35.7102 52.2082 35.7458V37.1431C52.2082 37.1858 52.2295 37.2071 52.2722 37.2071H53.3922C53.4348 37.2071 53.4704 37.2178 53.4988 37.2391C53.5273 37.2676 53.5415 37.3031 53.5415 37.3458V38.3911ZM62.6508 35.0205C62.6935 35.0205 62.729 35.0347 62.7575 35.0631C62.7859 35.0916 62.8002 35.1236 62.8002 35.1591V36.3111C62.8002 36.3538 62.7859 36.3858 62.7575 36.4071C62.729 36.4356 62.6935 36.4498 62.6508 36.4498H60.5495C60.5139 36.4498 60.4962 36.4711 60.4962 36.5138V43.0951C60.4962 43.1307 60.4819 43.1627 60.4535 43.1911C60.425 43.2196 60.393 43.2338 60.3575 43.2338H58.9815C58.9459 43.2338 58.9139 43.2196 58.8855 43.1911C58.857 43.1627 58.8428 43.1307 58.8428 43.0951V36.5138C58.8428 36.4711 58.8215 36.4498 58.7788 36.4498H56.7415C56.6988 36.4498 56.6668 36.4356 56.6455 36.4071C56.6171 36.3858 56.6028 36.3538 56.6028 36.3111V35.1591C56.6028 35.1236 56.6171 35.0916 56.6455 35.0631C56.6668 35.0347 56.6988 35.0205 56.7415 35.0205H62.6508ZM65.4242 43.3298C64.7699 43.3298 64.2082 43.1556 63.7388 42.8071C63.2695 42.4658 62.9459 41.9965 62.7682 41.3991C62.6615 41.0365 62.6082 40.6382 62.6082 40.2045C62.6082 39.7422 62.6615 39.3298 62.7682 38.9671C62.953 38.384 63.2802 37.9289 63.7495 37.6018C64.2188 37.2747 64.7806 37.1111 65.4348 37.1111C66.0748 37.1111 66.6224 37.2711 67.0775 37.5911C67.5326 37.9182 67.8526 38.3733 68.0375 38.9565C68.1655 39.3476 68.2295 39.7565 68.2295 40.1831C68.2295 40.6027 68.1726 40.9973 68.0588 41.3671C67.8882 41.9787 67.5717 42.4587 67.1095 42.8071C66.6402 43.1556 66.0784 43.3298 65.4242 43.3298ZM65.4242 41.9111C65.6802 41.9111 65.9006 41.8329 66.0855 41.6765C66.2633 41.52 66.3913 41.3031 66.4695 41.0258C66.5335 40.7769 66.5655 40.5031 66.5655 40.2045C66.5655 39.8773 66.5335 39.6 66.4695 39.3725C66.3842 39.1093 66.249 38.9031 66.0642 38.7538C65.8864 38.6045 65.6695 38.5298 65.4135 38.5298C65.1433 38.5298 64.9228 38.6045 64.7522 38.7538C64.5744 38.9031 64.4464 39.1093 64.3682 39.3725C64.3042 39.5645 64.2722 39.8418 64.2722 40.2045C64.2722 40.56 64.3006 40.8338 64.3575 41.0258C64.4357 41.3031 64.5673 41.52 64.7522 41.6765C64.937 41.8329 65.161 41.9111 65.4242 41.9111ZM71.8882 43.2338C71.8526 43.2338 71.8206 43.2196 71.7922 43.1911C71.7637 43.1627 71.7495 43.1307 71.7495 43.0951V35.1591C71.7495 35.1236 71.7637 35.0916 71.7922 35.0631C71.8206 35.0347 71.8526 35.0205 71.8882 35.0205H74.8215C75.4117 35.0205 75.9273 35.1236 76.3682 35.3298C76.8091 35.536 77.1504 35.8276 77.3922 36.2045C77.6339 36.5813 77.7548 37.0151 77.7548 37.5058V40.7485C77.7548 41.2391 77.6339 41.6729 77.3922 42.0498C77.1504 42.4267 76.8091 42.7182 76.3682 42.9245C75.9273 43.1307 75.4117 43.2338 74.8215 43.2338H71.8882ZM73.4028 41.7511C73.4028 41.7938 73.4206 41.8151 73.4562 41.8151H74.8855C75.2411 41.8151 75.529 41.6942 75.7495 41.4525C75.9771 41.2107 76.0944 40.8871 76.1015 40.4818V37.7831C76.1015 37.3707 75.9913 37.0436 75.7708 36.8018C75.5433 36.56 75.241 36.4391 74.8642 36.4391H73.4562C73.4206 36.4391 73.4028 36.4605 73.4028 36.5031V41.7511ZM81.5522 43.3298C80.8979 43.3298 80.3362 43.1556 79.8668 42.8071C79.3975 42.4658 79.0775 41.9965 78.9068 41.3991C78.7931 41.0365 78.7362 40.6382 78.7362 40.2045C78.7362 39.7422 78.7931 39.3298 78.9068 38.9671C79.0846 38.384 79.4082 37.9289 79.8775 37.6018C80.3468 37.2747 80.9122 37.1111 81.5735 37.1111C82.2135 37.1111 82.761 37.2711 83.2162 37.5911C83.6642 37.9182 83.9842 38.3733 84.1762 38.9565C84.2971 39.3476 84.3575 39.7565 84.3575 40.1831C84.3575 40.6027 84.3042 40.9973 84.1975 41.3671C84.0268 41.9787 83.7068 42.4587 83.2375 42.8071C82.7753 43.1556 82.2135 43.3298 81.5522 43.3298ZM81.5522 41.9111C81.8153 41.9111 82.0357 41.8329 82.2135 41.6765C82.3913 41.52 82.5193 41.3031 82.5975 41.0258C82.6615 40.7769 82.6935 40.5031 82.6935 40.2045C82.6935 39.8773 82.6615 39.6 82.5975 39.3725C82.5122 39.1093 82.3806 38.9031 82.2028 38.7538C82.0251 38.6045 81.8046 38.5298 81.5415 38.5298C81.2784 38.5298 81.0579 38.6045 80.8802 38.7538C80.7024 38.9031 80.5744 39.1093 80.4962 39.3725C80.4393 39.5645 80.4108 39.8418 80.4108 40.2045C80.4108 40.56 80.4357 40.8338 80.4855 41.0258C80.5637 41.3031 80.6953 41.52 80.8802 41.6765C81.065 41.8329 81.2891 41.9111 81.5522 41.9111Z" fill="#252530"></path><path id="Vector_7" d="M18.4601 71.4785C17.9054 71.4785 17.4219 71.3896 17.0094 71.2118C16.597 71.034 16.277 70.7852 16.0494 70.4652C15.829 70.1452 15.7188 69.7683 15.7188 69.3345V69.0678C15.7188 69.0323 15.733 69.0003 15.7614 68.9718C15.7827 68.9505 15.8112 68.9398 15.8467 68.9398H16.7961C16.8316 68.9398 16.8636 68.9505 16.8921 68.9718C16.9134 69.0003 16.9241 69.0323 16.9241 69.0678V69.2705C16.9241 69.5976 17.0699 69.8678 17.3614 70.0812C17.653 70.3016 18.0512 70.4118 18.5561 70.4118C18.9899 70.4118 19.317 70.3194 19.5374 70.1345C19.7579 69.9496 19.8681 69.7114 19.8681 69.4198C19.8681 69.2207 19.8076 69.05 19.6867 68.9078C19.5659 68.7727 19.3952 68.6483 19.1747 68.5345C18.9472 68.4207 18.6094 68.2785 18.1614 68.1078C17.6565 67.9229 17.2476 67.7487 16.9348 67.5852C16.6219 67.4216 16.3623 67.1976 16.1561 66.9132C15.9427 66.6358 15.8361 66.2874 15.8361 65.8678C15.8361 65.242 16.0636 64.7478 16.5188 64.3852C16.9739 64.0225 17.5819 63.8412 18.3428 63.8412C18.8761 63.8412 19.349 63.9336 19.7614 64.1185C20.1668 64.3034 20.4832 64.5629 20.7108 64.8972C20.9383 65.2243 21.0521 65.6047 21.0521 66.0385V66.2198C21.0521 66.2554 21.0379 66.2874 21.0094 66.3158C20.9881 66.3372 20.9596 66.3478 20.9241 66.3478H19.9641C19.9285 66.3478 19.9001 66.3372 19.8787 66.3158C19.8503 66.2874 19.8361 66.2554 19.8361 66.2198V66.1025C19.8361 65.7683 19.701 65.4874 19.4307 65.2598C19.1534 65.0252 18.773 64.9078 18.2894 64.9078C17.8983 64.9078 17.5961 64.9896 17.3828 65.1532C17.1623 65.3167 17.0521 65.5478 17.0521 65.8465C17.0521 66.0598 17.109 66.234 17.2227 66.3692C17.3365 66.5043 17.5072 66.6252 17.7347 66.7318C17.9623 66.8456 18.3143 66.9878 18.7907 67.1585C19.2956 67.3505 19.701 67.5247 20.0068 67.6812C20.3054 67.8376 20.565 68.0545 20.7854 68.3318C20.9988 68.6163 21.1054 68.9683 21.1054 69.3878C21.1054 70.0278 20.8672 70.5363 20.3907 70.9132C19.9214 71.29 19.2779 71.4785 18.4601 71.4785ZM28.0708 65.8572C28.6183 65.8572 29.0485 66.0207 29.3614 66.3478C29.6672 66.682 29.8201 67.1443 29.8201 67.7345V71.2652C29.8201 71.3007 29.8094 71.3292 29.7881 71.3505C29.7596 71.3789 29.7276 71.3932 29.6921 71.3932H28.7214C28.6859 71.3932 28.6574 71.3789 28.6361 71.3505C28.6076 71.3292 28.5934 71.3007 28.5934 71.2652V67.9905C28.5934 67.6634 28.5081 67.4038 28.3374 67.2118C28.1596 67.0198 27.925 66.9238 27.6334 66.9238C27.3419 66.9238 27.1036 67.0198 26.9188 67.2118C26.7339 67.4038 26.6414 67.6598 26.6414 67.9798V71.2652C26.6414 71.3007 26.6308 71.3292 26.6094 71.3505C26.581 71.3789 26.549 71.3932 26.5134 71.3932H25.5428C25.5072 71.3932 25.4752 71.3789 25.4468 71.3505C25.4254 71.3292 25.4148 71.3007 25.4148 71.2652V67.9905C25.4148 67.6634 25.3259 67.4038 25.1481 67.2118C24.9703 67.0198 24.7356 66.9238 24.4441 66.9238C24.1739 66.9238 23.9499 67.002 23.7721 67.1585C23.6014 67.3149 23.5019 67.5283 23.4734 67.7985V71.2652C23.4734 71.3007 23.4627 71.3292 23.4414 71.3505C23.413 71.3789 23.381 71.3932 23.3454 71.3932H22.3641C22.3285 71.3932 22.3001 71.3789 22.2787 71.3505C22.2503 71.3292 22.2361 71.3007 22.2361 71.2652V66.0705C22.2361 66.0349 22.2503 66.0029 22.2787 65.9745C22.3001 65.9532 22.3285 65.9425 22.3641 65.9425H23.3454C23.381 65.9425 23.413 65.9532 23.4414 65.9745C23.4627 66.0029 23.4734 66.0349 23.4734 66.0705V66.4225C23.4734 66.4438 23.4805 66.458 23.4948 66.4652C23.509 66.4723 23.5232 66.4652 23.5374 66.4438C23.6939 66.2447 23.8859 66.0989 24.1134 66.0065C24.3481 65.9069 24.6076 65.8572 24.8921 65.8572C25.2405 65.8572 25.5463 65.9283 25.8094 66.0705C26.0725 66.2127 26.2752 66.4189 26.4174 66.6892C26.4388 66.7176 26.4636 66.7176 26.4921 66.6892C26.6485 66.4047 26.8654 66.1949 27.1428 66.0598C27.4201 65.9247 27.7294 65.8572 28.0708 65.8572ZM33.1588 65.8572C33.6068 65.8572 34.0014 65.9354 34.3428 66.0918C34.6841 66.2483 34.9472 66.4616 35.1321 66.7318C35.317 67.0092 35.4094 67.322 35.4094 67.6705V71.2652C35.4094 71.3007 35.3987 71.3292 35.3774 71.3505C35.349 71.3789 35.317 71.3932 35.2814 71.3932H34.3001C34.2645 71.3932 34.2361 71.3789 34.2148 71.3505C34.1863 71.3292 34.1721 71.3007 34.1721 71.2652V70.9238C34.1721 70.9025 34.165 70.8883 34.1508 70.8812C34.1365 70.8812 34.1223 70.8883 34.1081 70.9025C33.7596 71.2865 33.2548 71.4785 32.5934 71.4785C32.0601 71.4785 31.6228 71.3434 31.2814 71.0732C30.933 70.8029 30.7588 70.4012 30.7588 69.8678C30.7588 69.3132 30.9543 68.8794 31.3454 68.5665C31.7294 68.2607 32.2734 68.1078 32.9774 68.1078H34.1188C34.1543 68.1078 34.1721 68.09 34.1721 68.0545V67.7985C34.1721 67.5212 34.0903 67.3043 33.9268 67.1478C33.7632 66.9985 33.5179 66.9238 33.1908 66.9238C32.9205 66.9238 32.7036 66.9736 32.5401 67.0732C32.3694 67.1656 32.2628 67.2972 32.2201 67.4678C32.1987 67.5532 32.149 67.5887 32.0708 67.5745L31.0361 67.4465C31.0005 67.4394 30.9721 67.4287 30.9508 67.4145C30.9223 67.3932 30.9116 67.3683 30.9188 67.3398C30.9756 66.906 31.2103 66.5505 31.6228 66.2732C32.0281 65.9958 32.5401 65.8572 33.1588 65.8572ZM32.9028 70.4972C33.2512 70.4972 33.5499 70.4047 33.7988 70.2198C34.0476 70.0349 34.1721 69.8003 34.1721 69.5158V69.0145C34.1721 68.9789 34.1543 68.9612 34.1188 68.9612H33.2228C32.8459 68.9612 32.5508 69.0323 32.3374 69.1745C32.117 69.3167 32.0068 69.5194 32.0068 69.7825C32.0068 70.01 32.0921 70.1843 32.2628 70.3052C32.4263 70.4332 32.6396 70.4972 32.9028 70.4972ZM36.7748 71.3932C36.7392 71.3932 36.7108 71.3789 36.6894 71.3505C36.661 71.3292 36.6468 71.3007 36.6468 71.2652V64.0545C36.6468 64.0189 36.661 63.9905 36.6894 63.9692C36.7108 63.9407 36.7392 63.9265 36.7748 63.9265H37.7561C37.7916 63.9265 37.8236 63.9407 37.8521 63.9692C37.8734 63.9905 37.8841 64.0189 37.8841 64.0545V71.2652C37.8841 71.3007 37.8734 71.3292 37.8521 71.3505C37.8236 71.3789 37.7916 71.3932 37.7561 71.3932H36.7748ZM39.3241 71.3932C39.2885 71.3932 39.2601 71.3789 39.2388 71.3505C39.2103 71.3292 39.1961 71.3007 39.1961 71.2652V64.0545C39.1961 64.0189 39.2103 63.9905 39.2388 63.9692C39.2601 63.9407 39.2885 63.9265 39.3241 63.9265H40.3054C40.341 63.9265 40.373 63.9407 40.4014 63.9692C40.4228 63.9905 40.4334 64.0189 40.4334 64.0545V71.2652C40.4334 71.3007 40.4228 71.3292 40.4014 71.3505C40.373 71.3789 40.341 71.3932 40.3054 71.3932H39.3241ZM48.1668 67.4998C48.1241 67.5212 48.1241 67.5425 48.1668 67.5638C48.8921 67.9052 49.2548 68.4918 49.2548 69.3238C49.2548 69.9994 49.0308 70.5149 48.5828 70.8705C48.1276 71.2189 47.5374 71.3932 46.8121 71.3932H44.1241C44.0885 71.3932 44.0601 71.3789 44.0388 71.3505C44.0103 71.3292 43.9961 71.3007 43.9961 71.2652V64.0545C43.9961 64.0189 44.0103 63.9905 44.0388 63.9692C44.0601 63.9407 44.0885 63.9265 44.1241 63.9265H46.7268C47.5019 63.9265 48.0992 64.0936 48.5188 64.4278C48.9383 64.762 49.1481 65.2669 49.1481 65.9425C49.1481 66.6892 48.821 67.2083 48.1668 67.4998ZM45.2868 64.9932C45.2512 64.9932 45.2334 65.0109 45.2334 65.0465V67.0198C45.2334 67.0554 45.2512 67.0732 45.2868 67.0732H46.7268C47.1036 67.0732 47.4023 66.9843 47.6228 66.8065C47.8361 66.6216 47.9428 66.3692 47.9428 66.0492C47.9428 65.722 47.8361 65.4625 47.6228 65.2705C47.4023 65.0856 47.1036 64.9932 46.7268 64.9932H45.2868ZM46.8121 70.3158C47.1819 70.3158 47.477 70.2163 47.6974 70.0172C47.9108 69.818 48.0174 69.5478 48.0174 69.2065C48.0174 68.858 47.9072 68.5878 47.6868 68.3958C47.4663 68.1967 47.1676 68.0972 46.7908 68.0972H45.2868C45.2512 68.0972 45.2334 68.1149 45.2334 68.1505V70.2625C45.2334 70.298 45.2512 70.3158 45.2868 70.3158H46.8121ZM53.6388 66.0705C53.6388 66.0349 53.6494 66.0029 53.6708 65.9745C53.6992 65.9532 53.7312 65.9425 53.7668 65.9425H54.7374C54.773 65.9425 54.805 65.9532 54.8334 65.9745C54.8548 66.0029 54.8654 66.0349 54.8654 66.0705V71.2652C54.8654 71.3007 54.8548 71.3292 54.8334 71.3505C54.805 71.3789 54.773 71.3932 54.7374 71.3932H53.7668C53.7312 71.3932 53.6992 71.3789 53.6708 71.3505C53.6494 71.3292 53.6388 71.3007 53.6388 71.2652V70.9238C53.6388 70.9025 53.6316 70.8883 53.6174 70.8812C53.6032 70.874 53.589 70.8812 53.5747 70.9025C53.2832 71.2794 52.8459 71.4678 52.2628 71.4678C51.7223 71.4678 51.2707 71.3114 50.9081 70.9985C50.5383 70.6856 50.3534 70.2412 50.3534 69.6652V66.0705C50.3534 66.0349 50.3641 66.0029 50.3854 65.9745C50.4139 65.9532 50.4459 65.9425 50.4814 65.9425H51.4628C51.4983 65.9425 51.5303 65.9532 51.5588 65.9745C51.5801 66.0029 51.5907 66.0349 51.5907 66.0705V69.3132C51.5907 69.6474 51.6796 69.914 51.8574 70.1132C52.0281 70.3123 52.2699 70.4118 52.5827 70.4118C52.9027 70.4118 53.1588 70.3123 53.3507 70.1132C53.5428 69.914 53.6388 69.6474 53.6388 69.3132V66.0705ZM58.2147 71.4572C57.7667 71.4572 57.3721 71.3896 57.0308 71.2545C56.6965 71.1265 56.437 70.9452 56.2521 70.7105C56.0672 70.4829 55.9748 70.2269 55.9748 69.9425V69.8465C55.9748 69.8109 55.9854 69.7789 56.0067 69.7505C56.0352 69.7292 56.0672 69.7185 56.1028 69.7185H57.0414C57.077 69.7185 57.1054 69.7292 57.1268 69.7505C57.1552 69.7789 57.1694 69.8109 57.1694 69.8465V69.8678C57.1694 70.0456 57.2654 70.202 57.4574 70.3372C57.6565 70.4652 57.9054 70.5292 58.2041 70.5292C58.4885 70.5292 58.7196 70.4723 58.8974 70.3585C59.0752 70.2376 59.1641 70.0883 59.1641 69.9105C59.1641 69.7469 59.0894 69.6225 58.9401 69.5372C58.7979 69.4589 58.5632 69.3736 58.2361 69.2812L57.8308 69.1532C57.4681 69.0465 57.1623 68.9327 56.9134 68.8118C56.6645 68.6909 56.4548 68.5238 56.2841 68.3105C56.1134 68.1043 56.0281 67.8376 56.0281 67.5105C56.0281 67.0127 56.2236 66.618 56.6147 66.3265C57.0059 66.0278 57.5214 65.8785 58.1614 65.8785C58.5952 65.8785 58.9756 65.946 59.3028 66.0812C59.6299 66.2234 59.8823 66.4154 60.0601 66.6572C60.2379 66.906 60.3268 67.1869 60.3268 67.4998C60.3268 67.5354 60.3125 67.5674 60.2841 67.5958C60.2628 67.6172 60.2343 67.6278 60.1987 67.6278H59.2921C59.2565 67.6278 59.2245 67.6172 59.1961 67.5958C59.1748 67.5674 59.1641 67.5354 59.1641 67.4998C59.1641 67.3149 59.0716 67.162 58.8868 67.0412C58.709 66.9132 58.4636 66.8492 58.1507 66.8492C57.8734 66.8492 57.6459 66.8989 57.4681 66.9985C57.2974 67.1052 57.2121 67.2509 57.2121 67.4358C57.2121 67.6065 57.2939 67.7345 57.4574 67.8198C57.6281 67.9123 57.909 68.0118 58.3001 68.1185L58.5348 68.1825C58.9116 68.2963 59.2281 68.41 59.4841 68.5238C59.7401 68.6447 59.957 68.8083 60.1348 69.0145C60.3125 69.2278 60.4014 69.5016 60.4014 69.8358C60.4014 70.3407 60.2023 70.7354 59.8041 71.0198C59.4059 71.3114 58.8761 71.4572 58.2147 71.4572ZM62.1508 65.1958C61.9303 65.1958 61.749 65.1247 61.6068 64.9825C61.4645 64.8403 61.3934 64.6589 61.3934 64.4385C61.3934 64.218 61.4645 64.0367 61.6068 63.8945C61.749 63.7523 61.9303 63.6812 62.1508 63.6812C62.3712 63.6812 62.5525 63.7523 62.6948 63.8945C62.837 64.0367 62.9081 64.218 62.9081 64.4385C62.9081 64.6589 62.837 64.8403 62.6948 64.9825C62.5525 65.1247 62.3712 65.1958 62.1508 65.1958ZM61.6388 71.3932C61.6032 71.3932 61.5712 71.3789 61.5428 71.3505C61.5214 71.3292 61.5108 71.3007 61.5108 71.2652V66.0598C61.5108 66.0243 61.5214 65.9958 61.5428 65.9745C61.5712 65.946 61.6032 65.9318 61.6388 65.9318H62.6201C62.6556 65.9318 62.6841 65.946 62.7054 65.9745C62.7339 65.9958 62.7481 66.0243 62.7481 66.0598V71.2652C62.7481 71.3007 62.7339 71.3292 62.7054 71.3505C62.6841 71.3789 62.6556 71.3932 62.6201 71.3932H61.6388ZM66.7801 65.8572C67.3561 65.8572 67.8148 66.0278 68.1561 66.3692C68.5045 66.7105 68.6788 67.1763 68.6788 67.7665V71.2652C68.6788 71.3007 68.6645 71.3292 68.6361 71.3505C68.6148 71.3789 68.5863 71.3932 68.5508 71.3932H67.5694C67.5339 71.3932 67.5019 71.3789 67.4734 71.3505C67.4521 71.3292 67.4414 71.3007 67.4414 71.2652V68.0225C67.4414 67.6954 67.349 67.4287 67.1641 67.2225C66.9792 67.0234 66.7339 66.9238 66.4281 66.9238C66.1223 66.9238 65.8734 67.0234 65.6814 67.2225C65.4965 67.4216 65.4041 67.6847 65.4041 68.0118V71.2652C65.4041 71.3007 65.3899 71.3292 65.3614 71.3505C65.3401 71.3789 65.3116 71.3932 65.2761 71.3932H64.2948C64.2592 71.3932 64.2272 71.3789 64.1987 71.3505C64.1774 71.3292 64.1668 71.3007 64.1668 71.2652V66.0705C64.1668 66.0349 64.1774 66.0029 64.1987 65.9745C64.2272 65.9532 64.2592 65.9425 64.2948 65.9425H65.2761C65.3116 65.9425 65.3401 65.9532 65.3614 65.9745C65.3899 66.0029 65.4041 66.0349 65.4041 66.0705V66.4118C65.4041 66.4332 65.4112 66.4474 65.4254 66.4545C65.4396 66.4616 65.4503 66.4545 65.4574 66.4332C65.749 66.0492 66.1899 65.8572 66.7801 65.8572ZM74.5241 68.0545C74.5525 68.2323 74.5667 68.4314 74.5667 68.6518L74.5561 68.9825C74.5561 69.0678 74.5134 69.1105 74.4281 69.1105H71.0894C71.0539 69.1105 71.0361 69.1283 71.0361 69.1638C71.0574 69.3985 71.0894 69.5585 71.1321 69.6438C71.3027 70.1558 71.7187 70.4154 72.3801 70.4225C72.8636 70.4225 73.2476 70.2234 73.5321 69.8252C73.5605 69.7825 73.5961 69.7612 73.6387 69.7612C73.6672 69.7612 73.6921 69.7718 73.7134 69.7932L74.3748 70.3372C74.4388 70.3869 74.4494 70.4438 74.4067 70.5078C74.1863 70.8207 73.8912 71.0625 73.5214 71.2332C73.1587 71.4038 72.7534 71.4892 72.3054 71.4892C71.7507 71.4892 71.2779 71.3647 70.8868 71.1158C70.5028 70.8669 70.2219 70.5185 70.0441 70.0705C69.8805 69.6865 69.7987 69.1532 69.7987 68.4705C69.7987 68.058 69.8414 67.7238 69.9268 67.4678C70.069 66.97 70.3356 66.5754 70.7268 66.2838C71.125 65.9994 71.6014 65.8572 72.1561 65.8572C73.557 65.8572 74.3463 66.5896 74.5241 68.0545ZM72.1561 66.9238C71.893 66.9238 71.6725 66.9914 71.4948 67.1265C71.3241 67.2545 71.2032 67.4358 71.1321 67.6705C71.0894 67.7914 71.061 67.9478 71.0467 68.1398C71.0325 68.1754 71.0467 68.1932 71.0894 68.1932H73.2547C73.2903 68.1932 73.3081 68.1754 73.3081 68.1398C73.2939 67.962 73.2725 67.8269 73.2441 67.7345C73.1801 67.4785 73.0521 67.2794 72.8601 67.1372C72.6752 66.9949 72.4405 66.9238 72.1561 66.9238ZM77.6387 71.4572C77.1908 71.4572 76.7961 71.3896 76.4547 71.2545C76.1205 71.1265 75.861 70.9452 75.6761 70.7105C75.4912 70.4829 75.3988 70.2269 75.3988 69.9425V69.8465C75.3988 69.8109 75.4094 69.7789 75.4307 69.7505C75.4592 69.7292 75.4912 69.7185 75.5268 69.7185H76.4654C76.501 69.7185 76.5294 69.7292 76.5508 69.7505C76.5792 69.7789 76.5934 69.8109 76.5934 69.8465V69.8678C76.5934 70.0456 76.6894 70.202 76.8814 70.3372C77.0805 70.4652 77.3294 70.5292 77.6281 70.5292C77.9125 70.5292 78.1436 70.4723 78.3214 70.3585C78.4992 70.2376 78.5881 70.0883 78.5881 69.9105C78.5881 69.7469 78.5134 69.6225 78.3641 69.5372C78.2219 69.4589 77.9872 69.3736 77.6601 69.2812L77.2547 69.1532C76.8921 69.0465 76.5863 68.9327 76.3374 68.8118C76.0885 68.6909 75.8787 68.5238 75.7081 68.3105C75.5374 68.1043 75.4521 67.8376 75.4521 67.5105C75.4521 67.0127 75.6476 66.618 76.0387 66.3265C76.4299 66.0278 76.9454 65.8785 77.5854 65.8785C78.0192 65.8785 78.3996 65.946 78.7268 66.0812C79.0539 66.2234 79.3063 66.4154 79.4841 66.6572C79.6619 66.906 79.7508 67.1869 79.7508 67.4998C79.7508 67.5354 79.7365 67.5674 79.7081 67.5958C79.6868 67.6172 79.6583 67.6278 79.6227 67.6278H78.7161C78.6805 67.6278 78.6485 67.6172 78.6201 67.5958C78.5988 67.5674 78.5881 67.5354 78.5881 67.4998C78.5881 67.3149 78.4956 67.162 78.3108 67.0412C78.133 66.9132 77.8876 66.8492 77.5748 66.8492C77.2974 66.8492 77.0699 66.8989 76.8921 66.9985C76.7214 67.1052 76.6361 67.2509 76.6361 67.4358C76.6361 67.6065 76.7179 67.7345 76.8814 67.8198C77.0521 67.9123 77.333 68.0118 77.7241 68.1185L77.9588 68.1825C78.3356 68.2963 78.6521 68.41 78.9081 68.5238C79.1641 68.6447 79.381 68.8083 79.5588 69.0145C79.7365 69.2278 79.8254 69.5016 79.8254 69.8358C79.8254 70.3407 79.6263 70.7354 79.2281 71.0198C78.8299 71.3114 78.3001 71.4572 77.6387 71.4572ZM82.7907 71.4572C82.3428 71.4572 81.9481 71.3896 81.6068 71.2545C81.2725 71.1265 81.013 70.9452 80.8281 70.7105C80.6432 70.4829 80.5508 70.2269 80.5508 69.9425V69.8465C80.5508 69.8109 80.5614 69.7789 80.5827 69.7505C80.6112 69.7292 80.6432 69.7185 80.6788 69.7185H81.6174C81.653 69.7185 81.6814 69.7292 81.7028 69.7505C81.7312 69.7789 81.7454 69.8109 81.7454 69.8465V69.8678C81.7454 70.0456 81.8414 70.202 82.0334 70.3372C82.2325 70.4652 82.4814 70.5292 82.7801 70.5292C83.0645 70.5292 83.2956 70.4723 83.4734 70.3585C83.6512 70.2376 83.7401 70.0883 83.7401 69.9105C83.7401 69.7469 83.6654 69.6225 83.5161 69.5372C83.3739 69.4589 83.1392 69.3736 82.8121 69.2812L82.4068 69.1532C82.0441 69.0465 81.7383 68.9327 81.4894 68.8118C81.2405 68.6909 81.0308 68.5238 80.8601 68.3105C80.6894 68.1043 80.6041 67.8376 80.6041 67.5105C80.6041 67.0127 80.7996 66.618 81.1908 66.3265C81.5819 66.0278 82.0974 65.8785 82.7374 65.8785C83.1712 65.8785 83.5516 65.946 83.8788 66.0812C84.2059 66.2234 84.4583 66.4154 84.6361 66.6572C84.8139 66.906 84.9028 67.1869 84.9028 67.4998C84.9028 67.5354 84.8885 67.5674 84.8601 67.5958C84.8388 67.6172 84.8103 67.6278 84.7747 67.6278H83.8681C83.8325 67.6278 83.8005 67.6172 83.7721 67.5958C83.7507 67.5674 83.7401 67.5354 83.7401 67.4998C83.7401 67.3149 83.6476 67.162 83.4627 67.0412C83.285 66.9132 83.0396 66.8492 82.7268 66.8492C82.4494 66.8492 82.2219 66.8989 82.0441 66.9985C81.8734 67.1052 81.7881 67.2509 81.7881 67.4358C81.7881 67.6065 81.8699 67.7345 82.0334 67.8198C82.2041 67.9123 82.485 68.0118 82.8761 68.1185L83.1108 68.1825C83.4876 68.2963 83.8041 68.41 84.0601 68.5238C84.3161 68.6447 84.533 68.8083 84.7108 69.0145C84.8885 69.2278 84.9774 69.5016 84.9774 69.8358C84.9774 70.3407 84.7783 70.7354 84.3801 71.0198C83.9819 71.3114 83.4521 71.4572 82.7907 71.4572Z" fill="#242530"></path><path id="Vector_8" d="M35.7935 86.5187C35.2246 86.5187 34.7268 86.4262 34.3001 86.2413C33.8735 86.0636 33.5464 85.804 33.3188 85.4627C33.0841 85.1285 32.9668 84.7373 32.9668 84.2893V84.0547C32.9668 84.0191 32.981 83.9907 33.0095 83.9694C33.0308 83.9409 33.0592 83.9267 33.0948 83.9267H34.3108C34.3464 83.9267 34.3784 83.9409 34.4068 83.9694C34.4281 83.9907 34.4388 84.0191 34.4388 84.0547V84.2147C34.4388 84.4991 34.5704 84.7373 34.8335 84.9293C35.0966 85.1285 35.4521 85.228 35.9001 85.228C36.277 85.228 36.5579 85.1498 36.7428 84.9934C36.9277 84.8298 37.0201 84.6307 37.0201 84.396C37.0201 84.2253 36.9632 84.0831 36.8495 83.9694C36.7357 83.8485 36.5792 83.7454 36.3801 83.66C36.1881 83.5676 35.8788 83.4431 35.4521 83.2867C34.9757 83.1231 34.5704 82.956 34.2361 82.7854C33.909 82.6147 33.6352 82.38 33.4148 82.0813C33.1872 81.7898 33.0735 81.4271 33.0735 80.9934C33.0735 80.5667 33.1837 80.1933 33.4041 79.8733C33.6246 79.5533 33.9304 79.308 34.3215 79.1374C34.7126 78.9667 35.1641 78.8813 35.6761 78.8813C36.2166 78.8813 36.6966 78.9774 37.1161 79.1694C37.5428 79.3614 37.877 79.6316 38.1188 79.98C38.3535 80.3213 38.4708 80.7196 38.4708 81.1747V81.3347C38.4708 81.3702 38.4601 81.3987 38.4388 81.42C38.4104 81.4485 38.3784 81.4627 38.3428 81.4627H37.1161C37.0806 81.4627 37.0521 81.4485 37.0308 81.42C37.0024 81.3987 36.9881 81.3702 36.9881 81.3347V81.2493C36.9881 80.9507 36.8672 80.6947 36.6255 80.4813C36.3766 80.2751 36.0388 80.172 35.6121 80.172C35.2779 80.172 35.0148 80.2431 34.8228 80.3854C34.6379 80.5276 34.5455 80.7231 34.5455 80.972C34.5455 81.1498 34.6024 81.2991 34.7161 81.42C34.8228 81.5409 34.9864 81.6476 35.2068 81.74C35.4201 81.8396 35.7544 81.9711 36.2095 82.1347C36.7144 82.3196 37.109 82.4831 37.3935 82.6254C37.685 82.7676 37.9481 82.9773 38.1828 83.2547C38.4104 83.5391 38.5241 83.9054 38.5241 84.3534C38.5241 85.0218 38.2788 85.548 37.7881 85.932C37.2975 86.3231 36.6326 86.5187 35.7935 86.5187ZM42.6628 78.956C43.1321 78.956 43.5446 79.052 43.9001 79.244C44.2557 79.436 44.533 79.7062 44.7321 80.0547C44.9241 80.4102 45.0201 80.8156 45.0201 81.2707C45.0201 81.7187 44.9206 82.1133 44.7215 82.4547C44.5152 82.796 44.2272 83.0627 43.8575 83.2547C43.4948 83.4396 43.0752 83.532 42.5988 83.532H41.0841C41.0486 83.532 41.0308 83.5498 41.0308 83.5854V86.3053C41.0308 86.3409 41.0166 86.3693 40.9881 86.3907C40.9668 86.4191 40.9384 86.4334 40.9028 86.4334H39.6548C39.6192 86.4334 39.5872 86.4191 39.5588 86.3907C39.5375 86.3693 39.5268 86.3409 39.5268 86.3053V79.084C39.5268 79.0485 39.5375 79.0165 39.5588 78.988C39.5872 78.9667 39.6192 78.956 39.6548 78.956H42.6628ZM42.4388 82.3267C42.7659 82.3267 43.029 82.2307 43.2281 82.0387C43.4272 81.8538 43.5268 81.6085 43.5268 81.3027C43.5268 80.9898 43.4272 80.7374 43.2281 80.5454C43.029 80.3534 42.7659 80.2573 42.4388 80.2573H41.0841C41.0486 80.2573 41.0308 80.2751 41.0308 80.3107V82.2733C41.0308 82.3089 41.0486 82.3267 41.0841 82.3267H42.4388ZM50.0441 86.4334C49.973 86.4334 49.9232 86.4014 49.8948 86.3374L48.5615 83.3827C48.5472 83.3542 48.5259 83.34 48.4975 83.34H47.5055C47.4699 83.34 47.4521 83.3578 47.4521 83.3934V86.3053C47.4521 86.3409 47.4379 86.3693 47.4095 86.3907C47.3881 86.4191 47.3597 86.4334 47.3241 86.4334H46.0761C46.0406 86.4334 46.0086 86.4191 45.9801 86.3907C45.9588 86.3693 45.9481 86.3409 45.9481 86.3053V79.0947C45.9481 79.0591 45.9588 79.0307 45.9801 79.0094C46.0086 78.9809 46.0406 78.9667 46.0761 78.9667H49.1268C49.5819 78.9667 49.9801 79.0591 50.3215 79.244C50.6699 79.4289 50.9366 79.692 51.1215 80.0333C51.3135 80.3747 51.4095 80.7694 51.4095 81.2174C51.4095 81.7009 51.2886 82.1133 51.0468 82.4547C50.805 82.8031 50.4672 83.0485 50.0335 83.1907C49.9979 83.2049 49.9872 83.2298 50.0015 83.2653L51.4521 86.284C51.4664 86.3125 51.4735 86.3338 51.4735 86.348C51.4735 86.4049 51.4344 86.4334 51.3561 86.4334H50.0441ZM47.5055 80.2573C47.4699 80.2573 47.4521 80.2751 47.4521 80.3107V82.1347C47.4521 82.1702 47.4699 82.188 47.5055 82.188H48.9028C49.2015 82.188 49.4432 82.0991 49.6281 81.9213C49.8201 81.7436 49.9161 81.5125 49.9161 81.228C49.9161 80.9436 49.8201 80.7089 49.6281 80.524C49.4432 80.3462 49.2015 80.2573 48.9028 80.2573H47.5055ZM52.6255 86.4334C52.5899 86.4334 52.5615 86.4191 52.5401 86.3907C52.5117 86.3693 52.4975 86.3409 52.4975 86.3053V79.0947C52.4975 79.0591 52.5117 79.0307 52.5401 79.0094C52.5615 78.9809 52.5899 78.9667 52.6255 78.9667H53.8735C53.909 78.9667 53.941 78.9809 53.9695 79.0094C53.9908 79.0307 54.0015 79.0591 54.0015 79.0947V86.3053C54.0015 86.3409 53.9908 86.3693 53.9695 86.3907C53.941 86.4191 53.909 86.4334 53.8735 86.4334H52.6255ZM59.5908 79.0947C59.5908 79.0591 59.605 79.0307 59.6335 79.0094C59.6548 78.9809 59.6832 78.9667 59.7188 78.9667H60.9668C61.0024 78.9667 61.0344 78.9809 61.0628 79.0094C61.0841 79.0307 61.0948 79.0591 61.0948 79.0947V86.3053C61.0948 86.3409 61.0841 86.3693 61.0628 86.3907C61.0344 86.4191 61.0024 86.4334 60.9668 86.4334H59.7615C59.6904 86.4334 59.6406 86.4049 59.6121 86.348L56.8495 81.7827C56.8352 81.7613 56.821 81.7542 56.8068 81.7614C56.7926 81.7614 56.7855 81.7756 56.7855 81.804L56.8068 86.3053C56.8068 86.3409 56.7961 86.3693 56.7748 86.3907C56.7464 86.4191 56.7144 86.4334 56.6788 86.4334H55.4308C55.3952 86.4334 55.3668 86.4191 55.3455 86.3907C55.317 86.3693 55.3028 86.3409 55.3028 86.3053V79.0947C55.3028 79.0591 55.317 79.0307 55.3455 79.0094C55.3668 78.9809 55.3952 78.9667 55.4308 78.9667H56.6361C56.7072 78.9667 56.757 78.9951 56.7855 79.052L59.5375 83.596C59.5517 83.6173 59.5659 83.6245 59.5801 83.6174C59.5944 83.6174 59.6015 83.6031 59.6015 83.5747L59.5908 79.0947ZM65.0201 86.5187C64.4726 86.5187 63.989 86.4085 63.5695 86.188C63.1499 85.9676 62.8264 85.6618 62.5988 85.2707C62.3641 84.8725 62.2468 84.4138 62.2468 83.8947V81.5053C62.2468 80.9862 62.3641 80.5276 62.5988 80.1293C62.8264 79.7311 63.1499 79.4218 63.5695 79.2014C63.989 78.988 64.4726 78.8813 65.0201 78.8813C65.5606 78.8813 66.0406 78.988 66.4601 79.2014C66.8726 79.4147 67.1961 79.7062 67.4308 80.076C67.6584 80.4387 67.7721 80.844 67.7721 81.292V81.3667C67.7721 81.4022 67.7615 81.4307 67.7401 81.452C67.7117 81.4805 67.6797 81.4947 67.6441 81.4947H66.3961C66.3606 81.4947 66.3321 81.4805 66.3108 81.452C66.2824 81.4307 66.2681 81.4022 66.2681 81.3667V81.3347C66.2681 81.0076 66.1544 80.7338 65.9268 80.5133C65.6992 80.2858 65.397 80.172 65.0201 80.172C64.6361 80.172 64.3304 80.2893 64.1028 80.524C63.8681 80.7658 63.7508 81.0787 63.7508 81.4627V83.9374C63.7508 84.3214 63.8752 84.6307 64.1241 84.8653C64.373 85.1071 64.6895 85.228 65.0735 85.228C65.4432 85.228 65.7384 85.1285 65.9588 84.9293C66.1792 84.7373 66.2895 84.4671 66.2895 84.1187V83.6387C66.2895 83.6031 66.2717 83.5854 66.2361 83.5854H65.0415C65.0059 83.5854 64.9775 83.5711 64.9561 83.5427C64.9277 83.5214 64.9135 83.4929 64.9135 83.4573V82.476C64.9135 82.4405 64.9277 82.412 64.9561 82.3907C64.9775 82.3622 65.0059 82.348 65.0415 82.348H67.6441C67.6797 82.348 67.7117 82.3622 67.7401 82.3907C67.7615 82.412 67.7721 82.4405 67.7721 82.476V83.884C67.7721 84.4245 67.6584 84.8938 67.4308 85.292C67.2032 85.6902 66.8832 85.996 66.4708 86.2094C66.0512 86.4156 65.5677 86.5187 65.0201 86.5187ZM40.6255 95.1053C40.6112 95.1196 40.6077 95.1338 40.6148 95.148C40.6219 95.1622 40.6361 95.1694 40.6575 95.1694H43.5481C43.5837 95.1694 43.6157 95.18 43.6441 95.2014C43.6655 95.2298 43.6761 95.2618 43.6761 95.2973V96.332C43.6761 96.3676 43.6655 96.396 43.6441 96.4174C43.6157 96.4458 43.5837 96.46 43.5481 96.46H38.7481C38.7126 96.46 38.6806 96.4458 38.6521 96.4174C38.6308 96.396 38.6201 96.3676 38.6201 96.332V95.3507C38.6201 95.2867 38.6415 95.2333 38.6841 95.1907C39.0326 94.8493 39.3881 94.4796 39.7508 94.0813C40.1135 93.676 40.341 93.4236 40.4335 93.324C40.6326 93.0893 40.8352 92.8654 41.0415 92.652C41.6886 91.9338 42.0121 91.4005 42.0121 91.052C42.0121 90.8031 41.9232 90.5969 41.7455 90.4334C41.5677 90.2769 41.3366 90.1987 41.0521 90.1987C40.7677 90.1987 40.5366 90.2769 40.3588 90.4334C40.181 90.5969 40.0921 90.8102 40.0921 91.0733V91.34C40.0921 91.3756 40.0779 91.4076 40.0495 91.436C40.0281 91.4574 39.9997 91.468 39.9641 91.468H38.7055C38.6699 91.468 38.6415 91.4574 38.6201 91.436C38.5917 91.4076 38.5775 91.3756 38.5775 91.34V90.8387C38.5988 90.4547 38.7197 90.1133 38.9401 89.8147C39.1606 89.5231 39.4521 89.2991 39.8148 89.1427C40.1846 88.9862 40.597 88.908 41.0521 88.908C41.557 88.908 41.9979 89.0005 42.3748 89.1854C42.7446 89.3774 43.0326 89.6334 43.2388 89.9534C43.4379 90.2734 43.5375 90.6289 43.5375 91.02C43.5375 91.3187 43.4628 91.6245 43.3135 91.9374C43.1641 92.2502 42.9401 92.588 42.6415 92.9507C42.421 93.228 42.1828 93.5018 41.9268 93.772C41.6708 94.0422 41.2904 94.4334 40.7855 94.9454L40.6255 95.1053ZM47.1428 96.5774C46.3606 96.5774 45.7419 96.3569 45.2868 95.916C44.8317 95.4822 44.6041 94.8885 44.6041 94.1347V91.3187C44.6041 90.5791 44.8317 89.9925 45.2868 89.5587C45.7419 89.1249 46.3606 88.908 47.1428 88.908C47.925 88.908 48.5472 89.1249 49.0095 89.5587C49.4646 89.9925 49.6921 90.5791 49.6921 91.3187V94.1347C49.6921 94.8885 49.4646 95.4822 49.0095 95.916C48.5472 96.3569 47.925 96.5774 47.1428 96.5774ZM47.1428 95.2867C47.4628 95.2867 47.7188 95.1871 47.9108 94.988C48.0957 94.796 48.1881 94.5365 48.1881 94.2094V91.276C48.1881 90.9489 48.0957 90.6893 47.9108 90.4973C47.7188 90.2982 47.4628 90.1987 47.1428 90.1987C46.8299 90.1987 46.581 90.2982 46.3961 90.4973C46.2041 90.6893 46.1081 90.9489 46.1081 91.276V94.2094C46.1081 94.5365 46.2041 94.796 46.3961 94.988C46.581 95.1871 46.8299 95.2867 47.1428 95.2867ZM52.6788 95.1053C52.6646 95.1196 52.661 95.1338 52.6681 95.148C52.6752 95.1622 52.6895 95.1694 52.7108 95.1694H55.6015C55.637 95.1694 55.669 95.18 55.6975 95.2014C55.7188 95.2298 55.7295 95.2618 55.7295 95.2973V96.332C55.7295 96.3676 55.7188 96.396 55.6975 96.4174C55.669 96.4458 55.637 96.46 55.6015 96.46H50.8015C50.7659 96.46 50.7375 96.4458 50.7161 96.4174C50.6877 96.396 50.6735 96.3676 50.6735 96.332V95.3507C50.6735 95.2867 50.6948 95.2333 50.7375 95.1907C51.0859 94.8493 51.4415 94.4796 51.8041 94.0813C52.1668 93.676 52.3944 93.4236 52.4868 93.324C52.6859 93.0893 52.8886 92.8654 53.0948 92.652C53.7419 91.9338 54.0655 91.4005 54.0655 91.052C54.0655 90.8031 53.9766 90.5969 53.7988 90.4334C53.621 90.2769 53.3899 90.1987 53.1055 90.1987C52.821 90.1987 52.5899 90.2769 52.4121 90.4334C52.2344 90.5969 52.1455 90.8102 52.1455 91.0733V91.34C52.1455 91.3756 52.1348 91.4076 52.1135 91.436C52.085 91.4574 52.053 91.468 52.0175 91.468H50.7588C50.7232 91.468 50.6948 91.4574 50.6735 91.436C50.645 91.4076 50.6308 91.3756 50.6308 91.34V90.8387C50.6521 90.4547 50.773 90.1133 50.9935 89.8147C51.2139 89.5231 51.509 89.2991 51.8788 89.1427C52.2415 88.9862 52.6504 88.908 53.1055 88.908C53.6104 88.908 54.0512 89.0005 54.4281 89.1854C54.7979 89.3774 55.0859 89.6334 55.2921 89.9534C55.4912 90.2734 55.5908 90.6289 55.5908 91.02C55.5908 91.3187 55.5161 91.6245 55.3668 91.9374C55.2175 92.2502 54.9935 92.588 54.6948 92.9507C54.4744 93.228 54.2361 93.5018 53.9801 93.772C53.7241 94.0422 53.3437 94.4334 52.8388 94.9454L52.6788 95.1053ZM61.9908 93.2067C62.0264 93.2067 62.0584 93.2173 62.0868 93.2387C62.1081 93.2671 62.1188 93.2991 62.1188 93.3347V94.412C62.1188 94.4476 62.1081 94.4796 62.0868 94.508C62.0584 94.5294 62.0264 94.54 61.9908 94.54H61.5321C61.4966 94.54 61.4788 94.5578 61.4788 94.5934V96.332C61.4788 96.3676 61.4681 96.396 61.4468 96.4174C61.4184 96.4458 61.3864 96.46 61.3508 96.46H60.1028C60.0672 96.46 60.0388 96.4458 60.0175 96.4174C59.989 96.396 59.9748 96.3676 59.9748 96.332V94.5934C59.9748 94.5578 59.957 94.54 59.9215 94.54H56.6468C56.6112 94.54 56.5828 94.5294 56.5615 94.508C56.533 94.4796 56.5188 94.4476 56.5188 94.412V93.5587C56.5188 93.516 56.5295 93.4627 56.5508 93.3987L58.4708 89.0893C58.4992 89.0253 58.549 88.9934 58.6201 88.9934H59.9535C60.0032 88.9934 60.0388 89.0076 60.0601 89.036C60.0744 89.0574 60.0708 89.0929 60.0495 89.1427L58.2681 93.1427C58.261 93.1569 58.261 93.1711 58.2681 93.1854C58.2752 93.1996 58.2859 93.2067 58.3001 93.2067H59.9215C59.957 93.2067 59.9748 93.1889 59.9748 93.1534V91.8307C59.9748 91.7951 59.989 91.7667 60.0175 91.7454C60.0388 91.7169 60.0672 91.7027 60.1028 91.7027H61.3508C61.3864 91.7027 61.4184 91.7169 61.4468 91.7454C61.4681 91.7667 61.4788 91.7951 61.4788 91.8307V93.1534C61.4788 93.1889 61.4966 93.2067 61.5321 93.2067H61.9908Z" fill="#252530"></path></g></g></g></g><defs><clipPath id="clip0_15365_2895"><rect width="1920" height="11283" fill="white" transform="translate(-369 -6830)"></rect></clipPath><clipPath id="clip1_15365_2895"><rect width="100" height="112" fill="white" transform="translate(0.5)"></rect></clipPath></defs></svg> 