<?xml version="1.0" encoding="UTF-8"?> <svg xmlns="http://www.w3.org/2000/svg" width="101" height="112" viewBox="0 0 101 112" fill="none"><g clip-path="url(#clip0_17258_8093)"><path d="M8.93945 86.86L51.0728 108.3L91.6061 86.86V3.02002H8.93945V86.86Z" fill="white"></path><path d="M92.4612 3.34033L8.08789 88.3537L51.8212 110.007L92.4612 89.207V3.34033Z" fill="#F2F3F2"></path><path d="M6.16602 30.9666V88.6732L7.65935 89.4199L49.7927 110.86L51.0727 111.5L52.3527 110.86L92.9927 89.4199L94.486 88.6732V0.246582H6.16602V30.9666ZM8.93935 87.0732V3.01992H91.7127V87.0732L51.0727 108.513L8.93935 87.0732Z" fill="#DCDEDC"></path><path d="M50.3266 4.40707C50.7532 4.40707 51.1799 4.40707 51.6066 4.51374L50.3266 6.96707C48.4066 6.8604 46.6999 8.35374 46.5932 10.2737C46.4866 12.1937 47.9799 13.9004 49.8999 14.0071H50.3266C51.1799 14.0071 52.0332 13.6871 52.6732 13.1537L54.0599 15.5004C52.9932 16.2471 51.7132 16.6737 50.3266 16.6737C46.9132 16.7804 44.0332 14.2204 43.9266 10.8071C43.8199 7.39374 46.3799 4.51374 49.7932 4.40707H50.3266ZM54.6999 9.63374L56.2999 12.3004L54.6999 14.8604L53.2066 12.3004H50.1132L51.7132 9.63374H54.6999ZM52.1399 8.67374C52.1399 8.24707 52.2466 7.8204 52.4599 7.5004C52.6732 7.1804 53.0999 6.8604 53.4199 6.64707L53.6332 6.5404C54.0599 6.32707 54.1666 6.2204 54.1666 6.00707C54.1666 5.79374 53.8466 5.5804 53.6332 5.5804C53.2066 5.5804 52.8866 5.79374 52.6732 6.2204L52.1399 5.68707C52.2466 5.47374 52.4599 5.2604 52.6732 5.04707C52.9932 4.83374 53.3132 4.83374 53.6332 4.83374C53.9532 4.83374 54.3799 4.9404 54.5932 5.15374C54.8066 5.36707 55.0199 5.68707 55.0199 6.00707C55.0199 6.5404 54.6999 6.96707 54.0599 7.1804L53.7399 7.39374C53.4199 7.60707 53.2066 7.71374 53.0999 8.03374H55.0199V8.78041L52.1399 8.67374ZM50.3266 22.0071L60.4599 16.2471V0.24707H40.0866V16.1404L50.3266 22.0071ZM96.5132 59.7671H4.1399L0.726562 67.2337L4.1399 74.7004H96.5132L99.8199 67.2337L96.5132 59.7671Z" fill="#FF492C"></path><path d="M20.6635 54.9664C20.5995 54.9664 20.5461 54.945 20.5035 54.9024C20.4608 54.8526 20.4395 54.7957 20.4395 54.7317V41.761C20.4395 41.697 20.4608 41.6401 20.5035 41.5904C20.5461 41.5477 20.5995 41.5264 20.6635 41.5264H22.9141C22.9781 41.5264 23.0315 41.5477 23.0741 41.5904C23.1239 41.6401 23.1488 41.697 23.1488 41.761V52.545C23.1488 52.609 23.1808 52.641 23.2448 52.641H29.5168C29.5808 52.641 29.6377 52.6624 29.6875 52.705C29.7301 52.7548 29.7515 52.8117 29.7515 52.8757V54.7317C29.7515 54.7957 29.7301 54.8526 29.6875 54.9024C29.6377 54.945 29.5808 54.9664 29.5168 54.9664H20.6635ZM39.9808 49.0144C40.059 49.4979 40.0839 50.0419 40.0555 50.6464C40.0483 50.8028 39.9666 50.881 39.8101 50.881H33.8795C33.8012 50.881 33.7763 50.913 33.8048 50.977C33.8403 51.233 33.9079 51.489 34.0075 51.745C34.3417 52.4561 35.0208 52.8117 36.0448 52.8117C36.8626 52.8046 37.5097 52.4739 37.9861 51.8197C38.0359 51.7415 38.0928 51.7024 38.1568 51.7024C38.1995 51.7024 38.2457 51.7273 38.2955 51.777L39.6715 53.1424C39.7355 53.2064 39.7675 53.2633 39.7675 53.313C39.7675 53.3415 39.7426 53.3948 39.6928 53.473C39.2732 53.9921 38.7292 54.3975 38.0608 54.689C37.3995 54.9735 36.6706 55.1157 35.8741 55.1157C34.7719 55.1157 33.8403 54.8668 33.0795 54.369C32.3186 53.8713 31.771 53.1744 31.4368 52.2784C31.1666 51.6384 31.0315 50.7993 31.0315 49.761C31.0315 49.057 31.1275 48.4384 31.3195 47.905C31.6181 46.9948 32.1337 46.2695 32.8661 45.729C33.6057 45.1957 34.4803 44.929 35.4901 44.929C36.7701 44.929 37.7977 45.2988 38.5728 46.0384C39.3479 46.7779 39.8172 47.7699 39.9808 49.0144ZM35.5115 47.265C34.7008 47.265 34.1675 47.6419 33.9115 48.3957C33.8617 48.5664 33.819 48.7726 33.7835 49.0144C33.7835 49.0784 33.8155 49.1104 33.8795 49.1104H37.1968C37.275 49.1104 37.2999 49.0784 37.2715 49.0144C37.2075 48.6446 37.1755 48.4668 37.1755 48.481C37.0617 48.097 36.8626 47.7984 36.5781 47.585C36.2866 47.3717 35.931 47.265 35.5115 47.265ZM45.5701 44.9397C46.4021 44.9397 47.1452 45.0855 47.7995 45.377C48.4537 45.6615 48.9621 46.0561 49.3248 46.561C49.6875 47.0588 49.8688 47.6135 49.8688 48.225V54.7317C49.8688 54.7957 49.8475 54.8526 49.8048 54.9024C49.7621 54.945 49.7088 54.9664 49.6448 54.9664H47.3941C47.3301 54.9664 47.2768 54.945 47.2341 54.9024C47.1843 54.8526 47.1595 54.7957 47.1595 54.7317V54.1024C47.1595 54.0668 47.1488 54.0419 47.1275 54.0277C47.099 54.0135 47.0741 54.0241 47.0528 54.0597C46.5123 54.7637 45.6483 55.1157 44.4608 55.1157C43.4581 55.1157 42.651 54.8739 42.0395 54.3904C41.4208 53.9068 41.1115 53.1886 41.1115 52.2357C41.1115 51.2544 41.4599 50.4899 42.1568 49.9424C42.8466 49.4019 43.8315 49.1317 45.1115 49.1317H47.0635C47.1275 49.1317 47.1595 49.0997 47.1595 49.0357V48.609C47.1595 48.1895 47.0315 47.8588 46.7755 47.617C46.5195 47.3824 46.1355 47.265 45.6235 47.265C45.2323 47.265 44.9052 47.3361 44.6421 47.4784C44.379 47.6206 44.2083 47.8197 44.1301 48.0757C44.0946 48.2179 44.0128 48.2819 43.8848 48.2677L41.5595 47.9584C41.403 47.9299 41.3319 47.873 41.3461 47.7877C41.3959 47.2473 41.6092 46.7601 41.9861 46.3264C42.363 45.8926 42.8643 45.5548 43.4901 45.313C44.1088 45.0641 44.8021 44.9397 45.5701 44.9397ZM45.1861 53.0997C45.7337 53.0997 46.1995 52.9539 46.5835 52.6624C46.9675 52.3708 47.1595 51.9939 47.1595 51.5317V50.8384C47.1595 50.7744 47.1275 50.7424 47.0635 50.7424H45.6875C45.1115 50.7424 44.6599 50.8526 44.3328 51.073C44.0057 51.2864 43.8421 51.5921 43.8421 51.9904C43.8421 52.3388 43.963 52.609 44.2048 52.801C44.4466 53.0001 44.7737 53.0997 45.1861 53.0997ZM57.9008 41.761C57.9008 41.697 57.9221 41.6401 57.9648 41.5904C58.0075 41.5477 58.0608 41.5264 58.1248 41.5264H60.3755C60.4395 41.5264 60.4928 41.5477 60.5355 41.5904C60.5781 41.6401 60.5995 41.697 60.5995 41.761V54.7317C60.5995 54.7957 60.5781 54.8526 60.5355 54.9024C60.4928 54.945 60.4395 54.9664 60.3755 54.9664H58.1248C58.0608 54.9664 58.0075 54.945 57.9648 54.9024C57.9221 54.8526 57.9008 54.7957 57.9008 54.7317V54.1024C57.9008 54.0668 57.8866 54.0455 57.8581 54.0384C57.8297 54.0313 57.8048 54.0384 57.7835 54.0597C57.243 54.7637 56.507 55.1157 55.5755 55.1157C54.6795 55.1157 53.9079 54.8668 53.2608 54.369C52.6137 53.8713 52.1479 53.1886 51.8635 52.321C51.6501 51.6526 51.5435 50.8775 51.5435 49.9957C51.5435 49.0855 51.6572 48.2926 51.8848 47.617C52.1835 46.7921 52.6492 46.1415 53.2821 45.665C53.915 45.1815 54.6972 44.9397 55.6288 44.9397C56.5532 44.9397 57.2715 45.2597 57.7835 45.8997C57.8048 45.9424 57.8297 45.9566 57.8581 45.9424C57.8866 45.9281 57.9008 45.9033 57.9008 45.8677V41.761ZM57.4955 51.969C57.7515 51.4997 57.8795 50.8526 57.8795 50.0277C57.8795 49.1744 57.7372 48.5024 57.4528 48.0117C57.1612 47.5139 56.7346 47.265 56.1728 47.265C55.5683 47.265 55.1132 47.5139 54.8075 48.0117C54.4875 48.5166 54.3275 49.1957 54.3275 50.049C54.3275 50.817 54.4626 51.457 54.7328 51.969C55.0528 52.5237 55.5257 52.801 56.1515 52.801C56.7275 52.801 57.1755 52.5237 57.4955 51.969ZM71.3728 49.0144C71.451 49.4979 71.4759 50.0419 71.4475 50.6464C71.4403 50.8028 71.3586 50.881 71.2021 50.881H65.2715C65.1932 50.881 65.1683 50.913 65.1968 50.977C65.2323 51.233 65.2999 51.489 65.3995 51.745C65.7337 52.4561 66.4128 52.8117 67.4368 52.8117C68.2546 52.8046 68.9017 52.4739 69.3781 51.8197C69.4279 51.7415 69.4848 51.7024 69.5488 51.7024C69.5915 51.7024 69.6377 51.7273 69.6875 51.777L71.0635 53.1424C71.1275 53.2064 71.1595 53.2633 71.1595 53.313C71.1595 53.3415 71.1346 53.3948 71.0848 53.473C70.6652 53.9921 70.1212 54.3975 69.4528 54.689C68.7915 54.9735 68.0626 55.1157 67.2661 55.1157C66.1639 55.1157 65.2323 54.8668 64.4715 54.369C63.7106 53.8713 63.163 53.1744 62.8288 52.2784C62.5586 51.6384 62.4235 50.7993 62.4235 49.761C62.4235 49.057 62.5195 48.4384 62.7115 47.905C63.0101 46.9948 63.5257 46.2695 64.2581 45.729C64.9977 45.1957 65.8723 44.929 66.8821 44.929C68.1621 44.929 69.1897 45.2988 69.9648 46.0384C70.7399 46.7779 71.2092 47.7699 71.3728 49.0144ZM66.9035 47.265C66.0928 47.265 65.5595 47.6419 65.3035 48.3957C65.2537 48.5664 65.211 48.7726 65.1755 49.0144C65.1755 49.0784 65.2075 49.1104 65.2715 49.1104H68.5888C68.667 49.1104 68.6919 49.0784 68.6635 49.0144C68.5995 48.6446 68.5675 48.4668 68.5675 48.481C68.4537 48.097 68.2546 47.7984 67.9701 47.585C67.6786 47.3717 67.323 47.265 66.9035 47.265ZM78.0395 44.961C78.5017 44.961 78.8643 45.0499 79.1275 45.2277C79.2341 45.2846 79.2732 45.3806 79.2448 45.5157L78.8395 47.713C78.8323 47.8624 78.7435 47.905 78.5728 47.841C78.3808 47.777 78.1568 47.745 77.9008 47.745C77.8012 47.745 77.6626 47.7593 77.4848 47.7877C77.0226 47.8233 76.6315 47.9904 76.3115 48.289C75.9915 48.5948 75.8315 48.9966 75.8315 49.4944V54.7317C75.8315 54.7957 75.8101 54.8526 75.7675 54.9024C75.7177 54.945 75.6608 54.9664 75.5968 54.9664H73.3568C73.2928 54.9664 73.2359 54.945 73.1861 54.9024C73.1435 54.8526 73.1221 54.7957 73.1221 54.7317V45.3237C73.1221 45.2597 73.1435 45.2064 73.1861 45.1637C73.2359 45.121 73.2928 45.0997 73.3568 45.0997H75.5968C75.6608 45.0997 75.7177 45.121 75.7675 45.1637C75.8101 45.2064 75.8315 45.2597 75.8315 45.3237V46.0597C75.8315 46.0953 75.8421 46.1201 75.8635 46.1344C75.8919 46.1486 75.9132 46.1415 75.9275 46.113C76.4537 45.345 77.1577 44.961 78.0395 44.961Z" fill="#252530"></path><path d="M18.3273 71.4785C17.7726 71.4785 17.289 71.3896 16.8766 71.2118C16.4642 71.034 16.1442 70.7852 15.9166 70.4652C15.6962 70.1452 15.5859 69.7683 15.5859 69.3345V69.0678C15.5859 69.0323 15.6002 69.0003 15.6286 68.9718C15.6499 68.9505 15.6784 68.9398 15.7139 68.9398H16.6633C16.6988 68.9398 16.7308 68.9505 16.7593 68.9718C16.7806 69.0003 16.7913 69.0323 16.7913 69.0678V69.2705C16.7913 69.5976 16.937 69.8678 17.2286 70.0812C17.5202 70.3016 17.9184 70.4118 18.4233 70.4118C18.857 70.4118 19.1842 70.3194 19.4046 70.1345C19.625 69.9496 19.7353 69.7114 19.7353 69.4198C19.7353 69.2207 19.6748 69.05 19.5539 68.9078C19.433 68.7727 19.2624 68.6483 19.0419 68.5345C18.8144 68.4207 18.4766 68.2785 18.0286 68.1078C17.5237 67.9229 17.1148 67.7487 16.8019 67.5852C16.489 67.4216 16.2295 67.1976 16.0233 66.9132C15.8099 66.6358 15.7033 66.2874 15.7033 65.8678C15.7033 65.242 15.9308 64.7478 16.3859 64.3852C16.841 64.0225 17.449 63.8412 18.2099 63.8412C18.7433 63.8412 19.2162 63.9336 19.6286 64.1185C20.0339 64.3034 20.3504 64.5629 20.5779 64.8972C20.8055 65.2243 20.9193 65.6047 20.9193 66.0385V66.2198C20.9193 66.2554 20.905 66.2874 20.8766 66.3158C20.8553 66.3372 20.8268 66.3478 20.7913 66.3478H19.8313C19.7957 66.3478 19.7673 66.3372 19.7459 66.3158C19.7175 66.2874 19.7033 66.2554 19.7033 66.2198V66.1025C19.7033 65.7683 19.5682 65.4874 19.2979 65.2598C19.0206 65.0252 18.6402 64.9078 18.1566 64.9078C17.7655 64.9078 17.4633 64.9896 17.2499 65.1532C17.0295 65.3167 16.9193 65.5478 16.9193 65.8465C16.9193 66.0598 16.9762 66.234 17.0899 66.3692C17.2037 66.5043 17.3744 66.6252 17.6019 66.7318C17.8295 66.8456 18.1815 66.9878 18.6579 67.1585C19.1628 67.3505 19.5682 67.5247 19.8739 67.6812C20.1726 67.8376 20.4322 68.0545 20.6526 68.3318C20.8659 68.6163 20.9726 68.9683 20.9726 69.3878C20.9726 70.0278 20.7344 70.5363 20.2579 70.9132C19.7886 71.29 19.145 71.4785 18.3273 71.4785ZM27.9379 65.8572C28.4855 65.8572 28.9157 66.0207 29.2286 66.3478C29.5344 66.682 29.6873 67.1443 29.6873 67.7345V71.2652C29.6873 71.3007 29.6766 71.3292 29.6553 71.3505C29.6268 71.3789 29.5948 71.3932 29.5593 71.3932H28.5886C28.5531 71.3932 28.5246 71.3789 28.5033 71.3505C28.4748 71.3292 28.4606 71.3007 28.4606 71.2652V67.9905C28.4606 67.6634 28.3753 67.4038 28.2046 67.2118C28.0268 67.0198 27.7922 66.9238 27.5006 66.9238C27.209 66.9238 26.9708 67.0198 26.7859 67.2118C26.601 67.4038 26.5086 67.6598 26.5086 67.9798V71.2652C26.5086 71.3007 26.4979 71.3292 26.4766 71.3505C26.4482 71.3789 26.4162 71.3932 26.3806 71.3932H25.4099C25.3744 71.3932 25.3424 71.3789 25.3139 71.3505C25.2926 71.3292 25.2819 71.3007 25.2819 71.2652V67.9905C25.2819 67.6634 25.193 67.4038 25.0153 67.2118C24.8375 67.0198 24.6028 66.9238 24.3113 66.9238C24.041 66.9238 23.817 67.002 23.6393 67.1585C23.4686 67.3149 23.369 67.5283 23.3406 67.7985V71.2652C23.3406 71.3007 23.3299 71.3292 23.3086 71.3505C23.2802 71.3789 23.2482 71.3932 23.2126 71.3932H22.2313C22.1957 71.3932 22.1673 71.3789 22.1459 71.3505C22.1175 71.3292 22.1033 71.3007 22.1033 71.2652V66.0705C22.1033 66.0349 22.1175 66.0029 22.1459 65.9745C22.1673 65.9532 22.1957 65.9425 22.2313 65.9425H23.2126C23.2482 65.9425 23.2802 65.9532 23.3086 65.9745C23.3299 66.0029 23.3406 66.0349 23.3406 66.0705V66.4225C23.3406 66.4438 23.3477 66.458 23.3619 66.4652C23.3762 66.4723 23.3904 66.4652 23.4046 66.4438C23.561 66.2447 23.753 66.0989 23.9806 66.0065C24.2153 65.9069 24.4748 65.8572 24.7593 65.8572C25.1077 65.8572 25.4135 65.9283 25.6766 66.0705C25.9397 66.2127 26.1424 66.4189 26.2846 66.6892C26.3059 66.7176 26.3308 66.7176 26.3593 66.6892C26.5157 66.4047 26.7326 66.1949 27.0099 66.0598C27.2873 65.9247 27.5966 65.8572 27.9379 65.8572ZM33.0259 65.8572C33.4739 65.8572 33.8686 65.9354 34.2099 66.0918C34.5513 66.2483 34.8144 66.4616 34.9993 66.7318C35.1842 67.0092 35.2766 67.322 35.2766 67.6705V71.2652C35.2766 71.3007 35.2659 71.3292 35.2446 71.3505C35.2162 71.3789 35.1842 71.3932 35.1486 71.3932H34.1673C34.1317 71.3932 34.1033 71.3789 34.0819 71.3505C34.0535 71.3292 34.0393 71.3007 34.0393 71.2652V70.9238C34.0393 70.9025 34.0322 70.8883 34.0179 70.8812C34.0037 70.8812 33.9895 70.8883 33.9753 70.9025C33.6268 71.2865 33.1219 71.4785 32.4606 71.4785C31.9273 71.4785 31.4899 71.3434 31.1486 71.0732C30.8002 70.8029 30.6259 70.4012 30.6259 69.8678C30.6259 69.3132 30.8215 68.8794 31.2126 68.5665C31.5966 68.2607 32.1406 68.1078 32.8446 68.1078H33.9859C34.0215 68.1078 34.0393 68.09 34.0393 68.0545V67.7985C34.0393 67.5212 33.9575 67.3043 33.7939 67.1478C33.6304 66.9985 33.385 66.9238 33.0579 66.9238C32.7877 66.9238 32.5708 66.9736 32.4073 67.0732C32.2366 67.1656 32.1299 67.2972 32.0873 67.4678C32.0659 67.5532 32.0162 67.5887 31.9379 67.5745L30.9033 67.4465C30.8677 67.4394 30.8393 67.4287 30.8179 67.4145C30.7895 67.3932 30.7788 67.3683 30.7859 67.3398C30.8428 66.906 31.0775 66.5505 31.4899 66.2732C31.8953 65.9958 32.4073 65.8572 33.0259 65.8572ZM32.7699 70.4972C33.1184 70.4972 33.417 70.4047 33.6659 70.2198C33.9148 70.0349 34.0393 69.8003 34.0393 69.5158V69.0145C34.0393 68.9789 34.0215 68.9612 33.9859 68.9612H33.0899C32.713 68.9612 32.4179 69.0323 32.2046 69.1745C31.9842 69.3167 31.8739 69.5194 31.8739 69.7825C31.8739 70.01 31.9593 70.1843 32.1299 70.3052C32.2935 70.4332 32.5068 70.4972 32.7699 70.4972ZM36.6419 71.3932C36.6064 71.3932 36.5779 71.3789 36.5566 71.3505C36.5282 71.3292 36.5139 71.3007 36.5139 71.2652V64.0545C36.5139 64.0189 36.5282 63.9905 36.5566 63.9692C36.5779 63.9407 36.6064 63.9265 36.6419 63.9265H37.6233C37.6588 63.9265 37.6908 63.9407 37.7193 63.9692C37.7406 63.9905 37.7513 64.0189 37.7513 64.0545V71.2652C37.7513 71.3007 37.7406 71.3292 37.7193 71.3505C37.6908 71.3789 37.6588 71.3932 37.6233 71.3932H36.6419ZM39.1913 71.3932C39.1557 71.3932 39.1273 71.3789 39.1059 71.3505C39.0775 71.3292 39.0633 71.3007 39.0633 71.2652V64.0545C39.0633 64.0189 39.0775 63.9905 39.1059 63.9692C39.1273 63.9407 39.1557 63.9265 39.1913 63.9265H40.1726C40.2082 63.9265 40.2402 63.9407 40.2686 63.9692C40.2899 63.9905 40.3006 64.0189 40.3006 64.0545V71.2652C40.3006 71.3007 40.2899 71.3292 40.2686 71.3505C40.2402 71.3789 40.2082 71.3932 40.1726 71.3932H39.1913ZM48.0339 67.4998C47.9913 67.5212 47.9913 67.5425 48.0339 67.5638C48.7593 67.9052 49.1219 68.4918 49.1219 69.3238C49.1219 69.9994 48.8979 70.5149 48.4499 70.8705C47.9948 71.2189 47.4046 71.3932 46.6793 71.3932H43.9913C43.9557 71.3932 43.9273 71.3789 43.9059 71.3505C43.8775 71.3292 43.8633 71.3007 43.8633 71.2652V64.0545C43.8633 64.0189 43.8775 63.9905 43.9059 63.9692C43.9273 63.9407 43.9557 63.9265 43.9913 63.9265H46.5939C47.3691 63.9265 47.9664 64.0936 48.3859 64.4278C48.8055 64.762 49.0153 65.2669 49.0153 65.9425C49.0153 66.6892 48.6882 67.2083 48.0339 67.4998ZM45.1539 64.9932C45.1184 64.9932 45.1006 65.0109 45.1006 65.0465V67.0198C45.1006 67.0554 45.1184 67.0732 45.1539 67.0732H46.5939C46.9708 67.0732 47.2695 66.9843 47.4899 66.8065C47.7033 66.6216 47.8099 66.3692 47.8099 66.0492C47.8099 65.722 47.7033 65.4625 47.4899 65.2705C47.2695 65.0856 46.9708 64.9932 46.5939 64.9932H45.1539ZM46.6793 70.3158C47.049 70.3158 47.3442 70.2163 47.5646 70.0172C47.7779 69.818 47.8846 69.5478 47.8846 69.2065C47.8846 68.858 47.7744 68.5878 47.5539 68.3958C47.3335 68.1967 47.0348 68.0972 46.6579 68.0972H45.1539C45.1184 68.0972 45.1006 68.1149 45.1006 68.1505V70.2625C45.1006 70.298 45.1184 70.3158 45.1539 70.3158H46.6793ZM53.5059 66.0705C53.5059 66.0349 53.5166 66.0029 53.5379 65.9745C53.5664 65.9532 53.5984 65.9425 53.6339 65.9425H54.6046C54.6402 65.9425 54.6722 65.9532 54.7006 65.9745C54.7219 66.0029 54.7326 66.0349 54.7326 66.0705V71.2652C54.7326 71.3007 54.7219 71.3292 54.7006 71.3505C54.6722 71.3789 54.6402 71.3932 54.6046 71.3932H53.6339C53.5984 71.3932 53.5664 71.3789 53.5379 71.3505C53.5166 71.3292 53.5059 71.3007 53.5059 71.2652V70.9238C53.5059 70.9025 53.4988 70.8883 53.4846 70.8812C53.4704 70.874 53.4562 70.8812 53.4419 70.9025C53.1504 71.2794 52.7131 71.4678 52.1299 71.4678C51.5895 71.4678 51.1379 71.3114 50.7753 70.9985C50.4055 70.6856 50.2206 70.2412 50.2206 69.6652V66.0705C50.2206 66.0349 50.2313 66.0029 50.2526 65.9745C50.2811 65.9532 50.313 65.9425 50.3486 65.9425H51.3299C51.3655 65.9425 51.3975 65.9532 51.4259 65.9745C51.4473 66.0029 51.4579 66.0349 51.4579 66.0705V69.3132C51.4579 69.6474 51.5468 69.914 51.7246 70.1132C51.8953 70.3123 52.137 70.4118 52.4499 70.4118C52.7699 70.4118 53.0259 70.3123 53.2179 70.1132C53.4099 69.914 53.5059 69.6474 53.5059 69.3132V66.0705ZM58.0819 71.4572C57.6339 71.4572 57.2393 71.3896 56.8979 71.2545C56.5637 71.1265 56.3042 70.9452 56.1193 70.7105C55.9344 70.4829 55.8419 70.2269 55.8419 69.9425V69.8465C55.8419 69.8109 55.8526 69.7789 55.8739 69.7505C55.9024 69.7292 55.9344 69.7185 55.9699 69.7185H56.9086C56.9442 69.7185 56.9726 69.7292 56.9939 69.7505C57.0224 69.7789 57.0366 69.8109 57.0366 69.8465V69.8678C57.0366 70.0456 57.1326 70.202 57.3246 70.3372C57.5237 70.4652 57.7726 70.5292 58.0713 70.5292C58.3557 70.5292 58.5868 70.4723 58.7646 70.3585C58.9424 70.2376 59.0313 70.0883 59.0313 69.9105C59.0313 69.7469 58.9566 69.6225 58.8073 69.5372C58.665 69.4589 58.4304 69.3736 58.1033 69.2812L57.6979 69.1532C57.3353 69.0465 57.0295 68.9327 56.7806 68.8118C56.5317 68.6909 56.3219 68.5238 56.1513 68.3105C55.9806 68.1043 55.8953 67.8376 55.8953 67.5105C55.8953 67.0127 56.0908 66.618 56.4819 66.3265C56.873 66.0278 57.3886 65.8785 58.0286 65.8785C58.4624 65.8785 58.8428 65.946 59.1699 66.0812C59.4971 66.2234 59.7495 66.4154 59.9273 66.6572C60.105 66.906 60.1939 67.1869 60.1939 67.4998C60.1939 67.5354 60.1797 67.5674 60.1513 67.5958C60.1299 67.6172 60.1015 67.6278 60.0659 67.6278H59.1593C59.1237 67.6278 59.0917 67.6172 59.0633 67.5958C59.0419 67.5674 59.0313 67.5354 59.0313 67.4998C59.0313 67.3149 58.9388 67.162 58.7539 67.0412C58.5762 66.9132 58.3308 66.8492 58.0179 66.8492C57.7406 66.8492 57.5131 66.8989 57.3353 66.9985C57.1646 67.1052 57.0793 67.2509 57.0793 67.4358C57.0793 67.6065 57.161 67.7345 57.3246 67.8198C57.4953 67.9123 57.7762 68.0118 58.1673 68.1185L58.4019 68.1825C58.7788 68.2963 59.0953 68.41 59.3513 68.5238C59.6073 68.6447 59.8242 68.8083 60.0019 69.0145C60.1797 69.2278 60.2686 69.5016 60.2686 69.8358C60.2686 70.3407 60.0695 70.7354 59.6713 71.0198C59.2731 71.3114 58.7433 71.4572 58.0819 71.4572ZM62.0179 65.1958C61.7975 65.1958 61.6162 65.1247 61.4739 64.9825C61.3317 64.8403 61.2606 64.6589 61.2606 64.4385C61.2606 64.218 61.3317 64.0367 61.4739 63.8945C61.6162 63.7523 61.7975 63.6812 62.0179 63.6812C62.2384 63.6812 62.4197 63.7523 62.5619 63.8945C62.7042 64.0367 62.7753 64.218 62.7753 64.4385C62.7753 64.6589 62.7042 64.8403 62.5619 64.9825C62.4197 65.1247 62.2384 65.1958 62.0179 65.1958ZM61.5059 71.3932C61.4704 71.3932 61.4384 71.3789 61.4099 71.3505C61.3886 71.3292 61.3779 71.3007 61.3779 71.2652V66.0598C61.3779 66.0243 61.3886 65.9958 61.4099 65.9745C61.4384 65.946 61.4704 65.9318 61.5059 65.9318H62.4873C62.5228 65.9318 62.5513 65.946 62.5726 65.9745C62.6011 65.9958 62.6153 66.0243 62.6153 66.0598V71.2652C62.6153 71.3007 62.6011 71.3292 62.5726 71.3505C62.5513 71.3789 62.5228 71.3932 62.4873 71.3932H61.5059ZM66.6473 65.8572C67.2233 65.8572 67.6819 66.0278 68.0233 66.3692C68.3717 66.7105 68.5459 67.1763 68.5459 67.7665V71.2652C68.5459 71.3007 68.5317 71.3292 68.5033 71.3505C68.4819 71.3789 68.4535 71.3932 68.4179 71.3932H67.4366C67.4011 71.3932 67.369 71.3789 67.3406 71.3505C67.3193 71.3292 67.3086 71.3007 67.3086 71.2652V68.0225C67.3086 67.6954 67.2162 67.4287 67.0313 67.2225C66.8464 67.0234 66.6011 66.9238 66.2953 66.9238C65.9895 66.9238 65.7406 67.0234 65.5486 67.2225C65.3637 67.4216 65.2713 67.6847 65.2713 68.0118V71.2652C65.2713 71.3007 65.2571 71.3292 65.2286 71.3505C65.2073 71.3789 65.1788 71.3932 65.1433 71.3932H64.1619C64.1264 71.3932 64.0944 71.3789 64.0659 71.3505C64.0446 71.3292 64.0339 71.3007 64.0339 71.2652V66.0705C64.0339 66.0349 64.0446 66.0029 64.0659 65.9745C64.0944 65.9532 64.1264 65.9425 64.1619 65.9425H65.1433C65.1788 65.9425 65.2073 65.9532 65.2286 65.9745C65.2571 66.0029 65.2713 66.0349 65.2713 66.0705V66.4118C65.2713 66.4332 65.2784 66.4474 65.2926 66.4545C65.3068 66.4616 65.3175 66.4545 65.3246 66.4332C65.6162 66.0492 66.0571 65.8572 66.6473 65.8572ZM74.3913 68.0545C74.4197 68.2323 74.4339 68.4314 74.4339 68.6518L74.4233 68.9825C74.4233 69.0678 74.3806 69.1105 74.2953 69.1105H70.9566C70.921 69.1105 70.9033 69.1283 70.9033 69.1638C70.9246 69.3985 70.9566 69.5585 70.9993 69.6438C71.1699 70.1558 71.5859 70.4154 72.2473 70.4225C72.7308 70.4225 73.1148 70.2234 73.3993 69.8252C73.4277 69.7825 73.4633 69.7612 73.5059 69.7612C73.5344 69.7612 73.5593 69.7718 73.5806 69.7932L74.2419 70.3372C74.3059 70.3869 74.3166 70.4438 74.2739 70.5078C74.0535 70.8207 73.7584 71.0625 73.3886 71.2332C73.0259 71.4038 72.6206 71.4892 72.1726 71.4892C71.6179 71.4892 71.1451 71.3647 70.7539 71.1158C70.3699 70.8669 70.0891 70.5185 69.9113 70.0705C69.7477 69.6865 69.6659 69.1532 69.6659 68.4705C69.6659 68.058 69.7086 67.7238 69.7939 67.4678C69.9362 66.97 70.2028 66.5754 70.5939 66.2838C70.9922 65.9994 71.4686 65.8572 72.0233 65.8572C73.4242 65.8572 74.2135 66.5896 74.3913 68.0545ZM72.0233 66.9238C71.7602 66.9238 71.5397 66.9914 71.3619 67.1265C71.1913 67.2545 71.0704 67.4358 70.9993 67.6705C70.9566 67.7914 70.9282 67.9478 70.9139 68.1398C70.8997 68.1754 70.9139 68.1932 70.9566 68.1932H73.1219C73.1575 68.1932 73.1753 68.1754 73.1753 68.1398C73.161 67.962 73.1397 67.8269 73.1113 67.7345C73.0473 67.4785 72.9193 67.2794 72.7273 67.1372C72.5424 66.9949 72.3077 66.9238 72.0233 66.9238ZM77.5059 71.4572C77.0579 71.4572 76.6633 71.3896 76.3219 71.2545C75.9877 71.1265 75.7282 70.9452 75.5433 70.7105C75.3584 70.4829 75.2659 70.2269 75.2659 69.9425V69.8465C75.2659 69.8109 75.2766 69.7789 75.2979 69.7505C75.3264 69.7292 75.3584 69.7185 75.3939 69.7185H76.3326C76.3682 69.7185 76.3966 69.7292 76.4179 69.7505C76.4464 69.7789 76.4606 69.8109 76.4606 69.8465V69.8678C76.4606 70.0456 76.5566 70.202 76.7486 70.3372C76.9477 70.4652 77.1966 70.5292 77.4953 70.5292C77.7797 70.5292 78.0108 70.4723 78.1886 70.3585C78.3664 70.2376 78.4553 70.0883 78.4553 69.9105C78.4553 69.7469 78.3806 69.6225 78.2313 69.5372C78.089 69.4589 77.8544 69.3736 77.5273 69.2812L77.1219 69.1532C76.7593 69.0465 76.4535 68.9327 76.2046 68.8118C75.9557 68.6909 75.7459 68.5238 75.5753 68.3105C75.4046 68.1043 75.3193 67.8376 75.3193 67.5105C75.3193 67.0127 75.5148 66.618 75.9059 66.3265C76.297 66.0278 76.8126 65.8785 77.4526 65.8785C77.8864 65.8785 78.2668 65.946 78.5939 66.0812C78.9211 66.2234 79.1735 66.4154 79.3513 66.6572C79.529 66.906 79.6179 67.1869 79.6179 67.4998C79.6179 67.5354 79.6037 67.5674 79.5753 67.5958C79.5539 67.6172 79.5255 67.6278 79.4899 67.6278H78.5833C78.5477 67.6278 78.5157 67.6172 78.4873 67.5958C78.4659 67.5674 78.4553 67.5354 78.4553 67.4998C78.4553 67.3149 78.3628 67.162 78.1779 67.0412C78.0002 66.9132 77.7548 66.8492 77.4419 66.8492C77.1646 66.8492 76.937 66.8989 76.7593 66.9985C76.5886 67.1052 76.5033 67.2509 76.5033 67.4358C76.5033 67.6065 76.585 67.7345 76.7486 67.8198C76.9193 67.9123 77.2002 68.0118 77.5913 68.1185L77.8259 68.1825C78.2028 68.2963 78.5193 68.41 78.7753 68.5238C79.0313 68.6447 79.2482 68.8083 79.4259 69.0145C79.6037 69.2278 79.6926 69.5016 79.6926 69.8358C79.6926 70.3407 79.4935 70.7354 79.0953 71.0198C78.6971 71.3114 78.1673 71.4572 77.5059 71.4572ZM82.6579 71.4572C82.2099 71.4572 81.8153 71.3896 81.4739 71.2545C81.1397 71.1265 80.8802 70.9452 80.6953 70.7105C80.5104 70.4829 80.4179 70.2269 80.4179 69.9425V69.8465C80.4179 69.8109 80.4286 69.7789 80.4499 69.7505C80.4784 69.7292 80.5104 69.7185 80.5459 69.7185H81.4846C81.5202 69.7185 81.5486 69.7292 81.5699 69.7505C81.5984 69.7789 81.6126 69.8109 81.6126 69.8465V69.8678C81.6126 70.0456 81.7086 70.202 81.9006 70.3372C82.0997 70.4652 82.3486 70.5292 82.6473 70.5292C82.9317 70.5292 83.1628 70.4723 83.3406 70.3585C83.5184 70.2376 83.6073 70.0883 83.6073 69.9105C83.6073 69.7469 83.5326 69.6225 83.3833 69.5372C83.2411 69.4589 83.0064 69.3736 82.6793 69.2812L82.2739 69.1532C81.9113 69.0465 81.6055 68.9327 81.3566 68.8118C81.1077 68.6909 80.8979 68.5238 80.7273 68.3105C80.5566 68.1043 80.4713 67.8376 80.4713 67.5105C80.4713 67.0127 80.6668 66.618 81.0579 66.3265C81.4491 66.0278 81.9646 65.8785 82.6046 65.8785C83.0384 65.8785 83.4188 65.946 83.7459 66.0812C84.0731 66.2234 84.3255 66.4154 84.5033 66.6572C84.6811 66.906 84.7699 67.1869 84.7699 67.4998C84.7699 67.5354 84.7557 67.5674 84.7273 67.5958C84.7059 67.6172 84.6775 67.6278 84.6419 67.6278H83.7353C83.6997 67.6278 83.6677 67.6172 83.6393 67.5958C83.6179 67.5674 83.6073 67.5354 83.6073 67.4998C83.6073 67.3149 83.5148 67.162 83.3299 67.0412C83.1522 66.9132 82.9068 66.8492 82.5939 66.8492C82.3166 66.8492 82.0891 66.8989 81.9113 66.9985C81.7406 67.1052 81.6553 67.2509 81.6553 67.4358C81.6553 67.6065 81.7371 67.7345 81.9006 67.8198C82.0713 67.9123 82.3522 68.0118 82.7433 68.1185L82.9779 68.1825C83.3548 68.2963 83.6713 68.41 83.9273 68.5238C84.1833 68.6447 84.4002 68.8083 84.5779 69.0145C84.7557 69.2278 84.8446 69.5016 84.8446 69.8358C84.8446 70.3407 84.6455 70.7354 84.2473 71.0198C83.849 71.3114 83.3193 71.4572 82.6579 71.4572Z" fill="white"></path><path d="M35.6607 86.5187C35.0918 86.5187 34.594 86.4262 34.1673 86.2413C33.7407 86.0636 33.4135 85.804 33.186 85.4627C32.9513 85.1285 32.834 84.7373 32.834 84.2893V84.0547C32.834 84.0191 32.8482 83.9907 32.8767 83.9694C32.898 83.9409 32.9264 83.9267 32.962 83.9267H34.178C34.2135 83.9267 34.2455 83.9409 34.274 83.9694C34.2953 83.9907 34.306 84.0191 34.306 84.0547V84.2147C34.306 84.4991 34.4375 84.7373 34.7007 84.9293C34.9638 85.1285 35.3193 85.228 35.7673 85.228C36.1442 85.228 36.4251 85.1498 36.61 84.9934C36.7949 84.8298 36.8873 84.6307 36.8873 84.396C36.8873 84.2253 36.8304 84.0831 36.7167 83.9694C36.6029 83.8485 36.4464 83.7454 36.2473 83.66C36.0553 83.5676 35.746 83.4431 35.3193 83.2867C34.8429 83.1231 34.4375 82.956 34.1033 82.7854C33.7762 82.6147 33.5024 82.38 33.282 82.0813C33.0544 81.7898 32.9407 81.4271 32.9407 80.9934C32.9407 80.5667 33.0509 80.1933 33.2713 79.8733C33.4918 79.5533 33.7975 79.308 34.1887 79.1374C34.5798 78.9667 35.0313 78.8813 35.5433 78.8813C36.0838 78.8813 36.5638 78.9774 36.9833 79.1694C37.41 79.3614 37.7442 79.6316 37.986 79.98C38.2207 80.3213 38.338 80.7196 38.338 81.1747V81.3347C38.338 81.3702 38.3273 81.3987 38.306 81.42C38.2775 81.4485 38.2455 81.4627 38.21 81.4627H36.9833C36.9478 81.4627 36.9193 81.4485 36.898 81.42C36.8695 81.3987 36.8553 81.3702 36.8553 81.3347V81.2493C36.8553 80.9507 36.7344 80.6947 36.4927 80.4813C36.2438 80.2751 35.906 80.172 35.4793 80.172C35.1451 80.172 34.882 80.2431 34.69 80.3854C34.5051 80.5276 34.4127 80.7231 34.4127 80.972C34.4127 81.1498 34.4695 81.2991 34.5833 81.42C34.69 81.5409 34.8535 81.6476 35.074 81.74C35.2873 81.8396 35.6215 81.9711 36.0767 82.1347C36.5815 82.3196 36.9762 82.4831 37.2607 82.6254C37.5522 82.7676 37.8153 82.9773 38.05 83.2547C38.2775 83.5391 38.3913 83.9054 38.3913 84.3534C38.3913 85.0218 38.146 85.548 37.6553 85.932C37.1647 86.3231 36.4998 86.5187 35.6607 86.5187ZM42.53 78.956C42.9993 78.956 43.4118 79.052 43.7673 79.244C44.1229 79.436 44.4002 79.7062 44.5993 80.0547C44.7913 80.4102 44.8873 80.8156 44.8873 81.2707C44.8873 81.7187 44.7878 82.1133 44.5887 82.4547C44.3824 82.796 44.0944 83.0627 43.7247 83.2547C43.362 83.4396 42.9424 83.532 42.466 83.532H40.9513C40.9158 83.532 40.898 83.5498 40.898 83.5854V86.3053C40.898 86.3409 40.8838 86.3693 40.8553 86.3907C40.834 86.4191 40.8055 86.4334 40.77 86.4334H39.522C39.4864 86.4334 39.4544 86.4191 39.426 86.3907C39.4047 86.3693 39.394 86.3409 39.394 86.3053V79.084C39.394 79.0485 39.4047 79.0165 39.426 78.988C39.4544 78.9667 39.4864 78.956 39.522 78.956H42.53ZM42.306 82.3267C42.6331 82.3267 42.8962 82.2307 43.0953 82.0387C43.2944 81.8538 43.394 81.6085 43.394 81.3027C43.394 80.9898 43.2944 80.7374 43.0953 80.5454C42.8962 80.3534 42.6331 80.2573 42.306 80.2573H40.9513C40.9158 80.2573 40.898 80.2751 40.898 80.3107V82.2733C40.898 82.3089 40.9158 82.3267 40.9513 82.3267H42.306ZM49.9113 86.4334C49.8402 86.4334 49.7904 86.4014 49.762 86.3374L48.4287 83.3827C48.4144 83.3542 48.3931 83.34 48.3647 83.34H47.3727C47.3371 83.34 47.3193 83.3578 47.3193 83.3934V86.3053C47.3193 86.3409 47.3051 86.3693 47.2767 86.3907C47.2553 86.4191 47.2269 86.4334 47.1913 86.4334H45.9433C45.9078 86.4334 45.8758 86.4191 45.8473 86.3907C45.826 86.3693 45.8153 86.3409 45.8153 86.3053V79.0947C45.8153 79.0591 45.826 79.0307 45.8473 79.0094C45.8758 78.9809 45.9078 78.9667 45.9433 78.9667H48.994C49.4491 78.9667 49.8473 79.0591 50.1887 79.244C50.5371 79.4289 50.8038 79.692 50.9887 80.0333C51.1807 80.3747 51.2767 80.7694 51.2767 81.2174C51.2767 81.7009 51.1558 82.1133 50.914 82.4547C50.6722 82.8031 50.3344 83.0485 49.9007 83.1907C49.8651 83.2049 49.8544 83.2298 49.8687 83.2653L51.3193 86.284C51.3335 86.3125 51.3407 86.3338 51.3407 86.348C51.3407 86.4049 51.3015 86.4334 51.2233 86.4334H49.9113ZM47.3727 80.2573C47.3371 80.2573 47.3193 80.2751 47.3193 80.3107V82.1347C47.3193 82.1702 47.3371 82.188 47.3727 82.188H48.77C49.0687 82.188 49.3104 82.0991 49.4953 81.9213C49.6873 81.7436 49.7833 81.5125 49.7833 81.228C49.7833 80.9436 49.6873 80.7089 49.4953 80.524C49.3104 80.3462 49.0687 80.2573 48.77 80.2573H47.3727ZM52.4927 86.4334C52.4571 86.4334 52.4286 86.4191 52.4073 86.3907C52.3789 86.3693 52.3647 86.3409 52.3647 86.3053V79.0947C52.3647 79.0591 52.3789 79.0307 52.4073 79.0094C52.4286 78.9809 52.4571 78.9667 52.4927 78.9667H53.7407C53.7762 78.9667 53.8082 78.9809 53.8367 79.0094C53.858 79.0307 53.8687 79.0591 53.8687 79.0947V86.3053C53.8687 86.3409 53.858 86.3693 53.8367 86.3907C53.8082 86.4191 53.7762 86.4334 53.7407 86.4334H52.4927ZM59.458 79.0947C59.458 79.0591 59.4722 79.0307 59.5007 79.0094C59.522 78.9809 59.5504 78.9667 59.586 78.9667H60.834C60.8695 78.9667 60.9015 78.9809 60.93 79.0094C60.9513 79.0307 60.962 79.0591 60.962 79.0947V86.3053C60.962 86.3409 60.9513 86.3693 60.93 86.3907C60.9015 86.4191 60.8695 86.4334 60.834 86.4334H59.6287C59.5575 86.4334 59.5078 86.4049 59.4793 86.348L56.7167 81.7827C56.7024 81.7613 56.6882 81.7542 56.674 81.7614C56.6598 81.7614 56.6527 81.7756 56.6527 81.804L56.674 86.3053C56.674 86.3409 56.6633 86.3693 56.642 86.3907C56.6135 86.4191 56.5815 86.4334 56.546 86.4334H55.298C55.2624 86.4334 55.234 86.4191 55.2127 86.3907C55.1842 86.3693 55.17 86.3409 55.17 86.3053V79.0947C55.17 79.0591 55.1842 79.0307 55.2127 79.0094C55.234 78.9809 55.2624 78.9667 55.298 78.9667H56.5033C56.5744 78.9667 56.6242 78.9951 56.6527 79.052L59.4047 83.596C59.4189 83.6173 59.4331 83.6245 59.4473 83.6174C59.4615 83.6174 59.4687 83.6031 59.4687 83.5747L59.458 79.0947ZM64.8873 86.5187C64.3398 86.5187 63.8562 86.4085 63.4367 86.188C63.0171 85.9676 62.6935 85.6618 62.466 85.2707C62.2313 84.8725 62.114 84.4138 62.114 83.8947V81.5053C62.114 80.9862 62.2313 80.5276 62.466 80.1293C62.6935 79.7311 63.0171 79.4218 63.4367 79.2014C63.8562 78.988 64.3398 78.8813 64.8873 78.8813C65.4278 78.8813 65.9078 78.988 66.3273 79.2014C66.7398 79.4147 67.0633 79.7062 67.298 80.076C67.5255 80.4387 67.6393 80.844 67.6393 81.292V81.3667C67.6393 81.4022 67.6287 81.4307 67.6073 81.452C67.5789 81.4805 67.5469 81.4947 67.5113 81.4947H66.2633C66.2278 81.4947 66.1993 81.4805 66.178 81.452C66.1495 81.4307 66.1353 81.4022 66.1353 81.3667V81.3347C66.1353 81.0076 66.0215 80.7338 65.794 80.5133C65.5664 80.2858 65.2642 80.172 64.8873 80.172C64.5033 80.172 64.1975 80.2893 63.97 80.524C63.7353 80.7658 63.618 81.0787 63.618 81.4627V83.9374C63.618 84.3214 63.7424 84.6307 63.9913 84.8653C64.2402 85.1071 64.5567 85.228 64.9407 85.228C65.3104 85.228 65.6055 85.1285 65.826 84.9293C66.0464 84.7373 66.1567 84.4671 66.1567 84.1187V83.6387C66.1567 83.6031 66.1389 83.5854 66.1033 83.5854H64.9087C64.8731 83.5854 64.8447 83.5711 64.8233 83.5427C64.7949 83.5214 64.7807 83.4929 64.7807 83.4573V82.476C64.7807 82.4405 64.7949 82.412 64.8233 82.3907C64.8447 82.3622 64.8731 82.348 64.9087 82.348H67.5113C67.5469 82.348 67.5789 82.3622 67.6073 82.3907C67.6287 82.412 67.6393 82.4405 67.6393 82.476V83.884C67.6393 84.4245 67.5255 84.8938 67.298 85.292C67.0704 85.6902 66.7504 85.996 66.338 86.2094C65.9184 86.4156 65.4349 86.5187 64.8873 86.5187ZM40.4927 95.1053C40.4784 95.1196 40.4749 95.1338 40.482 95.148C40.4891 95.1622 40.5033 95.1694 40.5247 95.1694H43.4153C43.4509 95.1694 43.4829 95.18 43.5113 95.2014C43.5326 95.2298 43.5433 95.2618 43.5433 95.2973V96.332C43.5433 96.3676 43.5326 96.396 43.5113 96.4174C43.4829 96.4458 43.4509 96.46 43.4153 96.46H38.6153C38.5798 96.46 38.5478 96.4458 38.5193 96.4174C38.498 96.396 38.4873 96.3676 38.4873 96.332V95.3507C38.4873 95.2867 38.5087 95.2333 38.5513 95.1907C38.8998 94.8493 39.2553 94.4796 39.618 94.0813C39.9807 93.676 40.2082 93.4236 40.3007 93.324C40.4998 93.0893 40.7024 92.8654 40.9087 92.652C41.5558 91.9338 41.8793 91.4005 41.8793 91.052C41.8793 90.8031 41.7904 90.5969 41.6127 90.4334C41.4349 90.2769 41.2038 90.1987 40.9193 90.1987C40.6349 90.1987 40.4038 90.2769 40.226 90.4334C40.0482 90.5969 39.9593 90.8102 39.9593 91.0733V91.34C39.9593 91.3756 39.9451 91.4076 39.9167 91.436C39.8953 91.4574 39.8669 91.468 39.8313 91.468H38.5727C38.5371 91.468 38.5087 91.4574 38.4873 91.436C38.4589 91.4076 38.4446 91.3756 38.4446 91.34V90.8387C38.466 90.4547 38.5869 90.1133 38.8073 89.8147C39.0278 89.5231 39.3193 89.2991 39.682 89.1427C40.0518 88.9862 40.4642 88.908 40.9193 88.908C41.4242 88.908 41.8651 89.0005 42.242 89.1854C42.6118 89.3774 42.8998 89.6334 43.106 89.9534C43.3051 90.2734 43.4047 90.6289 43.4047 91.02C43.4047 91.3187 43.33 91.6245 43.1807 91.9374C43.0313 92.2502 42.8073 92.588 42.5087 92.9507C42.2882 93.228 42.05 93.5018 41.794 93.772C41.538 94.0422 41.1575 94.4334 40.6527 94.9454L40.4927 95.1053ZM47.01 96.5774C46.2278 96.5774 45.6091 96.3569 45.154 95.916C44.6989 95.4822 44.4713 94.8885 44.4713 94.1347V91.3187C44.4713 90.5791 44.6989 89.9925 45.154 89.5587C45.6091 89.1249 46.2278 88.908 47.01 88.908C47.7922 88.908 48.4144 89.1249 48.8767 89.5587C49.3318 89.9925 49.5593 90.5791 49.5593 91.3187V94.1347C49.5593 94.8885 49.3318 95.4822 48.8767 95.916C48.4144 96.3569 47.7922 96.5774 47.01 96.5774ZM47.01 95.2867C47.33 95.2867 47.586 95.1871 47.778 94.988C47.9629 94.796 48.0553 94.5365 48.0553 94.2094V91.276C48.0553 90.9489 47.9629 90.6893 47.778 90.4973C47.586 90.2982 47.33 90.1987 47.01 90.1987C46.6971 90.1987 46.4482 90.2982 46.2633 90.4973C46.0713 90.6893 45.9753 90.9489 45.9753 91.276V94.2094C45.9753 94.5365 46.0713 94.796 46.2633 94.988C46.4482 95.1871 46.6971 95.2867 47.01 95.2867ZM52.546 95.1053C52.5318 95.1196 52.5282 95.1338 52.5353 95.148C52.5424 95.1622 52.5567 95.1694 52.578 95.1694H55.4687C55.5042 95.1694 55.5362 95.18 55.5647 95.2014C55.586 95.2298 55.5967 95.2618 55.5967 95.2973V96.332C55.5967 96.3676 55.586 96.396 55.5647 96.4174C55.5362 96.4458 55.5042 96.46 55.4687 96.46H50.6687C50.6331 96.46 50.6047 96.4458 50.5833 96.4174C50.5549 96.396 50.5406 96.3676 50.5406 96.332V95.3507C50.5406 95.2867 50.562 95.2333 50.6047 95.1907C50.9531 94.8493 51.3087 94.4796 51.6713 94.0813C52.034 93.676 52.2615 93.4236 52.354 93.324C52.5531 93.0893 52.7558 92.8654 52.962 92.652C53.6091 91.9338 53.9327 91.4005 53.9327 91.052C53.9327 90.8031 53.8438 90.5969 53.666 90.4334C53.4882 90.2769 53.2571 90.1987 52.9727 90.1987C52.6882 90.1987 52.4571 90.2769 52.2793 90.4334C52.1015 90.5969 52.0127 90.8102 52.0127 91.0733V91.34C52.0127 91.3756 52.002 91.4076 51.9807 91.436C51.9522 91.4574 51.9202 91.468 51.8847 91.468H50.626C50.5904 91.468 50.562 91.4574 50.5406 91.436C50.5122 91.4076 50.498 91.3756 50.498 91.34V90.8387C50.5193 90.4547 50.6402 90.1133 50.8607 89.8147C51.0811 89.5231 51.3762 89.2991 51.746 89.1427C52.1087 88.9862 52.5175 88.908 52.9727 88.908C53.4775 88.908 53.9184 89.0005 54.2953 89.1854C54.6651 89.3774 54.9531 89.6334 55.1593 89.9534C55.3584 90.2734 55.458 90.6289 55.458 91.02C55.458 91.3187 55.3833 91.6245 55.234 91.9374C55.0847 92.2502 54.8607 92.588 54.562 92.9507C54.3415 93.228 54.1033 93.5018 53.8473 93.772C53.5913 94.0422 53.2109 94.4334 52.706 94.9454L52.546 95.1053ZM61.858 93.2067C61.8935 93.2067 61.9255 93.2173 61.954 93.2387C61.9753 93.2671 61.986 93.2991 61.986 93.3347V94.412C61.986 94.4476 61.9753 94.4796 61.954 94.508C61.9255 94.5294 61.8935 94.54 61.858 94.54H61.3993C61.3638 94.54 61.346 94.5578 61.346 94.5934V96.332C61.346 96.3676 61.3353 96.396 61.314 96.4174C61.2855 96.4458 61.2535 96.46 61.218 96.46H59.97C59.9344 96.46 59.906 96.4458 59.8847 96.4174C59.8562 96.396 59.842 96.3676 59.842 96.332V94.5934C59.842 94.5578 59.8242 94.54 59.7887 94.54H56.514C56.4784 94.54 56.45 94.5294 56.4287 94.508C56.4002 94.4796 56.386 94.4476 56.386 94.412V93.5587C56.386 93.516 56.3967 93.4627 56.418 93.3987L58.338 89.0893C58.3664 89.0253 58.4162 88.9934 58.4873 88.9934H59.8207C59.8704 88.9934 59.906 89.0076 59.9273 89.036C59.9415 89.0574 59.938 89.0929 59.9167 89.1427L58.1353 93.1427C58.1282 93.1569 58.1282 93.1711 58.1353 93.1854C58.1424 93.1996 58.1531 93.2067 58.1673 93.2067H59.7887C59.8242 93.2067 59.842 93.1889 59.842 93.1534V91.8307C59.842 91.7951 59.8562 91.7667 59.8847 91.7454C59.906 91.7169 59.9344 91.7027 59.97 91.7027H61.218C61.2535 91.7027 61.2855 91.7169 61.314 91.7454C61.3353 91.7667 61.346 91.7951 61.346 91.8307V93.1534C61.346 93.1889 61.3638 93.2067 61.3993 93.2067H61.858Z" fill="#252530"></path></g><defs><clipPath id="clip0_17258_8093"><rect width="100" height="112" fill="white" transform="translate(0.5)"></rect></clipPath></defs></svg> 