<?xml version="1.0" encoding="UTF-8"?> <svg xmlns="http://www.w3.org/2000/svg" width="101" height="112" viewBox="0 0 101 112" fill="none"><g clip-path="url(#clip0_17258_8085)"><path d="M9.00586 86.86L51.1392 108.3L91.6725 86.86V3.02002H9.00586V86.86Z" fill="white"></path><path d="M92.5276 3.34033L8.1543 88.3537L51.8876 110.007L92.5276 89.207V3.34033Z" fill="#F2F3F2"></path><path d="M6.23242 30.9666V88.6732L7.72576 89.4199L49.8591 110.86L51.1391 111.5L52.4191 110.86L93.0591 89.4199L94.5524 88.6732V0.246582H6.23242V30.9666ZM9.00576 87.0732V3.01992H91.7791V87.0732L51.1391 108.513L9.00576 87.0732Z" fill="#DCDEDC"></path><path d="M50.393 4.40707C50.8196 4.40707 51.2463 4.40707 51.673 4.51374L50.393 6.96707C48.473 6.8604 46.7663 8.35374 46.6596 10.2737C46.553 12.1937 48.0463 13.9004 49.9663 14.0071H50.393C51.2463 14.0071 52.0996 13.6871 52.7396 13.1537L54.1263 15.5004C53.0596 16.2471 51.7796 16.6737 50.393 16.6737C46.9796 16.7804 44.0996 14.2204 43.993 10.8071C43.8863 7.39374 46.4463 4.51374 49.8596 4.40707H50.393ZM54.7663 9.63374L56.3663 12.3004L54.7663 14.8604L53.273 12.3004H50.1796L51.7796 9.63374H54.7663ZM52.2063 8.67374C52.2063 8.24707 52.313 7.8204 52.5263 7.5004C52.7396 7.1804 53.1663 6.8604 53.4863 6.64707L53.6996 6.5404C54.1263 6.32707 54.233 6.2204 54.233 6.00707C54.233 5.79374 53.913 5.5804 53.6996 5.5804C53.273 5.5804 52.953 5.79374 52.7396 6.2204L52.2063 5.68707C52.313 5.47374 52.5263 5.2604 52.7396 5.04707C53.0596 4.83374 53.3796 4.83374 53.6996 4.83374C54.0196 4.83374 54.4463 4.9404 54.6596 5.15374C54.873 5.36707 55.0863 5.68707 55.0863 6.00707C55.0863 6.5404 54.7663 6.96707 54.1263 7.1804L53.8063 7.39374C53.4863 7.60707 53.273 7.71374 53.1663 8.03374H55.0863V8.78041L52.2063 8.67374ZM50.393 22.0071L60.5263 16.2471V0.24707H40.153V16.1404L50.393 22.0071ZM96.5796 59.7671H4.2063L0.792969 67.2337L4.2063 74.7004H96.5796L99.8863 67.2337L96.5796 59.7671Z" fill="#FF492C"></path><path d="M18.8212 43.756C19.5252 43.756 20.1439 43.8982 20.6772 44.1826C21.2105 44.4671 21.623 44.876 21.9145 45.4093C22.2061 45.9355 22.3519 46.54 22.3519 47.2226C22.3519 47.8982 22.2025 48.492 21.9039 49.004C21.5981 49.5088 21.1714 49.9035 20.6239 50.188C20.0763 50.4724 19.4434 50.6146 18.7252 50.6146H16.4532C16.4034 50.6146 16.3785 50.6431 16.3785 50.7V54.7746C16.3785 54.8315 16.3572 54.8777 16.3145 54.9133C16.279 54.9488 16.2327 54.9666 16.1759 54.9666H14.3092C14.2523 54.9666 14.2061 54.9488 14.1705 54.9133C14.135 54.8777 14.1172 54.8315 14.1172 54.7746V43.948C14.1172 43.8911 14.135 43.8448 14.1705 43.8093C14.2061 43.7737 14.2523 43.756 14.3092 43.756H18.8212ZM18.4799 48.812C18.9776 48.812 19.3723 48.6697 19.6639 48.3853C19.9625 48.1008 20.1119 47.7311 20.1119 47.276C20.1119 46.7995 19.9625 46.4191 19.6639 46.1346C19.3723 45.8431 18.9776 45.6973 18.4799 45.6973H16.4532C16.4034 45.6973 16.3785 45.7257 16.3785 45.7826V48.7266C16.3785 48.7835 16.4034 48.812 16.4532 48.812H18.4799ZM30.4265 50.0066C30.4834 50.412 30.5012 50.8635 30.4799 51.3613C30.4727 51.4964 30.4052 51.564 30.2772 51.564H25.3385C25.2745 51.564 25.2496 51.5888 25.2639 51.6386C25.2994 51.852 25.3599 52.0653 25.4452 52.2786C25.7225 52.876 26.2879 53.1746 27.1412 53.1746C27.8239 53.1675 28.3607 52.8902 28.7519 52.3426C28.8016 52.2786 28.8514 52.2466 28.9012 52.2466C28.9296 52.2466 28.9652 52.268 29.0079 52.3106L30.1599 53.4413C30.2167 53.4982 30.2452 53.548 30.2452 53.5906C30.2452 53.612 30.2239 53.6546 30.1812 53.7186C29.8256 54.1595 29.3741 54.4973 28.8265 54.732C28.2647 54.9737 27.6532 55.0946 26.9919 55.0946C26.0816 55.0946 25.3065 54.8884 24.6665 54.476C24.0336 54.0564 23.5785 53.4733 23.3012 52.7266C23.0736 52.1933 22.9599 51.4964 22.9599 50.636C22.9599 50.0457 23.0416 49.5266 23.2052 49.0786C23.4541 48.3248 23.8843 47.724 24.4959 47.276C25.1074 46.828 25.8327 46.604 26.6719 46.604C27.7385 46.604 28.5954 46.9133 29.2425 47.532C29.8896 48.1506 30.2843 48.9755 30.4265 50.0066ZM26.6932 48.556C26.0176 48.556 25.5732 48.8688 25.3599 49.4946C25.3172 49.6368 25.2816 49.8075 25.2532 50.0066C25.2532 50.0564 25.2816 50.0813 25.3385 50.0813H28.1012C28.1652 50.0813 28.1865 50.0564 28.1652 50.0066C28.1083 49.7008 28.0799 49.5515 28.0799 49.5586C27.9874 49.2386 27.8203 48.9897 27.5785 48.812C27.3439 48.6413 27.0487 48.556 26.6932 48.556ZM35.9732 46.636C36.3572 46.636 36.663 46.7106 36.8905 46.86C36.9687 46.9026 36.9972 46.9808 36.9759 47.0946L36.6452 48.9186C36.6381 49.0466 36.5634 49.0857 36.4212 49.036C36.2576 48.9791 36.0727 48.9506 35.8665 48.9506C35.7812 48.9506 35.6603 48.9613 35.5039 48.9826C35.127 49.0182 34.8034 49.1604 34.5332 49.4093C34.2701 49.6582 34.1385 49.9924 34.1385 50.412V54.7746C34.1385 54.8315 34.1172 54.8777 34.0745 54.9133C34.039 54.9488 33.9963 54.9666 33.9465 54.9666H32.0692C32.0194 54.9666 31.9732 54.9488 31.9305 54.9133C31.895 54.8777 31.8772 54.8315 31.8772 54.7746V46.9346C31.8772 46.8848 31.895 46.8386 31.9305 46.796C31.9732 46.7604 32.0194 46.7426 32.0692 46.7426H33.9465C33.9963 46.7426 34.039 46.7604 34.0745 46.796C34.1172 46.8386 34.1385 46.8848 34.1385 46.9346V47.5426C34.1385 47.5711 34.1492 47.5924 34.1705 47.6066C34.1847 47.6208 34.199 47.6137 34.2132 47.5853C34.6541 46.9524 35.2407 46.636 35.9732 46.636ZM42.7892 46.732C42.8461 46.732 42.8923 46.7497 42.9279 46.7853C42.9634 46.8208 42.9812 46.8671 42.9812 46.924V48.4386C42.9812 48.4955 42.9634 48.5417 42.9279 48.5773C42.8923 48.6128 42.8461 48.6306 42.7892 48.6306H41.2425C41.1856 48.6306 41.1572 48.6555 41.1572 48.7053V54.7746C41.1572 54.8315 41.1394 54.8777 41.1039 54.9133C41.0683 54.9488 41.0221 54.9666 40.9652 54.9666H39.0985C39.0416 54.9666 38.9954 54.9488 38.9599 54.9133C38.9243 54.8777 38.9065 54.8315 38.9065 54.7746V48.7053C38.9065 48.6555 38.8781 48.6306 38.8212 48.6306H37.8825C37.8256 48.6306 37.7794 48.6128 37.7439 48.5773C37.7083 48.5417 37.6905 48.4955 37.6905 48.4386V46.924C37.6905 46.8671 37.7083 46.8208 37.7439 46.7853C37.7794 46.7497 37.8256 46.732 37.8825 46.732H38.8212C38.8781 46.732 38.9065 46.7035 38.9065 46.6466V46.2946C38.9065 45.6333 39.0061 45.1177 39.2052 44.748C39.4114 44.3853 39.7385 44.1257 40.1865 43.9693C40.6416 43.8128 41.271 43.7453 42.0745 43.7666H42.6825C42.7323 43.7666 42.775 43.7844 42.8105 43.82C42.8532 43.8626 42.8745 43.9088 42.8745 43.9586V45.2493C42.8745 45.3062 42.8532 45.3524 42.8105 45.388C42.775 45.4306 42.7323 45.452 42.6825 45.452H42.1492C41.7794 45.4591 41.5199 45.5337 41.3705 45.676C41.2283 45.8253 41.1572 46.092 41.1572 46.476V46.6466C41.1572 46.7035 41.1856 46.732 41.2425 46.732H42.7892ZM47.4292 55.0946C46.5332 55.0946 45.7652 54.86 45.1252 54.3906C44.4852 53.9213 44.0479 53.2813 43.8132 52.4706C43.6639 51.9728 43.5892 51.4288 43.5892 50.8386C43.5892 50.2128 43.6639 49.6475 43.8132 49.1426C44.0621 48.3533 44.5065 47.7346 45.1465 47.2866C45.7865 46.8386 46.5545 46.6146 47.4505 46.6146C48.3181 46.6146 49.0647 46.8351 49.6905 47.276C50.3021 47.724 50.7359 48.3426 50.9919 49.132C51.1696 49.6653 51.2585 50.2235 51.2585 50.8066C51.2585 51.3826 51.1839 51.9231 51.0345 52.428C50.7999 53.26 50.3625 53.9106 49.7225 54.38C49.0896 54.8564 48.3252 55.0946 47.4292 55.0946ZM47.4292 53.164C47.7776 53.164 48.0763 53.0573 48.3252 52.844C48.5741 52.6306 48.7519 52.3355 48.8585 51.9586C48.9367 51.6173 48.9759 51.244 48.9759 50.8386C48.9759 50.3906 48.9367 50.0137 48.8585 49.708C48.7376 49.3453 48.5563 49.0608 48.3145 48.8546C48.0656 48.6555 47.7634 48.556 47.4079 48.556C47.0523 48.556 46.7536 48.6555 46.5119 48.8546C46.2701 49.0608 46.0959 49.3453 45.9892 49.708C45.9039 49.9568 45.8612 50.3337 45.8612 50.8386C45.8612 51.3222 45.9003 51.6955 45.9785 51.9586C46.0852 52.3355 46.263 52.6306 46.5119 52.844C46.7607 53.0573 47.0665 53.164 47.4292 53.164ZM56.8052 46.636C57.1892 46.636 57.495 46.7106 57.7225 46.86C57.8079 46.9026 57.8363 46.9808 57.8079 47.0946L57.4772 48.9186C57.4701 49.0466 57.3954 49.0857 57.2532 49.036C57.0896 48.9791 56.9047 48.9506 56.6985 48.9506C56.6132 48.9506 56.4959 48.9613 56.3465 48.9826C55.9625 49.0182 55.6354 49.1604 55.3652 49.4093C55.1021 49.6582 54.9705 49.9924 54.9705 50.412V54.7746C54.9705 54.8315 54.9492 54.8777 54.9065 54.9133C54.871 54.9488 54.8247 54.9666 54.7679 54.9666H52.9012C52.8514 54.9666 52.8052 54.9488 52.7625 54.9133C52.727 54.8777 52.7092 54.8315 52.7092 54.7746V46.9346C52.7092 46.8848 52.727 46.8386 52.7625 46.796C52.8052 46.7604 52.8514 46.7426 52.9012 46.7426H54.7679C54.8247 46.7426 54.871 46.7604 54.9065 46.796C54.9492 46.8386 54.9705 46.8848 54.9705 46.9346V47.5426C54.9705 47.5711 54.9776 47.5924 54.9919 47.6066C55.0203 47.6208 55.0381 47.6137 55.0452 47.5853C55.4861 46.9524 56.0727 46.636 56.8052 46.636ZM67.9519 46.6146C68.7839 46.6146 69.4345 46.8635 69.9039 47.3613C70.3732 47.8662 70.6079 48.5737 70.6079 49.484V54.7746C70.6079 54.8315 70.5901 54.8777 70.5545 54.9133C70.519 54.9488 70.4763 54.9666 70.4265 54.9666H68.5492C68.4994 54.9666 68.4532 54.9488 68.4105 54.9133C68.375 54.8777 68.3572 54.8315 68.3572 54.7746V49.9746C68.3572 49.5408 68.247 49.196 68.0265 48.94C67.799 48.684 67.4967 48.556 67.1199 48.556C66.7501 48.556 66.4479 48.684 66.2132 48.94C65.9785 49.196 65.8612 49.5373 65.8612 49.964V54.7746C65.8612 54.8315 65.8434 54.8777 65.8079 54.9133C65.7652 54.9488 65.719 54.9666 65.6692 54.9666H63.8132C63.7563 54.9666 63.7101 54.9488 63.6745 54.9133C63.639 54.8777 63.6212 54.8315 63.6212 54.7746V49.9746C63.6212 49.548 63.5039 49.2031 63.2692 48.94C63.0345 48.684 62.7287 48.556 62.3519 48.556C62.0176 48.556 61.7332 48.6555 61.4985 48.8546C61.271 49.0608 61.1359 49.3453 61.0932 49.708V54.7746C61.0932 54.8315 61.0754 54.8777 61.0399 54.9133C60.9972 54.9488 60.951 54.9666 60.9012 54.9666H59.0345C58.9776 54.9666 58.9314 54.9488 58.8959 54.9133C58.8603 54.8777 58.8425 54.8315 58.8425 54.7746V46.9346C58.8425 46.8848 58.8603 46.8386 58.8959 46.796C58.9314 46.7604 58.9776 46.7426 59.0345 46.7426H60.9012C60.951 46.7426 60.9972 46.7604 61.0399 46.796C61.0754 46.8386 61.0932 46.8848 61.0932 46.9346V47.564C61.0932 47.5924 61.1039 47.6137 61.1252 47.628C61.1465 47.6351 61.1679 47.6208 61.1892 47.5853C61.6301 46.9382 62.3092 46.6146 63.2265 46.6146C63.7599 46.6146 64.2256 46.7284 64.6239 46.956C65.0221 47.1764 65.3279 47.4964 65.5412 47.916C65.5696 47.98 65.6087 47.98 65.6585 47.916C65.8861 47.4751 66.2025 47.148 66.6079 46.9346C67.0061 46.7213 67.4541 46.6146 67.9519 46.6146ZM79.4292 50.0066C79.4932 50.412 79.5145 50.8635 79.4932 51.3613C79.479 51.4964 79.4079 51.564 79.2799 51.564H74.3412C74.2772 51.564 74.2559 51.5888 74.2772 51.6386C74.3056 51.852 74.3625 52.0653 74.4479 52.2786C74.7252 52.876 75.2905 53.1746 76.1439 53.1746C76.8265 53.1675 77.367 52.8902 77.7652 52.3426C77.8079 52.2786 77.8541 52.2466 77.9039 52.2466C77.9394 52.2466 77.9785 52.268 78.0212 52.3106L79.1732 53.4413C79.223 53.4982 79.2479 53.548 79.2479 53.5906C79.2479 53.612 79.2265 53.6546 79.1839 53.7186C78.8354 54.1595 78.3839 54.4973 77.8292 54.732C77.2745 54.9737 76.6665 55.0946 76.0052 55.0946C75.0879 55.0946 74.3128 54.8884 73.6799 54.476C73.0399 54.0564 72.5812 53.4733 72.3039 52.7266C72.0834 52.1933 71.9732 51.4964 71.9732 50.636C71.9732 50.0457 72.0514 49.5266 72.2079 49.0786C72.4567 48.3248 72.887 47.724 73.4985 47.276C74.1101 46.828 74.839 46.604 75.6852 46.604C76.7519 46.604 77.6087 46.9133 78.2559 47.532C78.903 48.1506 79.2941 48.9755 79.4292 50.0066ZM75.6959 48.556C75.0274 48.556 74.5865 48.8688 74.3732 49.4946C74.3305 49.6368 74.2914 49.8075 74.2559 50.0066C74.2559 50.0564 74.2843 50.0813 74.3412 50.0813H77.1039C77.1679 50.0813 77.1892 50.0564 77.1679 50.0066C77.1181 49.7008 77.0932 49.5515 77.0932 49.5586C76.9936 49.2386 76.8265 48.9897 76.5919 48.812C76.3501 48.6413 76.0514 48.556 75.6959 48.556ZM84.9759 46.636C85.3599 46.636 85.6656 46.7106 85.8932 46.86C85.9785 46.9026 86.0105 46.9808 85.9892 47.0946L85.6585 48.9186C85.6443 49.0466 85.5661 49.0857 85.4239 49.036C85.2674 48.9791 85.0825 48.9506 84.8692 48.9506C84.7839 48.9506 84.6665 48.9613 84.5172 48.9826C84.1332 49.0182 83.8061 49.1604 83.5359 49.4093C83.2728 49.6582 83.1412 49.9924 83.1412 50.412V54.7746C83.1412 54.8315 83.1234 54.8777 83.0879 54.9133C83.0452 54.9488 82.999 54.9666 82.9492 54.9666H81.0719C81.0221 54.9666 80.9794 54.9488 80.9439 54.9133C80.9012 54.8777 80.8799 54.8315 80.8799 54.7746V46.9346C80.8799 46.8848 80.9012 46.8386 80.9439 46.796C80.9794 46.7604 81.0221 46.7426 81.0719 46.7426H82.9492C82.999 46.7426 83.0452 46.7604 83.0879 46.796C83.1234 46.8386 83.1412 46.8848 83.1412 46.9346V47.5426C83.1412 47.5711 83.1519 47.5924 83.1732 47.6066C83.1945 47.6208 83.2123 47.6137 83.2265 47.5853C83.6603 46.9524 84.2434 46.636 84.9759 46.636ZM40.9652 27.9586C40.9652 27.9088 40.983 27.8626 41.0185 27.82C41.0541 27.7844 41.0967 27.7666 41.1465 27.7666H43.0239C43.0736 27.7666 43.1199 27.7844 43.1625 27.82C43.1981 27.8626 43.2159 27.9088 43.2159 27.9586V38.7746C43.2159 38.8315 43.1981 38.8777 43.1625 38.9133C43.1199 38.9488 43.0736 38.9666 43.0239 38.9666H41.1465C41.0967 38.9666 41.0541 38.9488 41.0185 38.9133C40.983 38.8777 40.9652 38.8315 40.9652 38.7746V34.3586C40.9652 34.3088 40.9367 34.284 40.8799 34.284H37.3385C37.2887 34.284 37.2639 34.3088 37.2639 34.3586V38.7746C37.2639 38.8315 37.2461 38.8777 37.2105 38.9133C37.1679 38.9488 37.1216 38.9666 37.0719 38.9666H35.1945C35.1447 38.9666 35.1021 38.9488 35.0665 38.9133C35.0239 38.8777 35.0025 38.8315 35.0025 38.7746V27.9586C35.0025 27.9088 35.0239 27.8626 35.0665 27.82C35.1021 27.7844 35.1447 27.7666 35.1945 27.7666H37.0719C37.1216 27.7666 37.1679 27.7844 37.2105 27.82C37.2461 27.8626 37.2639 27.9088 37.2639 27.9586V32.2573C37.2639 32.3142 37.2887 32.3426 37.3385 32.3426H40.8799C40.9367 32.3426 40.9652 32.3142 40.9652 32.2573V27.9586ZM46.1279 29.8146C45.7652 29.8146 45.463 29.6937 45.2212 29.452C44.9794 29.2173 44.8585 28.9186 44.8585 28.556C44.8585 28.1791 44.9759 27.8733 45.2105 27.6386C45.4452 27.404 45.751 27.2866 46.1279 27.2866C46.5047 27.2866 46.8105 27.404 47.0452 27.6386C47.2799 27.8733 47.3972 28.1791 47.3972 28.556C47.3972 28.9186 47.2763 29.2173 47.0345 29.452C46.7927 29.6937 46.4905 29.8146 46.1279 29.8146ZM45.1679 38.9666C45.1181 38.9666 45.0719 38.9488 45.0292 38.9133C44.9936 38.8777 44.9759 38.8315 44.9759 38.7746V30.924C44.9759 30.8671 44.9936 30.8208 45.0292 30.7853C45.0719 30.7497 45.1181 30.732 45.1679 30.732H47.0452C47.095 30.732 47.1376 30.7497 47.1732 30.7853C47.2159 30.8208 47.2372 30.8671 47.2372 30.924V38.7746C47.2372 38.8315 47.2159 38.8777 47.1732 38.9133C47.1376 38.9488 47.095 38.9666 47.0452 38.9666H45.1679ZM54.0105 30.9346C54.0105 30.8848 54.0319 30.8386 54.0745 30.796C54.1101 30.7604 54.1527 30.7426 54.2025 30.7426H56.0799C56.1296 30.7426 56.1759 30.7604 56.2185 30.796C56.2541 30.8386 56.2719 30.8848 56.2719 30.9346V38.2306C56.2719 39.6244 55.8701 40.62 55.0665 41.2173C54.263 41.8217 53.2247 42.124 51.9519 42.124C51.575 42.124 51.159 42.0955 50.7039 42.0386C50.5972 42.0244 50.5439 41.9568 50.5439 41.836L50.6079 40.1826C50.6079 40.0404 50.6825 39.98 50.8319 40.0013C51.2159 40.0653 51.5679 40.0973 51.8879 40.0973C52.5705 40.0973 53.0967 39.9515 53.4665 39.66C53.8292 39.3542 54.0105 38.8742 54.0105 38.22C54.0105 38.1844 53.9999 38.1631 53.9785 38.156C53.9572 38.1488 53.9359 38.1595 53.9145 38.188C53.5092 38.6217 52.919 38.8386 52.1439 38.8386C51.447 38.8386 50.8105 38.6715 50.2345 38.3373C49.6514 38.0031 49.2354 37.4626 48.9865 36.716C48.8301 36.2253 48.7519 35.5888 48.7519 34.8066C48.7519 33.9746 48.8479 33.2991 49.0399 32.78C49.2603 32.1257 49.6372 31.6031 50.1705 31.212C50.7039 30.8137 51.3261 30.6146 52.0372 30.6146C52.855 30.6146 53.4807 30.86 53.9145 31.3506C53.9359 31.372 53.9572 31.3791 53.9785 31.372C53.9999 31.3648 54.0105 31.3471 54.0105 31.3186V30.9346ZM53.8825 36.0973C53.9679 35.7844 54.0105 35.3471 54.0105 34.7853C54.0105 34.4582 53.9999 34.2057 53.9785 34.028C53.9572 33.8431 53.9216 33.6688 53.8719 33.5053C53.7723 33.2208 53.6123 32.9897 53.3919 32.812C53.1714 32.6413 52.8941 32.556 52.5599 32.556C52.2399 32.556 51.9696 32.6413 51.7492 32.812C51.5216 32.9897 51.3545 33.2208 51.2479 33.5053C51.0985 33.8253 51.0239 34.2591 51.0239 34.8066C51.0239 35.404 51.0879 35.8306 51.2159 36.0866C51.3083 36.3782 51.4754 36.6093 51.7172 36.78C51.959 36.9577 52.2434 37.0466 52.5705 37.0466C52.9119 37.0466 53.1963 36.9577 53.4239 36.78C53.6443 36.6093 53.7972 36.3817 53.8825 36.0973ZM62.1812 30.6146C63.0345 30.6146 63.7207 30.8777 64.2399 31.404C64.759 31.9231 65.0185 32.6306 65.0185 33.5266V38.7746C65.0185 38.8315 65.0007 38.8777 64.9652 38.9133C64.9296 38.9488 64.887 38.9666 64.8372 38.9666H62.9599C62.9101 38.9666 62.8639 38.9488 62.8212 38.9133C62.7856 38.8777 62.7679 38.8315 62.7679 38.7746V33.9853C62.7679 33.5657 62.647 33.2208 62.4052 32.9506C62.1705 32.6875 61.8541 32.556 61.4559 32.556C61.0647 32.556 60.7483 32.6875 60.5065 32.9506C60.2647 33.2208 60.1439 33.5657 60.1439 33.9853V38.7746C60.1439 38.8315 60.1261 38.8777 60.0905 38.9133C60.055 38.9488 60.0087 38.9666 59.9519 38.9666H58.0852C58.0283 38.9666 57.9821 38.9488 57.9465 38.9133C57.911 38.8777 57.8932 38.8315 57.8932 38.7746V27.9586C57.8932 27.9088 57.911 27.8626 57.9465 27.82C57.9821 27.7844 58.0283 27.7666 58.0852 27.7666H59.9519C60.0087 27.7666 60.055 27.7844 60.0905 27.82C60.1261 27.8626 60.1439 27.9088 60.1439 27.9586V31.5C60.1439 31.5284 60.1545 31.5497 60.1759 31.564C60.1972 31.5711 60.2114 31.564 60.2185 31.5426C60.6594 30.924 61.3136 30.6146 62.1812 30.6146Z" fill="#252530"></path><path d="M29.1974 64.0118C29.2329 63.9549 29.2827 63.9265 29.3467 63.9265H30.3281C30.3636 63.9265 30.3921 63.9407 30.4134 63.9692C30.4418 63.9905 30.4561 64.0189 30.4561 64.0545V71.2652C30.4561 71.3007 30.4418 71.3292 30.4134 71.3505C30.3921 71.3789 30.3636 71.3932 30.3281 71.3932H29.3467C29.3112 71.3932 29.2792 71.3789 29.2507 71.3505C29.2294 71.3292 29.2187 71.3007 29.2187 71.2652V66.1772C29.2187 66.1558 29.2116 66.1416 29.1974 66.1345C29.1761 66.1274 29.1618 66.1345 29.1547 66.1558L27.8214 68.2038C27.7858 68.2607 27.7361 68.2892 27.6721 68.2892H27.1814C27.1174 68.2892 27.0676 68.2607 27.0321 68.2038L25.6881 66.1665C25.6809 66.1452 25.6703 66.138 25.6561 66.1452C25.6347 66.1523 25.6241 66.1665 25.6241 66.1878V71.2652C25.6241 71.3007 25.6098 71.3292 25.5814 71.3505C25.5601 71.3789 25.5316 71.3932 25.4961 71.3932H24.5147C24.4792 71.3932 24.4507 71.3789 24.4294 71.3505C24.4009 71.3292 24.3867 71.3007 24.3867 71.2652V64.0545C24.3867 64.0189 24.4009 63.9905 24.4294 63.9692C24.4507 63.9407 24.4792 63.9265 24.5147 63.9265H25.4961C25.5601 63.9265 25.6098 63.9549 25.6454 64.0118L27.3841 66.6465C27.3983 66.6607 27.4125 66.6678 27.4267 66.6678C27.4409 66.6678 27.4516 66.6607 27.4587 66.6465L29.1974 64.0118ZM32.6 65.1958C32.3796 65.1958 32.1983 65.1247 32.0561 64.9825C31.9138 64.8403 31.8427 64.6589 31.8427 64.4385C31.8427 64.218 31.9138 64.0367 32.0561 63.8945C32.1983 63.7523 32.3796 63.6812 32.6 63.6812C32.8205 63.6812 33.0018 63.7523 33.1441 63.8945C33.2863 64.0367 33.3574 64.218 33.3574 64.4385C33.3574 64.6589 33.2863 64.8403 33.1441 64.9825C33.0018 65.1247 32.8205 65.1958 32.6 65.1958ZM32.0881 71.3932C32.0525 71.3932 32.0241 71.3789 32.0027 71.3505C31.9743 71.3292 31.9601 71.3007 31.9601 71.2652V66.0598C31.9601 66.0243 31.9743 65.9958 32.0027 65.9745C32.0241 65.946 32.0525 65.9318 32.0881 65.9318H33.0694C33.1049 65.9318 33.1369 65.946 33.1654 65.9745C33.1867 65.9958 33.1974 66.0243 33.1974 66.0598V71.2652C33.1974 71.3007 33.1867 71.3292 33.1654 71.3505C33.1369 71.3789 33.1049 71.3932 33.0694 71.3932H32.0881ZM37.9974 64.0545C37.9974 64.0189 38.0116 63.9905 38.0401 63.9692C38.0614 63.9407 38.0898 63.9265 38.1254 63.9265H39.1067C39.1423 63.9265 39.1743 63.9407 39.2027 63.9692C39.2241 63.9905 39.2347 64.0189 39.2347 64.0545V71.2652C39.2347 71.3007 39.2241 71.3292 39.2027 71.3505C39.1743 71.3789 39.1423 71.3932 39.1067 71.3932H38.1254C38.0898 71.3932 38.0614 71.3789 38.0401 71.3505C38.0116 71.3292 37.9974 71.3007 37.9974 71.2652V70.9452C37.9974 70.9238 37.9903 70.9096 37.976 70.9025C37.9618 70.8954 37.9476 70.9025 37.9334 70.9238C37.6205 71.2936 37.2116 71.4785 36.7067 71.4785C36.2018 71.4785 35.7752 71.3469 35.4267 71.0838C35.0783 70.8207 34.8258 70.4545 34.6694 69.9852C34.5414 69.5869 34.4774 69.1425 34.4774 68.6518C34.4774 68.1469 34.5378 67.7132 34.6587 67.3505C34.8152 66.8812 35.0676 66.5149 35.4161 66.2518C35.7645 65.9887 36.2018 65.8572 36.7281 65.8572C37.2187 65.8572 37.6205 66.0349 37.9334 66.3905C37.9476 66.4047 37.9618 66.4118 37.976 66.4118C37.9903 66.4047 37.9974 66.3905 37.9974 66.3692V64.0545ZM37.7414 69.8998C37.9049 69.6083 37.9867 69.1958 37.9867 68.6625C37.9867 68.1078 37.8978 67.6847 37.7201 67.3932C37.5281 67.0803 37.2578 66.9238 36.9094 66.9238C36.5467 66.9238 36.2623 67.0732 36.0561 67.3718C35.8427 67.6847 35.7361 68.1185 35.7361 68.6732C35.7361 69.1709 35.8214 69.5798 35.9921 69.8998C36.1912 70.2412 36.4934 70.4118 36.8987 70.4118C37.2614 70.4118 37.5423 70.2412 37.7414 69.8998ZM40.3867 68.7158C40.3512 68.7158 40.3227 68.7052 40.3014 68.6838C40.2729 68.6554 40.2587 68.6234 40.2587 68.5878V67.7772C40.2587 67.7416 40.2729 67.7096 40.3014 67.6812C40.3227 67.6598 40.3512 67.6492 40.3867 67.6492H43.7467C43.7823 67.6492 43.8107 67.6598 43.8321 67.6812C43.8605 67.7096 43.8747 67.7416 43.8747 67.7772V68.5878C43.8747 68.6234 43.8605 68.6554 43.8321 68.6838C43.8107 68.7052 43.7823 68.7158 43.7467 68.7158H40.3867ZM49.8161 64.0118C49.8516 63.9549 49.9014 63.9265 49.9654 63.9265H50.9467C50.9823 63.9265 51.0143 63.9407 51.0427 63.9692C51.064 63.9905 51.0747 64.0189 51.0747 64.0545V71.2652C51.0747 71.3007 51.064 71.3292 51.0427 71.3505C51.0143 71.3789 50.9823 71.3932 50.9467 71.3932H49.9654C49.9298 71.3932 49.9014 71.3789 49.88 71.3505C49.8516 71.3292 49.8374 71.3007 49.8374 71.2652V66.1772C49.8374 66.1558 49.8303 66.1416 49.8161 66.1345C49.7947 66.1274 49.7805 66.1345 49.7734 66.1558L48.4401 68.2038C48.4045 68.2607 48.3547 68.2892 48.2907 68.2892H47.8001C47.7361 68.2892 47.6863 68.2607 47.6507 68.2038L46.3067 66.1665C46.2996 66.1452 46.2889 66.138 46.2747 66.1452C46.2534 66.1523 46.2427 66.1665 46.2427 66.1878V71.2652C46.2427 71.3007 46.232 71.3292 46.2107 71.3505C46.1823 71.3789 46.1503 71.3932 46.1147 71.3932H45.1334C45.0978 71.3932 45.0694 71.3789 45.048 71.3505C45.0196 71.3292 45.0054 71.3007 45.0054 71.2652V64.0545C45.0054 64.0189 45.0196 63.9905 45.048 63.9692C45.0694 63.9407 45.0978 63.9265 45.1334 63.9265H46.1147C46.1787 63.9265 46.2285 63.9549 46.264 64.0118L48.0027 66.6465C48.0169 66.6607 48.0312 66.6678 48.0454 66.6678C48.0596 66.6678 48.0703 66.6607 48.0774 66.6465L49.8161 64.0118ZM54.5947 65.8572C55.0427 65.8572 55.4374 65.9354 55.7787 66.0918C56.1201 66.2483 56.3832 66.4616 56.568 66.7318C56.7529 67.0092 56.8454 67.322 56.8454 67.6705V71.2652C56.8454 71.3007 56.8347 71.3292 56.8134 71.3505C56.7849 71.3789 56.7529 71.3932 56.7174 71.3932H55.736C55.7005 71.3932 55.6721 71.3789 55.6507 71.3505C55.6223 71.3292 55.6081 71.3007 55.6081 71.2652V70.9238C55.6081 70.9025 55.6009 70.8883 55.5867 70.8812C55.5725 70.8812 55.5583 70.8883 55.544 70.9025C55.1956 71.2865 54.6907 71.4785 54.0294 71.4785C53.4961 71.4785 53.0587 71.3434 52.7174 71.0732C52.3689 70.8029 52.1947 70.4012 52.1947 69.8678C52.1947 69.3132 52.3903 68.8794 52.7814 68.5665C53.1654 68.2607 53.7094 68.1078 54.4134 68.1078H55.5547C55.5903 68.1078 55.6081 68.09 55.6081 68.0545V67.7985C55.6081 67.5212 55.5263 67.3043 55.3627 67.1478C55.1992 66.9985 54.9538 66.9238 54.6267 66.9238C54.3565 66.9238 54.1396 66.9736 53.976 67.0732C53.8054 67.1656 53.6987 67.2972 53.656 67.4678C53.6347 67.5532 53.5849 67.5887 53.5067 67.5745L52.472 67.4465C52.4365 67.4394 52.4081 67.4287 52.3867 67.4145C52.3583 67.3932 52.3476 67.3683 52.3547 67.3398C52.4116 66.906 52.6463 66.5505 53.0587 66.2732C53.4641 65.9958 53.976 65.8572 54.5947 65.8572ZM54.3387 70.4972C54.6872 70.4972 54.9858 70.4047 55.2347 70.2198C55.4836 70.0349 55.6081 69.8003 55.6081 69.5158V69.0145C55.6081 68.9789 55.5903 68.9612 55.5547 68.9612H54.6587C54.2818 68.9612 53.9867 69.0323 53.7734 69.1745C53.5529 69.3167 53.4427 69.5194 53.4427 69.7825C53.4427 70.01 53.528 70.1843 53.6987 70.3052C53.8623 70.4332 54.0756 70.4972 54.3387 70.4972ZM60.6214 65.8785C60.8489 65.8785 61.048 65.9247 61.2187 66.0172C61.2756 66.0456 61.2969 66.0989 61.2827 66.1772L61.1014 67.1372C61.0943 67.2225 61.0445 67.2474 60.952 67.2118C60.8454 67.1763 60.7209 67.1585 60.5787 67.1585C60.4863 67.1585 60.4152 67.162 60.3654 67.1692C60.0667 67.1834 59.8178 67.2865 59.6187 67.4785C59.4196 67.6776 59.32 67.9336 59.32 68.2465V71.2652C59.32 71.3007 59.3094 71.3292 59.2881 71.3505C59.2596 71.3789 59.2276 71.3932 59.1921 71.3932H58.2107C58.1752 71.3932 58.1467 71.3789 58.1254 71.3505C58.0969 71.3292 58.0827 71.3007 58.0827 71.2652V66.0705C58.0827 66.0349 58.0969 66.0029 58.1254 65.9745C58.1467 65.9532 58.1752 65.9425 58.2107 65.9425H59.1921C59.2276 65.9425 59.2596 65.9532 59.2881 65.9745C59.3094 66.0029 59.32 66.0349 59.32 66.0705V66.5505C59.32 66.5789 59.3272 66.5932 59.3414 66.5932C59.3485 66.6003 59.3592 66.5932 59.3734 66.5718C59.6721 66.1096 60.0881 65.8785 60.6214 65.8785ZM62.2214 71.3932C62.1858 71.3932 62.1574 71.3789 62.136 71.3505C62.1076 71.3292 62.0934 71.3007 62.0934 71.2652V64.0545C62.0934 64.0189 62.1076 63.9905 62.136 63.9692C62.1574 63.9407 62.1858 63.9265 62.2214 63.9265H63.2027C63.2383 63.9265 63.2667 63.9407 63.2881 63.9692C63.3165 63.9905 63.3307 64.0189 63.3307 64.0545V67.9052C63.3307 67.9265 63.3378 67.9407 63.352 67.9478C63.3663 67.9549 63.3805 67.9478 63.3947 67.9265L65.1227 66.0172C65.1725 65.9674 65.2258 65.9425 65.2827 65.9425H66.4134C66.4845 65.9425 66.5201 65.9674 66.5201 66.0172C66.5201 66.0385 66.5094 66.0669 66.4881 66.1025L65.1334 67.7238C65.112 67.7452 65.1085 67.77 65.1227 67.7985L66.7227 71.2438C66.7369 71.2723 66.744 71.2936 66.744 71.3078C66.744 71.3647 66.7049 71.3932 66.6267 71.3932H65.5921C65.5209 71.3932 65.4712 71.3612 65.4427 71.2972L64.28 68.5878C64.2729 68.5736 64.2587 68.5629 64.2374 68.5558C64.2232 68.5558 64.2125 68.5629 64.2054 68.5772L63.352 69.5585C63.3378 69.5869 63.3307 69.6118 63.3307 69.6332V71.2652C63.3307 71.3007 63.3165 71.3292 63.2881 71.3505C63.2667 71.3789 63.2383 71.3932 63.2027 71.3932H62.2214ZM71.8747 68.0545C71.9032 68.2323 71.9174 68.4314 71.9174 68.6518L71.9067 68.9825C71.9067 69.0678 71.864 69.1105 71.7787 69.1105H68.44C68.4045 69.1105 68.3867 69.1283 68.3867 69.1638C68.4081 69.3985 68.44 69.5585 68.4827 69.6438C68.6534 70.1558 69.0694 70.4154 69.7307 70.4225C70.2143 70.4225 70.5983 70.2234 70.8827 69.8252C70.9112 69.7825 70.9467 69.7612 70.9894 69.7612C71.0178 69.7612 71.0427 69.7718 71.064 69.7932L71.7254 70.3372C71.7894 70.3869 71.8 70.4438 71.7574 70.5078C71.5369 70.8207 71.2418 71.0625 70.872 71.2332C70.5094 71.4038 70.104 71.4892 69.656 71.4892C69.1014 71.4892 68.6285 71.3647 68.2374 71.1158C67.8534 70.8669 67.5725 70.5185 67.3947 70.0705C67.2312 69.6865 67.1494 69.1532 67.1494 68.4705C67.1494 68.058 67.192 67.7238 67.2774 67.4678C67.4196 66.97 67.6898 66.5754 68.0881 66.2838C68.4792 65.9994 68.952 65.8572 69.5067 65.8572C70.9076 65.8572 71.6969 66.5896 71.8747 68.0545ZM69.5067 66.9238C69.2436 66.9238 69.0232 66.9914 68.8454 67.1265C68.6747 67.2545 68.5538 67.4358 68.4827 67.6705C68.44 67.7914 68.4116 67.9478 68.3974 68.1398C68.3832 68.1754 68.3974 68.1932 68.44 68.1932H70.6054C70.6409 68.1932 70.6587 68.1754 70.6587 68.1398C70.6445 67.962 70.6232 67.8269 70.5947 67.7345C70.5307 67.4785 70.4063 67.2794 70.2214 67.1372C70.0294 66.9949 69.7912 66.9238 69.5067 66.9238ZM75.8321 66.8172C75.8321 66.8527 75.8214 66.8812 75.8 66.9025C75.7716 66.9309 75.7396 66.9452 75.704 66.9452H74.6161C74.5805 66.9452 74.5627 66.9629 74.5627 66.9985V69.5692C74.5627 69.8394 74.6232 70.0349 74.7441 70.1558C74.8578 70.2767 75.0427 70.3372 75.2987 70.3372H75.6187C75.6543 70.3372 75.6827 70.3478 75.704 70.3692C75.7325 70.3976 75.7467 70.4296 75.7467 70.4652V71.2652C75.7467 71.3434 75.7041 71.3896 75.6187 71.4038L75.064 71.4145C74.5023 71.4145 74.0827 71.3185 73.8054 71.1265C73.528 70.9345 73.3858 70.5718 73.3787 70.0385V66.9985C73.3787 66.9629 73.3609 66.9452 73.3254 66.9452H72.7174C72.6818 66.9452 72.6534 66.9309 72.632 66.9025C72.6036 66.8812 72.5894 66.8527 72.5894 66.8172V66.0705C72.5894 66.0349 72.6036 66.0029 72.632 65.9745C72.6534 65.9532 72.6818 65.9425 72.7174 65.9425H73.3254C73.3609 65.9425 73.3787 65.9247 73.3787 65.8892V64.6412C73.3787 64.6056 73.3929 64.5736 73.4214 64.5452C73.4427 64.5238 73.4712 64.5132 73.5067 64.5132H74.4347C74.4703 64.5132 74.4987 64.5238 74.52 64.5452C74.5485 64.5736 74.5627 64.6056 74.5627 64.6412V65.8892C74.5627 65.9247 74.5805 65.9425 74.6161 65.9425H75.704C75.7396 65.9425 75.7716 65.9532 75.8 65.9745C75.8214 66.0029 75.8321 66.0349 75.8321 66.0705V66.8172Z" fill="white"></path><path d="M35.7271 86.5187C35.1582 86.5187 34.6604 86.4262 34.2337 86.2413C33.8071 86.0636 33.4799 85.804 33.2524 85.4627C33.0177 85.1285 32.9004 84.7373 32.9004 84.2893V84.0547C32.9004 84.0191 32.9146 83.9907 32.9431 83.9694C32.9644 83.9409 32.9928 83.9267 33.0284 83.9267H34.2444C34.2799 83.9267 34.3119 83.9409 34.3404 83.9694C34.3617 83.9907 34.3724 84.0191 34.3724 84.0547V84.2147C34.3724 84.4991 34.5039 84.7373 34.7671 84.9293C35.0302 85.1285 35.3857 85.228 35.8337 85.228C36.2106 85.228 36.4915 85.1498 36.6764 84.9934C36.8613 84.8298 36.9537 84.6307 36.9537 84.396C36.9537 84.2253 36.8968 84.0831 36.7831 83.9694C36.6693 83.8485 36.5128 83.7454 36.3137 83.66C36.1217 83.5676 35.8124 83.4431 35.3857 83.2867C34.9093 83.1231 34.5039 82.956 34.1697 82.7854C33.8426 82.6147 33.5688 82.38 33.3484 82.0813C33.1208 81.7898 33.0071 81.4271 33.0071 80.9934C33.0071 80.5667 33.1173 80.1933 33.3377 79.8733C33.5582 79.5533 33.8639 79.308 34.2551 79.1374C34.6462 78.9667 35.0977 78.8813 35.6097 78.8813C36.1502 78.8813 36.6302 78.9774 37.0497 79.1694C37.4764 79.3614 37.8106 79.6316 38.0524 79.98C38.2871 80.3213 38.4044 80.7196 38.4044 81.1747V81.3347C38.4044 81.3702 38.3937 81.3987 38.3724 81.42C38.3439 81.4485 38.3119 81.4627 38.2764 81.4627H37.0497C37.0142 81.4627 36.9857 81.4485 36.9644 81.42C36.9359 81.3987 36.9217 81.3702 36.9217 81.3347V81.2493C36.9217 80.9507 36.8008 80.6947 36.5591 80.4813C36.3102 80.2751 35.9724 80.172 35.5457 80.172C35.2115 80.172 34.9484 80.2431 34.7564 80.3854C34.5715 80.5276 34.4791 80.7231 34.4791 80.972C34.4791 81.1498 34.5359 81.2991 34.6497 81.42C34.7564 81.5409 34.9199 81.6476 35.1404 81.74C35.3537 81.8396 35.6879 81.9711 36.1431 82.1347C36.6479 82.3196 37.0426 82.4831 37.3271 82.6254C37.6186 82.7676 37.8817 82.9773 38.1164 83.2547C38.3439 83.5391 38.4577 83.9054 38.4577 84.3534C38.4577 85.0218 38.2124 85.548 37.7217 85.932C37.2311 86.3231 36.5662 86.5187 35.7271 86.5187ZM42.5964 78.956C43.0657 78.956 43.4782 79.052 43.8337 79.244C44.1893 79.436 44.4666 79.7062 44.6657 80.0547C44.8577 80.4102 44.9537 80.8156 44.9537 81.2707C44.9537 81.7187 44.8542 82.1133 44.6551 82.4547C44.4488 82.796 44.1608 83.0627 43.7911 83.2547C43.4284 83.4396 43.0088 83.532 42.5324 83.532H41.0177C40.9822 83.532 40.9644 83.5498 40.9644 83.5854V86.3053C40.9644 86.3409 40.9502 86.3693 40.9217 86.3907C40.9004 86.4191 40.8719 86.4334 40.8364 86.4334H39.5884C39.5528 86.4334 39.5208 86.4191 39.4924 86.3907C39.4711 86.3693 39.4604 86.3409 39.4604 86.3053V79.084C39.4604 79.0485 39.4711 79.0165 39.4924 78.988C39.5208 78.9667 39.5528 78.956 39.5884 78.956H42.5964ZM42.3724 82.3267C42.6995 82.3267 42.9626 82.2307 43.1617 82.0387C43.3608 81.8538 43.4604 81.6085 43.4604 81.3027C43.4604 80.9898 43.3608 80.7374 43.1617 80.5454C42.9626 80.3534 42.6995 80.2573 42.3724 80.2573H41.0177C40.9822 80.2573 40.9644 80.2751 40.9644 80.3107V82.2733C40.9644 82.3089 40.9822 82.3267 41.0177 82.3267H42.3724ZM49.9777 86.4334C49.9066 86.4334 49.8568 86.4014 49.8284 86.3374L48.4951 83.3827C48.4808 83.3542 48.4595 83.34 48.4311 83.34H47.4391C47.4035 83.34 47.3857 83.3578 47.3857 83.3934V86.3053C47.3857 86.3409 47.3715 86.3693 47.3431 86.3907C47.3217 86.4191 47.2933 86.4334 47.2577 86.4334H46.0097C45.9742 86.4334 45.9422 86.4191 45.9137 86.3907C45.8924 86.3693 45.8817 86.3409 45.8817 86.3053V79.0947C45.8817 79.0591 45.8924 79.0307 45.9137 79.0094C45.9422 78.9809 45.9742 78.9667 46.0097 78.9667H49.0604C49.5155 78.9667 49.9137 79.0591 50.2551 79.244C50.6035 79.4289 50.8702 79.692 51.0551 80.0333C51.2471 80.3747 51.3431 80.7694 51.3431 81.2174C51.3431 81.7009 51.2222 82.1133 50.9804 82.4547C50.7386 82.8031 50.4008 83.0485 49.9671 83.1907C49.9315 83.2049 49.9208 83.2298 49.9351 83.2653L51.3857 86.284C51.4 86.3125 51.4071 86.3338 51.4071 86.348C51.4071 86.4049 51.3679 86.4334 51.2897 86.4334H49.9777ZM47.4391 80.2573C47.4035 80.2573 47.3857 80.2751 47.3857 80.3107V82.1347C47.3857 82.1702 47.4035 82.188 47.4391 82.188H48.8364C49.1351 82.188 49.3768 82.0991 49.5617 81.9213C49.7537 81.7436 49.8497 81.5125 49.8497 81.228C49.8497 80.9436 49.7537 80.7089 49.5617 80.524C49.3768 80.3462 49.1351 80.2573 48.8364 80.2573H47.4391ZM52.5591 86.4334C52.5235 86.4334 52.4951 86.4191 52.4737 86.3907C52.4453 86.3693 52.4311 86.3409 52.4311 86.3053V79.0947C52.4311 79.0591 52.4453 79.0307 52.4737 79.0094C52.4951 78.9809 52.5235 78.9667 52.5591 78.9667H53.8071C53.8426 78.9667 53.8746 78.9809 53.9031 79.0094C53.9244 79.0307 53.9351 79.0591 53.9351 79.0947V86.3053C53.9351 86.3409 53.9244 86.3693 53.9031 86.3907C53.8746 86.4191 53.8426 86.4334 53.8071 86.4334H52.5591ZM59.5244 79.0947C59.5244 79.0591 59.5386 79.0307 59.5671 79.0094C59.5884 78.9809 59.6168 78.9667 59.6524 78.9667H60.9004C60.9359 78.9667 60.9679 78.9809 60.9964 79.0094C61.0177 79.0307 61.0284 79.0591 61.0284 79.0947V86.3053C61.0284 86.3409 61.0177 86.3693 60.9964 86.3907C60.9679 86.4191 60.9359 86.4334 60.9004 86.4334H59.6951C59.6239 86.4334 59.5742 86.4049 59.5457 86.348L56.7831 81.7827C56.7688 81.7613 56.7546 81.7542 56.7404 81.7614C56.7262 81.7614 56.7191 81.7756 56.7191 81.804L56.7404 86.3053C56.7404 86.3409 56.7297 86.3693 56.7084 86.3907C56.6799 86.4191 56.6479 86.4334 56.6124 86.4334H55.3644C55.3288 86.4334 55.3004 86.4191 55.2791 86.3907C55.2506 86.3693 55.2364 86.3409 55.2364 86.3053V79.0947C55.2364 79.0591 55.2506 79.0307 55.2791 79.0094C55.3004 78.9809 55.3288 78.9667 55.3644 78.9667H56.5697C56.6408 78.9667 56.6906 78.9951 56.7191 79.052L59.4711 83.596C59.4853 83.6173 59.4995 83.6245 59.5137 83.6174C59.5279 83.6174 59.5351 83.6031 59.5351 83.5747L59.5244 79.0947ZM64.9537 86.5187C64.4062 86.5187 63.9226 86.4085 63.5031 86.188C63.0835 85.9676 62.7599 85.6618 62.5324 85.2707C62.2977 84.8725 62.1804 84.4138 62.1804 83.8947V81.5053C62.1804 80.9862 62.2977 80.5276 62.5324 80.1293C62.7599 79.7311 63.0835 79.4218 63.5031 79.2014C63.9226 78.988 64.4062 78.8813 64.9537 78.8813C65.4942 78.8813 65.9742 78.988 66.3937 79.2014C66.8062 79.4147 67.1297 79.7062 67.3644 80.076C67.5919 80.4387 67.7057 80.844 67.7057 81.292V81.3667C67.7057 81.4022 67.6951 81.4307 67.6737 81.452C67.6453 81.4805 67.6133 81.4947 67.5777 81.4947H66.3297C66.2942 81.4947 66.2657 81.4805 66.2444 81.452C66.2159 81.4307 66.2017 81.4022 66.2017 81.3667V81.3347C66.2017 81.0076 66.0879 80.7338 65.8604 80.5133C65.6328 80.2858 65.3306 80.172 64.9537 80.172C64.5697 80.172 64.2639 80.2893 64.0364 80.524C63.8017 80.7658 63.6844 81.0787 63.6844 81.4627V83.9374C63.6844 84.3214 63.8088 84.6307 64.0577 84.8653C64.3066 85.1071 64.6231 85.228 65.0071 85.228C65.3768 85.228 65.6719 85.1285 65.8924 84.9293C66.1128 84.7373 66.2231 84.4671 66.2231 84.1187V83.6387C66.2231 83.6031 66.2053 83.5854 66.1697 83.5854H64.9751C64.9395 83.5854 64.9111 83.5711 64.8897 83.5427C64.8613 83.5214 64.8471 83.4929 64.8471 83.4573V82.476C64.8471 82.4405 64.8613 82.412 64.8897 82.3907C64.9111 82.3622 64.9395 82.348 64.9751 82.348H67.5777C67.6133 82.348 67.6453 82.3622 67.6737 82.3907C67.6951 82.412 67.7057 82.4405 67.7057 82.476V83.884C67.7057 84.4245 67.5919 84.8938 67.3644 85.292C67.1368 85.6902 66.8168 85.996 66.4044 86.2094C65.9848 86.4156 65.5013 86.5187 64.9537 86.5187ZM40.5591 95.1053C40.5448 95.1196 40.5413 95.1338 40.5484 95.148C40.5555 95.1622 40.5697 95.1694 40.5911 95.1694H43.4817C43.5173 95.1694 43.5493 95.18 43.5777 95.2014C43.5991 95.2298 43.6097 95.2618 43.6097 95.2973V96.332C43.6097 96.3676 43.5991 96.396 43.5777 96.4174C43.5493 96.4458 43.5173 96.46 43.4817 96.46H38.6817C38.6462 96.46 38.6142 96.4458 38.5857 96.4174C38.5644 96.396 38.5537 96.3676 38.5537 96.332V95.3507C38.5537 95.2867 38.5751 95.2333 38.6177 95.1907C38.9662 94.8493 39.3217 94.4796 39.6844 94.0813C40.0471 93.676 40.2746 93.4236 40.3671 93.324C40.5662 93.0893 40.7688 92.8654 40.9751 92.652C41.6222 91.9338 41.9457 91.4005 41.9457 91.052C41.9457 90.8031 41.8568 90.5969 41.6791 90.4334C41.5013 90.2769 41.2702 90.1987 40.9857 90.1987C40.7013 90.1987 40.4702 90.2769 40.2924 90.4334C40.1146 90.5969 40.0257 90.8102 40.0257 91.0733V91.34C40.0257 91.3756 40.0115 91.4076 39.9831 91.436C39.9617 91.4574 39.9333 91.468 39.8977 91.468H38.6391C38.6035 91.468 38.5751 91.4574 38.5537 91.436C38.5253 91.4076 38.5111 91.3756 38.5111 91.34V90.8387C38.5324 90.4547 38.6533 90.1133 38.8737 89.8147C39.0942 89.5231 39.3857 89.2991 39.7484 89.1427C40.1182 88.9862 40.5306 88.908 40.9857 88.908C41.4906 88.908 41.9315 89.0005 42.3084 89.1854C42.6782 89.3774 42.9662 89.6334 43.1724 89.9534C43.3715 90.2734 43.4711 90.6289 43.4711 91.02C43.4711 91.3187 43.3964 91.6245 43.2471 91.9374C43.0977 92.2502 42.8737 92.588 42.5751 92.9507C42.3546 93.228 42.1164 93.5018 41.8604 93.772C41.6044 94.0422 41.2239 94.4334 40.7191 94.9454L40.5591 95.1053ZM47.0764 96.5774C46.2942 96.5774 45.6755 96.3569 45.2204 95.916C44.7653 95.4822 44.5377 94.8885 44.5377 94.1347V91.3187C44.5377 90.5791 44.7653 89.9925 45.2204 89.5587C45.6755 89.1249 46.2942 88.908 47.0764 88.908C47.8586 88.908 48.4808 89.1249 48.9431 89.5587C49.3982 89.9925 49.6257 90.5791 49.6257 91.3187V94.1347C49.6257 94.8885 49.3982 95.4822 48.9431 95.916C48.4808 96.3569 47.8586 96.5774 47.0764 96.5774ZM47.0764 95.2867C47.3964 95.2867 47.6524 95.1871 47.8444 94.988C48.0293 94.796 48.1217 94.5365 48.1217 94.2094V91.276C48.1217 90.9489 48.0293 90.6893 47.8444 90.4973C47.6524 90.2982 47.3964 90.1987 47.0764 90.1987C46.7635 90.1987 46.5146 90.2982 46.3297 90.4973C46.1377 90.6893 46.0417 90.9489 46.0417 91.276V94.2094C46.0417 94.5365 46.1377 94.796 46.3297 94.988C46.5146 95.1871 46.7635 95.2867 47.0764 95.2867ZM52.6124 95.1053C52.5982 95.1196 52.5946 95.1338 52.6017 95.148C52.6088 95.1622 52.6231 95.1694 52.6444 95.1694H55.5351C55.5706 95.1694 55.6026 95.18 55.6311 95.2014C55.6524 95.2298 55.6631 95.2618 55.6631 95.2973V96.332C55.6631 96.3676 55.6524 96.396 55.6311 96.4174C55.6026 96.4458 55.5706 96.46 55.5351 96.46H50.7351C50.6995 96.46 50.6711 96.4458 50.6497 96.4174C50.6213 96.396 50.6071 96.3676 50.6071 96.332V95.3507C50.6071 95.2867 50.6284 95.2333 50.6711 95.1907C51.0195 94.8493 51.3751 94.4796 51.7377 94.0813C52.1004 93.676 52.3279 93.4236 52.4204 93.324C52.6195 93.0893 52.8222 92.8654 53.0284 92.652C53.6755 91.9338 53.9991 91.4005 53.9991 91.052C53.9991 90.8031 53.9102 90.5969 53.7324 90.4334C53.5546 90.2769 53.3235 90.1987 53.0391 90.1987C52.7546 90.1987 52.5235 90.2769 52.3457 90.4334C52.1679 90.5969 52.0791 90.8102 52.0791 91.0733V91.34C52.0791 91.3756 52.0684 91.4076 52.0471 91.436C52.0186 91.4574 51.9866 91.468 51.9511 91.468H50.6924C50.6568 91.468 50.6284 91.4574 50.6071 91.436C50.5786 91.4076 50.5644 91.3756 50.5644 91.34V90.8387C50.5857 90.4547 50.7066 90.1133 50.9271 89.8147C51.1475 89.5231 51.4426 89.2991 51.8124 89.1427C52.1751 88.9862 52.5839 88.908 53.0391 88.908C53.5439 88.908 53.9848 89.0005 54.3617 89.1854C54.7315 89.3774 55.0195 89.6334 55.2257 89.9534C55.4248 90.2734 55.5244 90.6289 55.5244 91.02C55.5244 91.3187 55.4497 91.6245 55.3004 91.9374C55.1511 92.2502 54.9271 92.588 54.6284 92.9507C54.4079 93.228 54.1697 93.5018 53.9137 93.772C53.6577 94.0422 53.2773 94.4334 52.7724 94.9454L52.6124 95.1053ZM61.9244 93.2067C61.9599 93.2067 61.9919 93.2173 62.0204 93.2387C62.0417 93.2671 62.0524 93.2991 62.0524 93.3347V94.412C62.0524 94.4476 62.0417 94.4796 62.0204 94.508C61.9919 94.5294 61.9599 94.54 61.9244 94.54H61.4657C61.4302 94.54 61.4124 94.5578 61.4124 94.5934V96.332C61.4124 96.3676 61.4017 96.396 61.3804 96.4174C61.3519 96.4458 61.3199 96.46 61.2844 96.46H60.0364C60.0008 96.46 59.9724 96.4458 59.9511 96.4174C59.9226 96.396 59.9084 96.3676 59.9084 96.332V94.5934C59.9084 94.5578 59.8906 94.54 59.8551 94.54H56.5804C56.5448 94.54 56.5164 94.5294 56.4951 94.508C56.4666 94.4796 56.4524 94.4476 56.4524 94.412V93.5587C56.4524 93.516 56.4631 93.4627 56.4844 93.3987L58.4044 89.0893C58.4328 89.0253 58.4826 88.9934 58.5537 88.9934H59.8871C59.9368 88.9934 59.9724 89.0076 59.9937 89.036C60.0079 89.0574 60.0044 89.0929 59.9831 89.1427L58.2017 93.1427C58.1946 93.1569 58.1946 93.1711 58.2017 93.1854C58.2088 93.1996 58.2195 93.2067 58.2337 93.2067H59.8551C59.8906 93.2067 59.9084 93.1889 59.9084 93.1534V91.8307C59.9084 91.7951 59.9226 91.7667 59.9511 91.7454C59.9724 91.7169 60.0008 91.7027 60.0364 91.7027H61.2844C61.3199 91.7027 61.3519 91.7169 61.3804 91.7454C61.4017 91.7667 61.4124 91.7951 61.4124 91.8307V93.1534C61.4124 93.1889 61.4302 93.2067 61.4657 93.2067H61.9244Z" fill="#252530"></path></g><defs><clipPath id="clip0_17258_8085"><rect width="100" height="112" fill="white" transform="translate(0.5)"></rect></clipPath></defs></svg> 